G75*
%MOIN*%
%OFA0B0*%
%FSLAX25Y25*%
%IPPOS*%
%LPD*%
%AMOC8*
5,1,8,0,0,1.08239X$1,22.5*
%
%ADD10C,0.06000*%
%ADD11OC8,0.06800*%
%ADD12OC8,0.06000*%
%ADD13C,0.08400*%
%ADD14C,0.13398*%
%ADD15C,0.08674*%
%ADD16C,0.13600*%
%ADD17C,0.06400*%
%ADD18C,0.10100*%
D10*
X0133400Y0076000D02*
X0138600Y0076000D01*
X0138600Y0086000D02*
X0133400Y0086000D01*
X0133400Y0096000D02*
X0138600Y0096000D01*
X0138600Y0106000D02*
X0133400Y0106000D01*
X0133400Y0116000D02*
X0138600Y0116000D01*
X0138600Y0126000D02*
X0133400Y0126000D01*
X0133400Y0136000D02*
X0138600Y0136000D01*
X0163400Y0136000D02*
X0168600Y0136000D01*
X0168600Y0126000D02*
X0163400Y0126000D01*
X0163400Y0116000D02*
X0168600Y0116000D01*
X0168600Y0106000D02*
X0163400Y0106000D01*
X0163400Y0096000D02*
X0168600Y0096000D01*
X0168600Y0086000D02*
X0163400Y0086000D01*
X0163400Y0076000D02*
X0168600Y0076000D01*
D11*
X0121000Y0136000D03*
X0111000Y0136000D03*
X0111000Y0146000D03*
X0121000Y0146000D03*
X0121000Y0156000D03*
X0111000Y0156000D03*
X0111000Y0166000D03*
X0121000Y0166000D03*
X0121000Y0176000D03*
X0111000Y0176000D03*
D12*
X0296000Y0181000D03*
X0336000Y0181000D03*
D13*
X0336000Y0171000D03*
X0326000Y0171000D03*
X0316000Y0171000D03*
X0306000Y0171000D03*
X0296000Y0171000D03*
X0286000Y0171000D03*
X0276000Y0171000D03*
X0266000Y0171000D03*
X0256000Y0171000D03*
X0246000Y0171000D03*
X0236000Y0171000D03*
X0226000Y0171000D03*
X0216000Y0171000D03*
X0206000Y0171000D03*
X0346000Y0171000D03*
X0346000Y0081000D03*
X0336000Y0081000D03*
X0326000Y0081000D03*
X0316000Y0081000D03*
X0306000Y0081000D03*
X0296000Y0081000D03*
X0286000Y0081000D03*
X0276000Y0081000D03*
X0266000Y0081000D03*
X0256000Y0081000D03*
X0246000Y0081000D03*
X0236000Y0081000D03*
X0226000Y0081000D03*
X0216000Y0081000D03*
X0206000Y0081000D03*
D14*
X0191000Y0086000D03*
X0191000Y0166000D03*
X0361000Y0166000D03*
X0361000Y0086000D03*
D15*
X0356098Y0046083D03*
X0356098Y0026083D03*
D16*
X0026000Y0021000D03*
X0076000Y0021000D03*
X0106000Y0021000D03*
X0156000Y0021000D03*
X0186000Y0021000D03*
X0236000Y0021000D03*
X0266000Y0021000D03*
X0316000Y0021000D03*
D17*
X0305000Y0031000D03*
X0297000Y0031000D03*
X0289000Y0031000D03*
X0281000Y0031000D03*
X0277000Y0038000D03*
X0285000Y0038000D03*
X0293000Y0038000D03*
X0301000Y0038000D03*
X0225000Y0031000D03*
X0217000Y0031000D03*
X0209000Y0031000D03*
X0201000Y0031000D03*
X0197000Y0038000D03*
X0205000Y0038000D03*
X0213000Y0038000D03*
X0221000Y0038000D03*
X0145000Y0031000D03*
X0137000Y0031000D03*
X0129000Y0031000D03*
X0121000Y0031000D03*
X0117000Y0038000D03*
X0125000Y0038000D03*
X0133000Y0038000D03*
X0141000Y0038000D03*
X0065000Y0031000D03*
X0057000Y0031000D03*
X0049000Y0031000D03*
X0041000Y0031000D03*
X0037000Y0038000D03*
X0045000Y0038000D03*
X0053000Y0038000D03*
X0061000Y0038000D03*
D18*
X0082900Y0034500D03*
X0099100Y0034500D03*
X0162900Y0034500D03*
X0179100Y0034500D03*
X0242900Y0034500D03*
X0259100Y0034500D03*
X0322900Y0034500D03*
X0019100Y0034500D03*
M02*
