G75*
%MOIN*%
%OFA0B0*%
%FSLAX25Y25*%
%IPPOS*%
%LPD*%
%AMOC8*
5,1,8,0,0,1.08239X$1,22.5*
%
%ADD10C,0.05200*%
%ADD11OC8,0.06000*%
%ADD12OC8,0.05200*%
%ADD13C,0.07600*%
%ADD14C,0.07874*%
%ADD15C,0.05600*%
%ADD16C,0.09300*%
%ADD17C,0.01000*%
D10*
X0133400Y0076000D02*
X0138600Y0076000D01*
X0138600Y0086000D02*
X0133400Y0086000D01*
X0133400Y0096000D02*
X0138600Y0096000D01*
X0138600Y0106000D02*
X0133400Y0106000D01*
X0133400Y0116000D02*
X0138600Y0116000D01*
X0138600Y0126000D02*
X0133400Y0126000D01*
X0133400Y0136000D02*
X0138600Y0136000D01*
X0163400Y0136000D02*
X0168600Y0136000D01*
X0168600Y0126000D02*
X0163400Y0126000D01*
X0163400Y0116000D02*
X0168600Y0116000D01*
X0168600Y0106000D02*
X0163400Y0106000D01*
X0163400Y0096000D02*
X0168600Y0096000D01*
X0168600Y0086000D02*
X0163400Y0086000D01*
X0163400Y0076000D02*
X0168600Y0076000D01*
D11*
X0121000Y0136000D03*
X0111000Y0136000D03*
X0111000Y0146000D03*
X0121000Y0146000D03*
X0121000Y0156000D03*
X0111000Y0156000D03*
X0111000Y0166000D03*
X0121000Y0166000D03*
X0121000Y0176000D03*
X0111000Y0176000D03*
D12*
X0296000Y0181000D03*
X0336000Y0181000D03*
D13*
X0336000Y0171000D03*
X0326000Y0171000D03*
X0316000Y0171000D03*
X0306000Y0171000D03*
X0296000Y0171000D03*
X0286000Y0171000D03*
X0276000Y0171000D03*
X0266000Y0171000D03*
X0256000Y0171000D03*
X0246000Y0171000D03*
X0236000Y0171000D03*
X0226000Y0171000D03*
X0216000Y0171000D03*
X0206000Y0171000D03*
X0346000Y0171000D03*
X0346000Y0081000D03*
X0336000Y0081000D03*
X0326000Y0081000D03*
X0316000Y0081000D03*
X0306000Y0081000D03*
X0296000Y0081000D03*
X0286000Y0081000D03*
X0276000Y0081000D03*
X0266000Y0081000D03*
X0256000Y0081000D03*
X0246000Y0081000D03*
X0236000Y0081000D03*
X0226000Y0081000D03*
X0216000Y0081000D03*
X0206000Y0081000D03*
D14*
X0356098Y0046083D03*
X0356098Y0026083D03*
D15*
X0041000Y0031000D03*
X0049000Y0031000D03*
X0057000Y0031000D03*
X0065000Y0031000D03*
X0061000Y0038000D03*
X0053000Y0038000D03*
X0045000Y0038000D03*
X0037000Y0038000D03*
X0117000Y0038000D03*
X0125000Y0038000D03*
X0133000Y0038000D03*
X0141000Y0038000D03*
X0137000Y0031000D03*
X0129000Y0031000D03*
X0121000Y0031000D03*
X0145000Y0031000D03*
X0197000Y0038000D03*
X0205000Y0038000D03*
X0213000Y0038000D03*
X0221000Y0038000D03*
X0217000Y0031000D03*
X0209000Y0031000D03*
X0201000Y0031000D03*
X0225000Y0031000D03*
X0277000Y0038000D03*
X0285000Y0038000D03*
X0293000Y0038000D03*
X0301000Y0038000D03*
X0297000Y0031000D03*
X0289000Y0031000D03*
X0281000Y0031000D03*
X0305000Y0031000D03*
D16*
X0322900Y0034500D03*
X0259100Y0034500D03*
X0242900Y0034500D03*
X0179100Y0034500D03*
X0162900Y0034500D03*
X0099100Y0034500D03*
X0082900Y0034500D03*
X0019100Y0034500D03*
D17*
X0031000Y0036000D02*
X0031000Y0061000D01*
X0365201Y0061000D01*
X0365201Y0036000D01*
X0329585Y0036000D01*
X0328622Y0038324D01*
X0326724Y0040222D01*
X0324243Y0041250D01*
X0321557Y0041250D01*
X0319076Y0040222D01*
X0317178Y0038324D01*
X0316215Y0036000D01*
X0305475Y0036000D01*
X0305900Y0037025D01*
X0305900Y0038975D01*
X0305154Y0040776D01*
X0303776Y0042154D01*
X0301975Y0042900D01*
X0300025Y0042900D01*
X0298224Y0042154D01*
X0296846Y0040776D01*
X0296647Y0040296D01*
X0296280Y0040801D01*
X0295801Y0041280D01*
X0295254Y0041678D01*
X0294651Y0041985D01*
X0294007Y0042194D01*
X0293375Y0042294D01*
X0293375Y0038375D01*
X0292625Y0038375D01*
X0292625Y0042294D01*
X0291993Y0042194D01*
X0291349Y0041985D01*
X0290746Y0041678D01*
X0290199Y0041280D01*
X0289720Y0040801D01*
X0289322Y0040254D01*
X0289015Y0039651D01*
X0289000Y0039604D01*
X0288985Y0039651D01*
X0288678Y0040254D01*
X0288280Y0040801D01*
X0287801Y0041280D01*
X0287254Y0041678D01*
X0286651Y0041985D01*
X0286007Y0042194D01*
X0285375Y0042294D01*
X0285375Y0038375D01*
X0289294Y0038375D01*
X0292625Y0038375D01*
X0292625Y0037625D01*
X0285375Y0037625D01*
X0285375Y0038375D01*
X0284625Y0038375D01*
X0284625Y0042294D01*
X0283993Y0042194D01*
X0283349Y0041985D01*
X0282746Y0041678D01*
X0282199Y0041280D01*
X0281720Y0040801D01*
X0281322Y0040254D01*
X0281015Y0039651D01*
X0281000Y0039604D01*
X0280985Y0039651D01*
X0280678Y0040254D01*
X0280280Y0040801D01*
X0279801Y0041280D01*
X0279254Y0041678D01*
X0278651Y0041985D01*
X0278007Y0042194D01*
X0277375Y0042294D01*
X0277375Y0038375D01*
X0281294Y0038375D01*
X0284625Y0038375D01*
X0284625Y0037625D01*
X0277375Y0037625D01*
X0277375Y0038375D01*
X0276625Y0038375D01*
X0276625Y0042294D01*
X0275993Y0042194D01*
X0275349Y0041985D01*
X0274746Y0041678D01*
X0274199Y0041280D01*
X0273720Y0040801D01*
X0273322Y0040254D01*
X0273015Y0039651D01*
X0272806Y0039007D01*
X0272706Y0038375D01*
X0276625Y0038375D01*
X0276625Y0037625D01*
X0272706Y0037625D01*
X0272806Y0036993D01*
X0273015Y0036349D01*
X0273193Y0036000D01*
X0265785Y0036000D01*
X0264822Y0038324D01*
X0262924Y0040222D01*
X0260443Y0041250D01*
X0257757Y0041250D01*
X0255276Y0040222D01*
X0253378Y0038324D01*
X0252415Y0036000D01*
X0249585Y0036000D01*
X0248622Y0038324D01*
X0246724Y0040222D01*
X0244243Y0041250D01*
X0241557Y0041250D01*
X0239076Y0040222D01*
X0237178Y0038324D01*
X0236215Y0036000D01*
X0225475Y0036000D01*
X0225900Y0037025D01*
X0225900Y0038975D01*
X0225154Y0040776D01*
X0223776Y0042154D01*
X0221975Y0042900D01*
X0220025Y0042900D01*
X0218224Y0042154D01*
X0216846Y0040776D01*
X0216647Y0040296D01*
X0216280Y0040801D01*
X0215801Y0041280D01*
X0215254Y0041678D01*
X0214651Y0041985D01*
X0214007Y0042194D01*
X0213375Y0042294D01*
X0213375Y0038375D01*
X0212625Y0038375D01*
X0212625Y0042294D01*
X0211993Y0042194D01*
X0211349Y0041985D01*
X0210746Y0041678D01*
X0210199Y0041280D01*
X0209720Y0040801D01*
X0209322Y0040254D01*
X0209015Y0039651D01*
X0209000Y0039604D01*
X0208985Y0039651D01*
X0208678Y0040254D01*
X0208280Y0040801D01*
X0207801Y0041280D01*
X0207254Y0041678D01*
X0206651Y0041985D01*
X0206007Y0042194D01*
X0205375Y0042294D01*
X0205375Y0038375D01*
X0208706Y0038375D01*
X0212625Y0038375D01*
X0212625Y0037625D01*
X0205375Y0037625D01*
X0205375Y0038375D01*
X0204625Y0038375D01*
X0204625Y0042294D01*
X0203993Y0042194D01*
X0203349Y0041985D01*
X0202746Y0041678D01*
X0202199Y0041280D01*
X0201720Y0040801D01*
X0201322Y0040254D01*
X0201015Y0039651D01*
X0201000Y0039604D01*
X0200985Y0039651D01*
X0200678Y0040254D01*
X0200280Y0040801D01*
X0199801Y0041280D01*
X0199254Y0041678D01*
X0198651Y0041985D01*
X0198007Y0042194D01*
X0197375Y0042294D01*
X0197375Y0038375D01*
X0201294Y0038375D01*
X0204625Y0038375D01*
X0204625Y0037625D01*
X0197375Y0037625D01*
X0197375Y0038375D01*
X0196625Y0038375D01*
X0196625Y0042294D01*
X0195993Y0042194D01*
X0195349Y0041985D01*
X0194746Y0041678D01*
X0194199Y0041280D01*
X0193720Y0040801D01*
X0193322Y0040254D01*
X0193015Y0039651D01*
X0192806Y0039007D01*
X0192706Y0038375D01*
X0196625Y0038375D01*
X0196625Y0037625D01*
X0192706Y0037625D01*
X0192806Y0036993D01*
X0193015Y0036349D01*
X0193193Y0036000D01*
X0185785Y0036000D01*
X0184822Y0038324D01*
X0182924Y0040222D01*
X0180443Y0041250D01*
X0177757Y0041250D01*
X0175276Y0040222D01*
X0173378Y0038324D01*
X0172415Y0036000D01*
X0169585Y0036000D01*
X0168622Y0038324D01*
X0166724Y0040222D01*
X0164243Y0041250D01*
X0161557Y0041250D01*
X0159076Y0040222D01*
X0157178Y0038324D01*
X0156215Y0036000D01*
X0145475Y0036000D01*
X0145900Y0037025D01*
X0145900Y0038975D01*
X0145154Y0040776D01*
X0143776Y0042154D01*
X0141975Y0042900D01*
X0140025Y0042900D01*
X0138224Y0042154D01*
X0136846Y0040776D01*
X0136647Y0040296D01*
X0136280Y0040801D01*
X0135801Y0041280D01*
X0135254Y0041678D01*
X0134651Y0041985D01*
X0134007Y0042194D01*
X0133375Y0042294D01*
X0133375Y0038375D01*
X0132625Y0038375D01*
X0132625Y0042294D01*
X0131993Y0042194D01*
X0131349Y0041985D01*
X0130746Y0041678D01*
X0130199Y0041280D01*
X0129720Y0040801D01*
X0129322Y0040254D01*
X0129015Y0039651D01*
X0129000Y0039604D01*
X0128985Y0039651D01*
X0128678Y0040254D01*
X0128280Y0040801D01*
X0127801Y0041280D01*
X0127254Y0041678D01*
X0126651Y0041985D01*
X0126007Y0042194D01*
X0125375Y0042294D01*
X0125375Y0038375D01*
X0129294Y0038375D01*
X0132625Y0038375D01*
X0132625Y0037625D01*
X0125375Y0037625D01*
X0125375Y0038375D01*
X0124625Y0038375D01*
X0124625Y0042294D01*
X0123993Y0042194D01*
X0123349Y0041985D01*
X0122746Y0041678D01*
X0122199Y0041280D01*
X0121720Y0040801D01*
X0121322Y0040254D01*
X0121015Y0039651D01*
X0121000Y0039604D01*
X0120985Y0039651D01*
X0120678Y0040254D01*
X0120280Y0040801D01*
X0119801Y0041280D01*
X0119254Y0041678D01*
X0118651Y0041985D01*
X0118007Y0042194D01*
X0117375Y0042294D01*
X0117375Y0038375D01*
X0120706Y0038375D01*
X0124625Y0038375D01*
X0124625Y0037625D01*
X0117375Y0037625D01*
X0117375Y0038375D01*
X0116625Y0038375D01*
X0116625Y0042294D01*
X0115993Y0042194D01*
X0115349Y0041985D01*
X0114746Y0041678D01*
X0114199Y0041280D01*
X0113720Y0040801D01*
X0113322Y0040254D01*
X0113015Y0039651D01*
X0112806Y0039007D01*
X0112706Y0038375D01*
X0116625Y0038375D01*
X0116625Y0037625D01*
X0112706Y0037625D01*
X0112806Y0036993D01*
X0113015Y0036349D01*
X0113193Y0036000D01*
X0105785Y0036000D01*
X0104822Y0038324D01*
X0102924Y0040222D01*
X0100443Y0041250D01*
X0097757Y0041250D01*
X0095276Y0040222D01*
X0093378Y0038324D01*
X0092415Y0036000D01*
X0089585Y0036000D01*
X0088622Y0038324D01*
X0086724Y0040222D01*
X0084243Y0041250D01*
X0081557Y0041250D01*
X0079076Y0040222D01*
X0077178Y0038324D01*
X0076215Y0036000D01*
X0065475Y0036000D01*
X0065900Y0037025D01*
X0065900Y0038975D01*
X0065154Y0040776D01*
X0063776Y0042154D01*
X0061975Y0042900D01*
X0060025Y0042900D01*
X0058224Y0042154D01*
X0056846Y0040776D01*
X0056647Y0040296D01*
X0056280Y0040801D01*
X0055801Y0041280D01*
X0055254Y0041678D01*
X0054651Y0041985D01*
X0054007Y0042194D01*
X0053375Y0042294D01*
X0053375Y0038375D01*
X0052625Y0038375D01*
X0052625Y0042294D01*
X0051993Y0042194D01*
X0051349Y0041985D01*
X0050746Y0041678D01*
X0050199Y0041280D01*
X0049720Y0040801D01*
X0049322Y0040254D01*
X0049015Y0039651D01*
X0049000Y0039604D01*
X0048985Y0039651D01*
X0048678Y0040254D01*
X0048280Y0040801D01*
X0047801Y0041280D01*
X0047254Y0041678D01*
X0046651Y0041985D01*
X0046007Y0042194D01*
X0045375Y0042294D01*
X0045375Y0038375D01*
X0049294Y0038375D01*
X0052625Y0038375D01*
X0052625Y0037625D01*
X0045375Y0037625D01*
X0045375Y0038375D01*
X0044625Y0038375D01*
X0044625Y0042294D01*
X0043993Y0042194D01*
X0043349Y0041985D01*
X0042746Y0041678D01*
X0042199Y0041280D01*
X0041720Y0040801D01*
X0041322Y0040254D01*
X0041015Y0039651D01*
X0041000Y0039604D01*
X0040985Y0039651D01*
X0040678Y0040254D01*
X0040280Y0040801D01*
X0039801Y0041280D01*
X0039254Y0041678D01*
X0038651Y0041985D01*
X0038007Y0042194D01*
X0037375Y0042294D01*
X0037375Y0038375D01*
X0041294Y0038375D01*
X0044625Y0038375D01*
X0044625Y0037625D01*
X0037375Y0037625D01*
X0037375Y0038375D01*
X0036625Y0038375D01*
X0036625Y0042294D01*
X0035993Y0042194D01*
X0035349Y0041985D01*
X0034746Y0041678D01*
X0034199Y0041280D01*
X0033720Y0040801D01*
X0033322Y0040254D01*
X0033015Y0039651D01*
X0032806Y0039007D01*
X0032706Y0038375D01*
X0036625Y0038375D01*
X0036625Y0037625D01*
X0032706Y0037625D01*
X0032806Y0036993D01*
X0033015Y0036349D01*
X0033193Y0036000D01*
X0031000Y0036000D01*
X0031000Y0036946D02*
X0032821Y0036946D01*
X0032796Y0038943D02*
X0031000Y0038943D01*
X0031000Y0037945D02*
X0036625Y0037945D01*
X0037375Y0037945D02*
X0044625Y0037945D01*
X0045375Y0037945D02*
X0052625Y0037945D01*
X0052625Y0038943D02*
X0053375Y0038943D01*
X0053375Y0039942D02*
X0052625Y0039942D01*
X0052625Y0040940D02*
X0053375Y0040940D01*
X0053375Y0041939D02*
X0052625Y0041939D01*
X0051259Y0041939D02*
X0046741Y0041939D01*
X0045375Y0041939D02*
X0044625Y0041939D01*
X0044625Y0040940D02*
X0045375Y0040940D01*
X0045375Y0039942D02*
X0044625Y0039942D01*
X0044625Y0038943D02*
X0045375Y0038943D01*
X0048141Y0040940D02*
X0049859Y0040940D01*
X0049163Y0039942D02*
X0048837Y0039942D01*
X0054741Y0041939D02*
X0058009Y0041939D01*
X0057011Y0040940D02*
X0056141Y0040940D01*
X0063991Y0041939D02*
X0115259Y0041939D01*
X0116625Y0041939D02*
X0117375Y0041939D01*
X0117375Y0040940D02*
X0116625Y0040940D01*
X0116625Y0039942D02*
X0117375Y0039942D01*
X0117375Y0038943D02*
X0116625Y0038943D01*
X0116625Y0037945D02*
X0104979Y0037945D01*
X0105393Y0036946D02*
X0112821Y0036946D01*
X0112796Y0038943D02*
X0104202Y0038943D01*
X0103204Y0039942D02*
X0113163Y0039942D01*
X0113859Y0040940D02*
X0101190Y0040940D01*
X0097010Y0040940D02*
X0084990Y0040940D01*
X0087004Y0039942D02*
X0094996Y0039942D01*
X0093997Y0038943D02*
X0088002Y0038943D01*
X0088779Y0037945D02*
X0093221Y0037945D01*
X0092807Y0036946D02*
X0089193Y0036946D01*
X0080810Y0040940D02*
X0064989Y0040940D01*
X0065499Y0039942D02*
X0078796Y0039942D01*
X0077797Y0038943D02*
X0065900Y0038943D01*
X0065900Y0037945D02*
X0077021Y0037945D01*
X0076607Y0036946D02*
X0065867Y0036946D01*
X0043259Y0041939D02*
X0038741Y0041939D01*
X0037375Y0041939D02*
X0036625Y0041939D01*
X0036625Y0040940D02*
X0037375Y0040940D01*
X0037375Y0039942D02*
X0036625Y0039942D01*
X0036625Y0038943D02*
X0037375Y0038943D01*
X0040141Y0040940D02*
X0041859Y0040940D01*
X0041163Y0039942D02*
X0040837Y0039942D01*
X0035259Y0041939D02*
X0031000Y0041939D01*
X0031000Y0042937D02*
X0351663Y0042937D01*
X0351448Y0043233D02*
X0351951Y0042541D01*
X0352556Y0041936D01*
X0353249Y0041433D01*
X0354011Y0041044D01*
X0354825Y0040780D01*
X0355598Y0040657D01*
X0355598Y0045583D01*
X0350673Y0045583D01*
X0350795Y0044810D01*
X0351060Y0043996D01*
X0351448Y0043233D01*
X0351090Y0043936D02*
X0031000Y0043936D01*
X0031000Y0044934D02*
X0350776Y0044934D01*
X0350673Y0046583D02*
X0355598Y0046583D01*
X0355598Y0045583D01*
X0356598Y0045583D01*
X0356598Y0040657D01*
X0357372Y0040780D01*
X0358186Y0041044D01*
X0358948Y0041433D01*
X0359640Y0041936D01*
X0360246Y0042541D01*
X0360749Y0043233D01*
X0361137Y0043996D01*
X0361402Y0044810D01*
X0361524Y0045583D01*
X0356598Y0045583D01*
X0356598Y0046583D01*
X0355598Y0046583D01*
X0355598Y0051509D01*
X0354825Y0051386D01*
X0354011Y0051122D01*
X0353249Y0050733D01*
X0352556Y0050230D01*
X0351951Y0049625D01*
X0351448Y0048933D01*
X0351060Y0048170D01*
X0350795Y0047356D01*
X0350673Y0046583D01*
X0350728Y0046932D02*
X0031000Y0046932D01*
X0031000Y0047930D02*
X0350982Y0047930D01*
X0351446Y0048929D02*
X0031000Y0048929D01*
X0031000Y0049927D02*
X0352253Y0049927D01*
X0353626Y0050926D02*
X0031000Y0050926D01*
X0031000Y0051924D02*
X0365201Y0051924D01*
X0365201Y0050926D02*
X0358571Y0050926D01*
X0358948Y0050733D02*
X0358186Y0051122D01*
X0357372Y0051386D01*
X0356598Y0051509D01*
X0356598Y0046583D01*
X0361524Y0046583D01*
X0361402Y0047356D01*
X0361137Y0048170D01*
X0360749Y0048933D01*
X0360246Y0049625D01*
X0359640Y0050230D01*
X0358948Y0050733D01*
X0359944Y0049927D02*
X0365201Y0049927D01*
X0365201Y0048929D02*
X0360751Y0048929D01*
X0361215Y0047930D02*
X0365201Y0047930D01*
X0365201Y0046932D02*
X0361469Y0046932D01*
X0361421Y0044934D02*
X0365201Y0044934D01*
X0365201Y0043936D02*
X0361107Y0043936D01*
X0360534Y0042937D02*
X0365201Y0042937D01*
X0365201Y0041939D02*
X0359643Y0041939D01*
X0357866Y0040940D02*
X0365201Y0040940D01*
X0365201Y0039942D02*
X0327004Y0039942D01*
X0328002Y0038943D02*
X0365201Y0038943D01*
X0365201Y0037945D02*
X0328779Y0037945D01*
X0329193Y0036946D02*
X0365201Y0036946D01*
X0356598Y0040940D02*
X0355598Y0040940D01*
X0355598Y0041939D02*
X0356598Y0041939D01*
X0356598Y0042937D02*
X0355598Y0042937D01*
X0355598Y0043936D02*
X0356598Y0043936D01*
X0356598Y0044934D02*
X0355598Y0044934D01*
X0355598Y0045933D02*
X0031000Y0045933D01*
X0031000Y0040940D02*
X0033859Y0040940D01*
X0033163Y0039942D02*
X0031000Y0039942D01*
X0031000Y0052923D02*
X0365201Y0052923D01*
X0365201Y0053921D02*
X0031000Y0053921D01*
X0031000Y0054920D02*
X0365201Y0054920D01*
X0365201Y0055918D02*
X0031000Y0055918D01*
X0031000Y0056917D02*
X0365201Y0056917D01*
X0365201Y0057915D02*
X0031000Y0057915D01*
X0031000Y0058914D02*
X0365201Y0058914D01*
X0365201Y0059912D02*
X0031000Y0059912D01*
X0031000Y0060911D02*
X0365201Y0060911D01*
X0356598Y0050926D02*
X0355598Y0050926D01*
X0355598Y0049927D02*
X0356598Y0049927D01*
X0356598Y0048929D02*
X0355598Y0048929D01*
X0355598Y0047930D02*
X0356598Y0047930D01*
X0356598Y0046932D02*
X0355598Y0046932D01*
X0356098Y0046083D02*
X0346000Y0056181D01*
X0346000Y0081000D01*
X0356598Y0045933D02*
X0365201Y0045933D01*
X0354331Y0040940D02*
X0324990Y0040940D01*
X0320810Y0040940D02*
X0304989Y0040940D01*
X0305499Y0039942D02*
X0318796Y0039942D01*
X0317797Y0038943D02*
X0305900Y0038943D01*
X0305900Y0037945D02*
X0317021Y0037945D01*
X0316607Y0036946D02*
X0305867Y0036946D01*
X0297011Y0040940D02*
X0296141Y0040940D01*
X0294741Y0041939D02*
X0298009Y0041939D01*
X0293375Y0041939D02*
X0292625Y0041939D01*
X0292625Y0040940D02*
X0293375Y0040940D01*
X0293375Y0039942D02*
X0292625Y0039942D01*
X0292625Y0038943D02*
X0293375Y0038943D01*
X0292625Y0037945D02*
X0285375Y0037945D01*
X0284625Y0037945D02*
X0277375Y0037945D01*
X0276625Y0037945D02*
X0264979Y0037945D01*
X0265393Y0036946D02*
X0272821Y0036946D01*
X0272796Y0038943D02*
X0264202Y0038943D01*
X0263204Y0039942D02*
X0273163Y0039942D01*
X0273859Y0040940D02*
X0261190Y0040940D01*
X0257010Y0040940D02*
X0244990Y0040940D01*
X0247004Y0039942D02*
X0254996Y0039942D01*
X0253997Y0038943D02*
X0248002Y0038943D01*
X0248779Y0037945D02*
X0253221Y0037945D01*
X0252807Y0036946D02*
X0249193Y0036946D01*
X0240810Y0040940D02*
X0224989Y0040940D01*
X0225499Y0039942D02*
X0238796Y0039942D01*
X0237797Y0038943D02*
X0225900Y0038943D01*
X0225900Y0037945D02*
X0237021Y0037945D01*
X0236607Y0036946D02*
X0225867Y0036946D01*
X0217011Y0040940D02*
X0216141Y0040940D01*
X0214741Y0041939D02*
X0218009Y0041939D01*
X0213375Y0041939D02*
X0212625Y0041939D01*
X0212625Y0040940D02*
X0213375Y0040940D01*
X0213375Y0039942D02*
X0212625Y0039942D01*
X0212625Y0038943D02*
X0213375Y0038943D01*
X0212625Y0037945D02*
X0205375Y0037945D01*
X0204625Y0037945D02*
X0197375Y0037945D01*
X0196625Y0037945D02*
X0184979Y0037945D01*
X0185393Y0036946D02*
X0192821Y0036946D01*
X0192796Y0038943D02*
X0184202Y0038943D01*
X0183204Y0039942D02*
X0193163Y0039942D01*
X0193859Y0040940D02*
X0181190Y0040940D01*
X0177010Y0040940D02*
X0164990Y0040940D01*
X0167004Y0039942D02*
X0174996Y0039942D01*
X0173997Y0038943D02*
X0168002Y0038943D01*
X0168779Y0037945D02*
X0173221Y0037945D01*
X0172807Y0036946D02*
X0169193Y0036946D01*
X0160810Y0040940D02*
X0144989Y0040940D01*
X0145499Y0039942D02*
X0158796Y0039942D01*
X0157797Y0038943D02*
X0145900Y0038943D01*
X0145900Y0037945D02*
X0157021Y0037945D01*
X0156607Y0036946D02*
X0145867Y0036946D01*
X0143991Y0041939D02*
X0195259Y0041939D01*
X0196625Y0041939D02*
X0197375Y0041939D01*
X0197375Y0040940D02*
X0196625Y0040940D01*
X0196625Y0039942D02*
X0197375Y0039942D01*
X0197375Y0038943D02*
X0196625Y0038943D01*
X0200141Y0040940D02*
X0201859Y0040940D01*
X0201163Y0039942D02*
X0200837Y0039942D01*
X0198741Y0041939D02*
X0203259Y0041939D01*
X0204625Y0041939D02*
X0205375Y0041939D01*
X0205375Y0040940D02*
X0204625Y0040940D01*
X0204625Y0039942D02*
X0205375Y0039942D01*
X0205375Y0038943D02*
X0204625Y0038943D01*
X0208141Y0040940D02*
X0209859Y0040940D01*
X0209163Y0039942D02*
X0208837Y0039942D01*
X0206741Y0041939D02*
X0211259Y0041939D01*
X0223991Y0041939D02*
X0275259Y0041939D01*
X0276625Y0041939D02*
X0277375Y0041939D01*
X0277375Y0040940D02*
X0276625Y0040940D01*
X0276625Y0039942D02*
X0277375Y0039942D01*
X0277375Y0038943D02*
X0276625Y0038943D01*
X0280141Y0040940D02*
X0281859Y0040940D01*
X0281163Y0039942D02*
X0280837Y0039942D01*
X0278741Y0041939D02*
X0283259Y0041939D01*
X0284625Y0041939D02*
X0285375Y0041939D01*
X0285375Y0040940D02*
X0284625Y0040940D01*
X0284625Y0039942D02*
X0285375Y0039942D01*
X0285375Y0038943D02*
X0284625Y0038943D01*
X0288141Y0040940D02*
X0289859Y0040940D01*
X0289163Y0039942D02*
X0288837Y0039942D01*
X0286741Y0041939D02*
X0291259Y0041939D01*
X0303991Y0041939D02*
X0352553Y0041939D01*
X0236000Y0171000D02*
X0181000Y0116000D01*
X0166000Y0116000D01*
X0159300Y0119300D02*
X0159300Y0127698D01*
X0161702Y0130100D01*
X0182595Y0130100D01*
X0223495Y0171000D01*
X0226000Y0171000D01*
X0216000Y0171000D02*
X0213495Y0171000D01*
X0197696Y0155201D01*
X0175201Y0155201D01*
X0146000Y0126000D01*
X0136000Y0126000D01*
X0119000Y0141000D02*
X0114000Y0136000D01*
X0111000Y0136000D01*
X0119000Y0141000D02*
X0150000Y0141000D01*
X0186000Y0177000D01*
X0250000Y0177000D01*
X0256000Y0171000D01*
X0246000Y0171000D02*
X0246000Y0159000D01*
X0173000Y0086000D01*
X0166000Y0086000D01*
X0166000Y0096000D02*
X0146000Y0076000D01*
X0136000Y0076000D01*
X0136000Y0077602D01*
X0129300Y0084302D01*
X0129300Y0097698D01*
X0136000Y0104398D01*
X0136000Y0106000D01*
X0136000Y0096000D02*
X0159300Y0119300D01*
X0121000Y0156000D02*
X0118000Y0156000D01*
X0113000Y0161000D01*
X0109000Y0161000D01*
X0104000Y0166000D01*
X0104000Y0179000D01*
X0111000Y0186000D01*
X0301000Y0186000D01*
X0316000Y0171000D01*
X0306000Y0171000D02*
X0296000Y0181000D01*
X0109000Y0181000D01*
X0106000Y0178000D01*
X0106000Y0174000D01*
X0111000Y0169000D01*
X0111000Y0166000D01*
X0119000Y0171000D02*
X0177000Y0171000D01*
X0185000Y0179000D01*
X0268000Y0179000D01*
X0276000Y0171000D01*
X0336000Y0171000D02*
X0336000Y0181000D01*
X0119000Y0171000D02*
X0114000Y0176000D01*
X0111000Y0176000D01*
X0118741Y0041939D02*
X0123259Y0041939D01*
X0124625Y0041939D02*
X0125375Y0041939D01*
X0125375Y0040940D02*
X0124625Y0040940D01*
X0124625Y0039942D02*
X0125375Y0039942D01*
X0125375Y0038943D02*
X0124625Y0038943D01*
X0124625Y0037945D02*
X0117375Y0037945D01*
X0120837Y0039942D02*
X0121163Y0039942D01*
X0121859Y0040940D02*
X0120141Y0040940D01*
X0125375Y0037945D02*
X0132625Y0037945D01*
X0132625Y0038943D02*
X0133375Y0038943D01*
X0133375Y0039942D02*
X0132625Y0039942D01*
X0132625Y0040940D02*
X0133375Y0040940D01*
X0133375Y0041939D02*
X0132625Y0041939D01*
X0131259Y0041939D02*
X0126741Y0041939D01*
X0128141Y0040940D02*
X0129859Y0040940D01*
X0129163Y0039942D02*
X0128837Y0039942D01*
X0134741Y0041939D02*
X0138009Y0041939D01*
X0137011Y0040940D02*
X0136141Y0040940D01*
M02*
