G75*
%MOIN*%
%OFA0B0*%
%FSLAX25Y25*%
%IPPOS*%
%LPD*%
%AMOC8*
5,1,8,0,0,1.08239X$1,22.5*
%
%ADD10C,0.05200*%
%ADD11OC8,0.06000*%
%ADD12OC8,0.05200*%
%ADD13C,0.07600*%
%ADD14C,0.07874*%
%ADD15C,0.05600*%
%ADD16C,0.09300*%
%ADD17C,0.01000*%
D10*
X0133400Y0076000D02*
X0138600Y0076000D01*
X0138600Y0086000D02*
X0133400Y0086000D01*
X0133400Y0096000D02*
X0138600Y0096000D01*
X0138600Y0106000D02*
X0133400Y0106000D01*
X0133400Y0116000D02*
X0138600Y0116000D01*
X0138600Y0126000D02*
X0133400Y0126000D01*
X0133400Y0136000D02*
X0138600Y0136000D01*
X0163400Y0136000D02*
X0168600Y0136000D01*
X0168600Y0126000D02*
X0163400Y0126000D01*
X0163400Y0116000D02*
X0168600Y0116000D01*
X0168600Y0106000D02*
X0163400Y0106000D01*
X0163400Y0096000D02*
X0168600Y0096000D01*
X0168600Y0086000D02*
X0163400Y0086000D01*
X0163400Y0076000D02*
X0168600Y0076000D01*
D11*
X0121000Y0136000D03*
X0111000Y0136000D03*
X0111000Y0146000D03*
X0121000Y0146000D03*
X0121000Y0156000D03*
X0111000Y0156000D03*
X0111000Y0166000D03*
X0121000Y0166000D03*
X0121000Y0176000D03*
X0111000Y0176000D03*
D12*
X0296000Y0181000D03*
X0336000Y0181000D03*
D13*
X0336000Y0171000D03*
X0326000Y0171000D03*
X0316000Y0171000D03*
X0306000Y0171000D03*
X0296000Y0171000D03*
X0286000Y0171000D03*
X0276000Y0171000D03*
X0266000Y0171000D03*
X0256000Y0171000D03*
X0246000Y0171000D03*
X0236000Y0171000D03*
X0226000Y0171000D03*
X0216000Y0171000D03*
X0206000Y0171000D03*
X0346000Y0171000D03*
X0346000Y0081000D03*
X0336000Y0081000D03*
X0326000Y0081000D03*
X0316000Y0081000D03*
X0306000Y0081000D03*
X0296000Y0081000D03*
X0286000Y0081000D03*
X0276000Y0081000D03*
X0266000Y0081000D03*
X0256000Y0081000D03*
X0246000Y0081000D03*
X0236000Y0081000D03*
X0226000Y0081000D03*
X0216000Y0081000D03*
X0206000Y0081000D03*
D14*
X0356098Y0046083D03*
X0356098Y0026083D03*
D15*
X0305000Y0031000D03*
X0297000Y0031000D03*
X0289000Y0031000D03*
X0281000Y0031000D03*
X0277000Y0038000D03*
X0285000Y0038000D03*
X0293000Y0038000D03*
X0301000Y0038000D03*
X0225000Y0031000D03*
X0217000Y0031000D03*
X0209000Y0031000D03*
X0201000Y0031000D03*
X0197000Y0038000D03*
X0205000Y0038000D03*
X0213000Y0038000D03*
X0221000Y0038000D03*
X0145000Y0031000D03*
X0137000Y0031000D03*
X0129000Y0031000D03*
X0121000Y0031000D03*
X0117000Y0038000D03*
X0125000Y0038000D03*
X0133000Y0038000D03*
X0141000Y0038000D03*
X0065000Y0031000D03*
X0057000Y0031000D03*
X0049000Y0031000D03*
X0041000Y0031000D03*
X0037000Y0038000D03*
X0045000Y0038000D03*
X0053000Y0038000D03*
X0061000Y0038000D03*
D16*
X0082900Y0034500D03*
X0099100Y0034500D03*
X0162900Y0034500D03*
X0179100Y0034500D03*
X0242900Y0034500D03*
X0259100Y0034500D03*
X0322900Y0034500D03*
X0019100Y0034500D03*
D17*
X0031000Y0011301D02*
X0031000Y0006000D01*
X0365201Y0006000D01*
X0365201Y0031000D01*
X0358424Y0031000D01*
X0358948Y0030733D01*
X0359640Y0030230D01*
X0360246Y0029625D01*
X0360749Y0028933D01*
X0361137Y0028170D01*
X0361402Y0027356D01*
X0361524Y0026583D01*
X0356598Y0026583D01*
X0356598Y0025583D01*
X0356598Y0020657D01*
X0357372Y0020780D01*
X0358186Y0021044D01*
X0358948Y0021433D01*
X0359640Y0021936D01*
X0360246Y0022541D01*
X0360749Y0023233D01*
X0361137Y0023996D01*
X0361402Y0024810D01*
X0361524Y0025583D01*
X0356598Y0025583D01*
X0355598Y0025583D01*
X0350673Y0025583D01*
X0350795Y0024810D01*
X0351060Y0023996D01*
X0351448Y0023233D01*
X0351951Y0022541D01*
X0352556Y0021936D01*
X0353249Y0021433D01*
X0354011Y0021044D01*
X0354825Y0020780D01*
X0355598Y0020657D01*
X0355598Y0025583D01*
X0355598Y0026583D01*
X0350673Y0026583D01*
X0350795Y0027356D01*
X0351060Y0028170D01*
X0351448Y0028933D01*
X0351951Y0029625D01*
X0352556Y0030230D01*
X0353249Y0030733D01*
X0353772Y0031000D01*
X0328756Y0031000D01*
X0328622Y0030676D01*
X0326724Y0028778D01*
X0324541Y0027874D01*
X0324722Y0027693D01*
X0326157Y0025207D01*
X0326900Y0022435D01*
X0326900Y0019565D01*
X0326157Y0016793D01*
X0324722Y0014307D01*
X0322693Y0012278D01*
X0320207Y0010843D01*
X0317435Y0010100D01*
X0314565Y0010100D01*
X0311793Y0010843D01*
X0309307Y0012278D01*
X0307278Y0014307D01*
X0305843Y0016793D01*
X0305100Y0019565D01*
X0305100Y0022435D01*
X0305843Y0025207D01*
X0306985Y0027185D01*
X0306651Y0027015D01*
X0306007Y0026806D01*
X0305375Y0026706D01*
X0305375Y0030625D01*
X0305375Y0031000D01*
X0311521Y0031000D01*
X0309307Y0029722D01*
X0309009Y0029424D01*
X0309194Y0029993D01*
X0309294Y0030625D01*
X0305375Y0030625D01*
X0304625Y0030625D01*
X0297375Y0030625D01*
X0297375Y0031000D01*
X0304625Y0031000D01*
X0304625Y0030625D01*
X0304625Y0026706D01*
X0303993Y0026806D01*
X0303349Y0027015D01*
X0302746Y0027322D01*
X0302199Y0027720D01*
X0301720Y0028199D01*
X0301322Y0028746D01*
X0301015Y0029349D01*
X0301000Y0029396D01*
X0300985Y0029349D01*
X0300678Y0028746D01*
X0300280Y0028199D01*
X0299801Y0027720D01*
X0299254Y0027322D01*
X0298651Y0027015D01*
X0298007Y0026806D01*
X0297375Y0026706D01*
X0297375Y0030625D01*
X0296625Y0030625D01*
X0289375Y0030625D01*
X0289375Y0031000D01*
X0296625Y0031000D01*
X0296625Y0030625D01*
X0296625Y0026706D01*
X0295993Y0026806D01*
X0295349Y0027015D01*
X0294746Y0027322D01*
X0294199Y0027720D01*
X0293720Y0028199D01*
X0293322Y0028746D01*
X0293015Y0029349D01*
X0293000Y0029396D01*
X0292985Y0029349D01*
X0292678Y0028746D01*
X0292280Y0028199D01*
X0291801Y0027720D01*
X0291254Y0027322D01*
X0290651Y0027015D01*
X0290007Y0026806D01*
X0289375Y0026706D01*
X0289375Y0030625D01*
X0288625Y0030625D01*
X0281375Y0030625D01*
X0281375Y0031000D01*
X0288625Y0031000D01*
X0288625Y0030625D01*
X0288625Y0026706D01*
X0287993Y0026806D01*
X0287349Y0027015D01*
X0286746Y0027322D01*
X0286199Y0027720D01*
X0285720Y0028199D01*
X0285322Y0028746D01*
X0285015Y0029349D01*
X0285000Y0029396D01*
X0284985Y0029349D01*
X0284678Y0028746D01*
X0284280Y0028199D01*
X0283801Y0027720D01*
X0283254Y0027322D01*
X0282651Y0027015D01*
X0282007Y0026806D01*
X0281375Y0026706D01*
X0281375Y0030625D01*
X0280625Y0030625D01*
X0280625Y0026706D01*
X0279993Y0026806D01*
X0279349Y0027015D01*
X0278746Y0027322D01*
X0278199Y0027720D01*
X0277720Y0028199D01*
X0277322Y0028746D01*
X0277015Y0029349D01*
X0276806Y0029993D01*
X0276706Y0030625D01*
X0280625Y0030625D01*
X0280625Y0031000D01*
X0270479Y0031000D01*
X0272693Y0029722D01*
X0274722Y0027693D01*
X0276157Y0025207D01*
X0276900Y0022435D01*
X0276900Y0019565D01*
X0276157Y0016793D01*
X0274722Y0014307D01*
X0272693Y0012278D01*
X0270207Y0010843D01*
X0267435Y0010100D01*
X0264565Y0010100D01*
X0261793Y0010843D01*
X0259307Y0012278D01*
X0257278Y0014307D01*
X0255843Y0016793D01*
X0255100Y0019565D01*
X0255100Y0022435D01*
X0255843Y0025207D01*
X0257278Y0027693D01*
X0257459Y0027874D01*
X0255276Y0028778D01*
X0253378Y0030676D01*
X0253244Y0031000D01*
X0248756Y0031000D01*
X0248622Y0030676D01*
X0246724Y0028778D01*
X0244541Y0027874D01*
X0244722Y0027693D01*
X0246157Y0025207D01*
X0246900Y0022435D01*
X0246900Y0019565D01*
X0246157Y0016793D01*
X0244722Y0014307D01*
X0242693Y0012278D01*
X0240207Y0010843D01*
X0237435Y0010100D01*
X0234565Y0010100D01*
X0231793Y0010843D01*
X0229307Y0012278D01*
X0227278Y0014307D01*
X0225843Y0016793D01*
X0225100Y0019565D01*
X0225100Y0022435D01*
X0225843Y0025207D01*
X0226985Y0027185D01*
X0226651Y0027015D01*
X0226007Y0026806D01*
X0225375Y0026706D01*
X0225375Y0030625D01*
X0225375Y0031000D01*
X0231521Y0031000D01*
X0229307Y0029722D01*
X0229009Y0029424D01*
X0229194Y0029993D01*
X0229294Y0030625D01*
X0225375Y0030625D01*
X0224625Y0030625D01*
X0217375Y0030625D01*
X0217375Y0031000D01*
X0224625Y0031000D01*
X0224625Y0030625D01*
X0224625Y0026706D01*
X0223993Y0026806D01*
X0223349Y0027015D01*
X0222746Y0027322D01*
X0222199Y0027720D01*
X0221720Y0028199D01*
X0221322Y0028746D01*
X0221015Y0029349D01*
X0221000Y0029396D01*
X0220985Y0029349D01*
X0220678Y0028746D01*
X0220280Y0028199D01*
X0219801Y0027720D01*
X0219254Y0027322D01*
X0218651Y0027015D01*
X0218007Y0026806D01*
X0217375Y0026706D01*
X0217375Y0030625D01*
X0216625Y0030625D01*
X0209375Y0030625D01*
X0209375Y0031000D01*
X0216625Y0031000D01*
X0216625Y0030625D01*
X0216625Y0026706D01*
X0215993Y0026806D01*
X0215349Y0027015D01*
X0214746Y0027322D01*
X0214199Y0027720D01*
X0213720Y0028199D01*
X0213322Y0028746D01*
X0213015Y0029349D01*
X0213000Y0029396D01*
X0212985Y0029349D01*
X0212678Y0028746D01*
X0212280Y0028199D01*
X0211801Y0027720D01*
X0211254Y0027322D01*
X0210651Y0027015D01*
X0210007Y0026806D01*
X0209375Y0026706D01*
X0209375Y0030625D01*
X0208625Y0030625D01*
X0201375Y0030625D01*
X0201375Y0031000D01*
X0208625Y0031000D01*
X0208625Y0030625D01*
X0208625Y0026706D01*
X0207993Y0026806D01*
X0207349Y0027015D01*
X0206746Y0027322D01*
X0206199Y0027720D01*
X0205720Y0028199D01*
X0205322Y0028746D01*
X0205015Y0029349D01*
X0205000Y0029396D01*
X0204985Y0029349D01*
X0204678Y0028746D01*
X0204280Y0028199D01*
X0203801Y0027720D01*
X0203254Y0027322D01*
X0202651Y0027015D01*
X0202007Y0026806D01*
X0201375Y0026706D01*
X0201375Y0030625D01*
X0200625Y0030625D01*
X0200625Y0026706D01*
X0199993Y0026806D01*
X0199349Y0027015D01*
X0198746Y0027322D01*
X0198199Y0027720D01*
X0197720Y0028199D01*
X0197322Y0028746D01*
X0197015Y0029349D01*
X0196806Y0029993D01*
X0196706Y0030625D01*
X0200625Y0030625D01*
X0200625Y0031000D01*
X0190479Y0031000D01*
X0192693Y0029722D01*
X0194722Y0027693D01*
X0196157Y0025207D01*
X0196900Y0022435D01*
X0196900Y0019565D01*
X0196157Y0016793D01*
X0194722Y0014307D01*
X0192693Y0012278D01*
X0190207Y0010843D01*
X0187435Y0010100D01*
X0184565Y0010100D01*
X0181793Y0010843D01*
X0179307Y0012278D01*
X0177278Y0014307D01*
X0175843Y0016793D01*
X0175100Y0019565D01*
X0175100Y0022435D01*
X0175843Y0025207D01*
X0177278Y0027693D01*
X0177459Y0027874D01*
X0175276Y0028778D01*
X0173378Y0030676D01*
X0173244Y0031000D01*
X0168756Y0031000D01*
X0168622Y0030676D01*
X0166724Y0028778D01*
X0164541Y0027874D01*
X0164722Y0027693D01*
X0166157Y0025207D01*
X0166900Y0022435D01*
X0166900Y0019565D01*
X0166157Y0016793D01*
X0164722Y0014307D01*
X0162693Y0012278D01*
X0160207Y0010843D01*
X0157435Y0010100D01*
X0154565Y0010100D01*
X0151793Y0010843D01*
X0149307Y0012278D01*
X0147278Y0014307D01*
X0145843Y0016793D01*
X0145100Y0019565D01*
X0145100Y0022435D01*
X0145843Y0025207D01*
X0146985Y0027185D01*
X0146651Y0027015D01*
X0146007Y0026806D01*
X0145375Y0026706D01*
X0145375Y0030625D01*
X0145375Y0031000D01*
X0151521Y0031000D01*
X0149307Y0029722D01*
X0149009Y0029424D01*
X0149194Y0029993D01*
X0149294Y0030625D01*
X0145375Y0030625D01*
X0144625Y0030625D01*
X0137375Y0030625D01*
X0137375Y0031000D01*
X0144625Y0031000D01*
X0144625Y0030625D01*
X0144625Y0026706D01*
X0143993Y0026806D01*
X0143349Y0027015D01*
X0142746Y0027322D01*
X0142199Y0027720D01*
X0141720Y0028199D01*
X0141322Y0028746D01*
X0141015Y0029349D01*
X0141000Y0029396D01*
X0140985Y0029349D01*
X0140678Y0028746D01*
X0140280Y0028199D01*
X0139801Y0027720D01*
X0139254Y0027322D01*
X0138651Y0027015D01*
X0138007Y0026806D01*
X0137375Y0026706D01*
X0137375Y0030625D01*
X0136625Y0030625D01*
X0129375Y0030625D01*
X0129375Y0031000D01*
X0136625Y0031000D01*
X0136625Y0030625D01*
X0136625Y0026706D01*
X0135993Y0026806D01*
X0135349Y0027015D01*
X0134746Y0027322D01*
X0134199Y0027720D01*
X0133720Y0028199D01*
X0133322Y0028746D01*
X0133015Y0029349D01*
X0133000Y0029396D01*
X0132985Y0029349D01*
X0132678Y0028746D01*
X0132280Y0028199D01*
X0131801Y0027720D01*
X0131254Y0027322D01*
X0130651Y0027015D01*
X0130007Y0026806D01*
X0129375Y0026706D01*
X0129375Y0030625D01*
X0128625Y0030625D01*
X0121375Y0030625D01*
X0121375Y0031000D01*
X0128625Y0031000D01*
X0128625Y0030625D01*
X0128625Y0026706D01*
X0127993Y0026806D01*
X0127349Y0027015D01*
X0126746Y0027322D01*
X0126199Y0027720D01*
X0125720Y0028199D01*
X0125322Y0028746D01*
X0125015Y0029349D01*
X0125000Y0029396D01*
X0124985Y0029349D01*
X0124678Y0028746D01*
X0124280Y0028199D01*
X0123801Y0027720D01*
X0123254Y0027322D01*
X0122651Y0027015D01*
X0122007Y0026806D01*
X0121375Y0026706D01*
X0121375Y0030625D01*
X0120625Y0030625D01*
X0120625Y0026706D01*
X0119993Y0026806D01*
X0119349Y0027015D01*
X0118746Y0027322D01*
X0118199Y0027720D01*
X0117720Y0028199D01*
X0117322Y0028746D01*
X0117015Y0029349D01*
X0116806Y0029993D01*
X0116706Y0030625D01*
X0120625Y0030625D01*
X0120625Y0031000D01*
X0110479Y0031000D01*
X0112693Y0029722D01*
X0114722Y0027693D01*
X0116157Y0025207D01*
X0116900Y0022435D01*
X0116900Y0019565D01*
X0116157Y0016793D01*
X0114722Y0014307D01*
X0112693Y0012278D01*
X0110207Y0010843D01*
X0107435Y0010100D01*
X0104565Y0010100D01*
X0101793Y0010843D01*
X0099307Y0012278D01*
X0097278Y0014307D01*
X0095843Y0016793D01*
X0095100Y0019565D01*
X0095100Y0022435D01*
X0095843Y0025207D01*
X0097278Y0027693D01*
X0097459Y0027874D01*
X0095276Y0028778D01*
X0093378Y0030676D01*
X0093244Y0031000D01*
X0088756Y0031000D01*
X0088622Y0030676D01*
X0086724Y0028778D01*
X0084541Y0027874D01*
X0084722Y0027693D01*
X0086157Y0025207D01*
X0086900Y0022435D01*
X0086900Y0019565D01*
X0086157Y0016793D01*
X0084722Y0014307D01*
X0082693Y0012278D01*
X0080207Y0010843D01*
X0077435Y0010100D01*
X0074565Y0010100D01*
X0071793Y0010843D01*
X0069307Y0012278D01*
X0067278Y0014307D01*
X0065843Y0016793D01*
X0065100Y0019565D01*
X0065100Y0022435D01*
X0065843Y0025207D01*
X0066985Y0027185D01*
X0066651Y0027015D01*
X0066007Y0026806D01*
X0065375Y0026706D01*
X0065375Y0030625D01*
X0065375Y0031000D01*
X0071521Y0031000D01*
X0069307Y0029722D01*
X0069009Y0029424D01*
X0069194Y0029993D01*
X0069294Y0030625D01*
X0065375Y0030625D01*
X0064625Y0030625D01*
X0057375Y0030625D01*
X0057375Y0031000D01*
X0064625Y0031000D01*
X0064625Y0030625D01*
X0064625Y0026706D01*
X0063993Y0026806D01*
X0063349Y0027015D01*
X0062746Y0027322D01*
X0062199Y0027720D01*
X0061720Y0028199D01*
X0061322Y0028746D01*
X0061015Y0029349D01*
X0061000Y0029396D01*
X0060985Y0029349D01*
X0060678Y0028746D01*
X0060280Y0028199D01*
X0059801Y0027720D01*
X0059254Y0027322D01*
X0058651Y0027015D01*
X0058007Y0026806D01*
X0057375Y0026706D01*
X0057375Y0030625D01*
X0056625Y0030625D01*
X0049375Y0030625D01*
X0049375Y0031000D01*
X0056625Y0031000D01*
X0056625Y0030625D01*
X0056625Y0026706D01*
X0055993Y0026806D01*
X0055349Y0027015D01*
X0054746Y0027322D01*
X0054199Y0027720D01*
X0053720Y0028199D01*
X0053322Y0028746D01*
X0053015Y0029349D01*
X0053000Y0029396D01*
X0052985Y0029349D01*
X0052678Y0028746D01*
X0052280Y0028199D01*
X0051801Y0027720D01*
X0051254Y0027322D01*
X0050651Y0027015D01*
X0050007Y0026806D01*
X0049375Y0026706D01*
X0049375Y0030625D01*
X0048625Y0030625D01*
X0041375Y0030625D01*
X0041375Y0031000D01*
X0048625Y0031000D01*
X0048625Y0030625D01*
X0048625Y0026706D01*
X0047993Y0026806D01*
X0047349Y0027015D01*
X0046746Y0027322D01*
X0046199Y0027720D01*
X0045720Y0028199D01*
X0045322Y0028746D01*
X0045015Y0029349D01*
X0045000Y0029396D01*
X0044985Y0029349D01*
X0044678Y0028746D01*
X0044280Y0028199D01*
X0043801Y0027720D01*
X0043254Y0027322D01*
X0042651Y0027015D01*
X0042007Y0026806D01*
X0041375Y0026706D01*
X0041375Y0030625D01*
X0040625Y0030625D01*
X0040625Y0026706D01*
X0039993Y0026806D01*
X0039349Y0027015D01*
X0038746Y0027322D01*
X0038199Y0027720D01*
X0037720Y0028199D01*
X0037322Y0028746D01*
X0037015Y0029349D01*
X0036806Y0029993D01*
X0036706Y0030625D01*
X0040625Y0030625D01*
X0040625Y0031000D01*
X0031000Y0031000D01*
X0031000Y0030699D01*
X0032693Y0029722D01*
X0034722Y0027693D01*
X0036157Y0025207D01*
X0036900Y0022435D01*
X0036900Y0019565D01*
X0036157Y0016793D01*
X0034722Y0014307D01*
X0032693Y0012278D01*
X0031000Y0011301D01*
X0031000Y0010985D02*
X0071546Y0010985D01*
X0069817Y0011984D02*
X0032183Y0011984D01*
X0033397Y0012982D02*
X0068603Y0012982D01*
X0067604Y0013981D02*
X0034396Y0013981D01*
X0035110Y0014979D02*
X0066890Y0014979D01*
X0066313Y0015978D02*
X0035687Y0015978D01*
X0036206Y0016976D02*
X0065794Y0016976D01*
X0065526Y0017975D02*
X0036474Y0017975D01*
X0036741Y0018973D02*
X0065259Y0018973D01*
X0065100Y0019972D02*
X0036900Y0019972D01*
X0036900Y0020970D02*
X0065100Y0020970D01*
X0065100Y0021969D02*
X0036900Y0021969D01*
X0036757Y0022967D02*
X0065243Y0022967D01*
X0065510Y0023966D02*
X0036490Y0023966D01*
X0036222Y0024964D02*
X0065778Y0024964D01*
X0066279Y0025963D02*
X0035721Y0025963D01*
X0035144Y0026961D02*
X0039515Y0026961D01*
X0040625Y0026961D02*
X0041375Y0026961D01*
X0041375Y0027960D02*
X0040625Y0027960D01*
X0040625Y0028958D02*
X0041375Y0028958D01*
X0041375Y0029957D02*
X0040625Y0029957D01*
X0040625Y0030955D02*
X0031000Y0030955D01*
X0032286Y0029957D02*
X0036818Y0029957D01*
X0037214Y0028958D02*
X0033457Y0028958D01*
X0034455Y0027960D02*
X0037959Y0027960D01*
X0041375Y0030955D02*
X0048625Y0030955D01*
X0049375Y0030955D02*
X0056625Y0030955D01*
X0057375Y0030955D02*
X0064625Y0030955D01*
X0065375Y0030955D02*
X0071443Y0030955D01*
X0069714Y0029957D02*
X0069182Y0029957D01*
X0065375Y0029957D02*
X0064625Y0029957D01*
X0064625Y0028958D02*
X0065375Y0028958D01*
X0065375Y0027960D02*
X0064625Y0027960D01*
X0064625Y0026961D02*
X0065375Y0026961D01*
X0066485Y0026961D02*
X0066856Y0026961D01*
X0063515Y0026961D02*
X0058485Y0026961D01*
X0057375Y0026961D02*
X0056625Y0026961D01*
X0056625Y0027960D02*
X0057375Y0027960D01*
X0057375Y0028958D02*
X0056625Y0028958D01*
X0056625Y0029957D02*
X0057375Y0029957D01*
X0060041Y0027960D02*
X0061959Y0027960D01*
X0061214Y0028958D02*
X0060786Y0028958D01*
X0055515Y0026961D02*
X0050485Y0026961D01*
X0049375Y0026961D02*
X0048625Y0026961D01*
X0048625Y0027960D02*
X0049375Y0027960D01*
X0049375Y0028958D02*
X0048625Y0028958D01*
X0048625Y0029957D02*
X0049375Y0029957D01*
X0052041Y0027960D02*
X0053959Y0027960D01*
X0053214Y0028958D02*
X0052786Y0028958D01*
X0047515Y0026961D02*
X0042485Y0026961D01*
X0044041Y0027960D02*
X0045959Y0027960D01*
X0045214Y0028958D02*
X0044786Y0028958D01*
X0061000Y0038000D02*
X0103100Y0080100D01*
X0145298Y0080100D01*
X0149398Y0076000D01*
X0166000Y0076000D01*
X0172700Y0074302D02*
X0172700Y0099300D01*
X0166000Y0106000D01*
X0161000Y0111000D02*
X0175201Y0111000D01*
X0175201Y0081527D01*
X0221000Y0040728D01*
X0221000Y0038000D01*
X0217375Y0030955D02*
X0224625Y0030955D01*
X0225375Y0030955D02*
X0231443Y0030955D01*
X0229714Y0029957D02*
X0229182Y0029957D01*
X0225375Y0029957D02*
X0224625Y0029957D01*
X0224625Y0028958D02*
X0225375Y0028958D01*
X0225375Y0027960D02*
X0224625Y0027960D01*
X0224625Y0026961D02*
X0225375Y0026961D01*
X0226485Y0026961D02*
X0226856Y0026961D01*
X0226279Y0025963D02*
X0195721Y0025963D01*
X0196222Y0024964D02*
X0225778Y0024964D01*
X0225510Y0023966D02*
X0196490Y0023966D01*
X0196757Y0022967D02*
X0225243Y0022967D01*
X0225100Y0021969D02*
X0196900Y0021969D01*
X0196900Y0020970D02*
X0225100Y0020970D01*
X0225100Y0019972D02*
X0196900Y0019972D01*
X0196741Y0018973D02*
X0225259Y0018973D01*
X0225526Y0017975D02*
X0196474Y0017975D01*
X0196206Y0016976D02*
X0225794Y0016976D01*
X0226313Y0015978D02*
X0195687Y0015978D01*
X0195110Y0014979D02*
X0226890Y0014979D01*
X0227604Y0013981D02*
X0194396Y0013981D01*
X0193397Y0012982D02*
X0228603Y0012982D01*
X0229817Y0011984D02*
X0192183Y0011984D01*
X0190454Y0010985D02*
X0231546Y0010985D01*
X0240454Y0010985D02*
X0261546Y0010985D01*
X0259817Y0011984D02*
X0242183Y0011984D01*
X0243397Y0012982D02*
X0258603Y0012982D01*
X0257604Y0013981D02*
X0244396Y0013981D01*
X0245110Y0014979D02*
X0256890Y0014979D01*
X0256313Y0015978D02*
X0245687Y0015978D01*
X0246206Y0016976D02*
X0255794Y0016976D01*
X0255526Y0017975D02*
X0246474Y0017975D01*
X0246741Y0018973D02*
X0255259Y0018973D01*
X0255100Y0019972D02*
X0246900Y0019972D01*
X0246900Y0020970D02*
X0255100Y0020970D01*
X0255100Y0021969D02*
X0246900Y0021969D01*
X0246757Y0022967D02*
X0255243Y0022967D01*
X0255510Y0023966D02*
X0246490Y0023966D01*
X0246222Y0024964D02*
X0255778Y0024964D01*
X0256279Y0025963D02*
X0245721Y0025963D01*
X0245144Y0026961D02*
X0256856Y0026961D01*
X0257251Y0027960D02*
X0244749Y0027960D01*
X0246904Y0028958D02*
X0255096Y0028958D01*
X0254097Y0029957D02*
X0247903Y0029957D01*
X0248738Y0030955D02*
X0253262Y0030955D01*
X0270557Y0030955D02*
X0280625Y0030955D01*
X0281375Y0030955D02*
X0288625Y0030955D01*
X0289375Y0030955D02*
X0296625Y0030955D01*
X0297375Y0030955D02*
X0304625Y0030955D01*
X0305375Y0030955D02*
X0311443Y0030955D01*
X0309714Y0029957D02*
X0309182Y0029957D01*
X0305375Y0029957D02*
X0304625Y0029957D01*
X0304625Y0028958D02*
X0305375Y0028958D01*
X0305375Y0027960D02*
X0304625Y0027960D01*
X0304625Y0026961D02*
X0305375Y0026961D01*
X0306485Y0026961D02*
X0306856Y0026961D01*
X0306279Y0025963D02*
X0275721Y0025963D01*
X0276222Y0024964D02*
X0305778Y0024964D01*
X0305510Y0023966D02*
X0276490Y0023966D01*
X0276757Y0022967D02*
X0305243Y0022967D01*
X0305100Y0021969D02*
X0276900Y0021969D01*
X0276900Y0020970D02*
X0305100Y0020970D01*
X0305100Y0019972D02*
X0276900Y0019972D01*
X0276741Y0018973D02*
X0305259Y0018973D01*
X0305526Y0017975D02*
X0276474Y0017975D01*
X0276206Y0016976D02*
X0305794Y0016976D01*
X0306313Y0015978D02*
X0275687Y0015978D01*
X0275110Y0014979D02*
X0306890Y0014979D01*
X0307604Y0013981D02*
X0274396Y0013981D01*
X0273397Y0012982D02*
X0308603Y0012982D01*
X0309817Y0011984D02*
X0272183Y0011984D01*
X0270454Y0010985D02*
X0311546Y0010985D01*
X0320454Y0010985D02*
X0365201Y0010985D01*
X0365201Y0009987D02*
X0031000Y0009987D01*
X0031000Y0008988D02*
X0365201Y0008988D01*
X0365201Y0007990D02*
X0031000Y0007990D01*
X0031000Y0006991D02*
X0365201Y0006991D01*
X0365201Y0011984D02*
X0322183Y0011984D01*
X0323397Y0012982D02*
X0365201Y0012982D01*
X0365201Y0013981D02*
X0324396Y0013981D01*
X0325110Y0014979D02*
X0365201Y0014979D01*
X0365201Y0015978D02*
X0325687Y0015978D01*
X0326206Y0016976D02*
X0365201Y0016976D01*
X0365201Y0017975D02*
X0326474Y0017975D01*
X0326741Y0018973D02*
X0365201Y0018973D01*
X0365201Y0019972D02*
X0326900Y0019972D01*
X0326900Y0020970D02*
X0354240Y0020970D01*
X0355598Y0020970D02*
X0356598Y0020970D01*
X0356598Y0021969D02*
X0355598Y0021969D01*
X0355598Y0022967D02*
X0356598Y0022967D01*
X0356598Y0023966D02*
X0355598Y0023966D01*
X0355598Y0024964D02*
X0356598Y0024964D01*
X0356598Y0025963D02*
X0365201Y0025963D01*
X0365201Y0026961D02*
X0361464Y0026961D01*
X0361205Y0027960D02*
X0365201Y0027960D01*
X0365201Y0028958D02*
X0360730Y0028958D01*
X0359914Y0029957D02*
X0365201Y0029957D01*
X0365201Y0030955D02*
X0358512Y0030955D01*
X0353685Y0030955D02*
X0328738Y0030955D01*
X0327903Y0029957D02*
X0352283Y0029957D01*
X0351467Y0028958D02*
X0326904Y0028958D01*
X0324749Y0027960D02*
X0350991Y0027960D01*
X0350733Y0026961D02*
X0325144Y0026961D01*
X0325721Y0025963D02*
X0355598Y0025963D01*
X0356098Y0026083D02*
X0336000Y0046181D01*
X0336000Y0081000D01*
X0291000Y0126000D01*
X0166000Y0126000D01*
X0156000Y0136000D01*
X0136000Y0136000D01*
X0136000Y0134398D01*
X0129300Y0127698D01*
X0129300Y0114302D01*
X0136000Y0107602D01*
X0136000Y0106000D01*
X0136000Y0116000D02*
X0136000Y0121000D01*
X0176000Y0121000D01*
X0177201Y0119799D01*
X0177201Y0111000D01*
X0177201Y0084142D01*
X0180728Y0081000D01*
X0180728Y0080454D01*
X0185728Y0076000D01*
X0186527Y0075201D01*
X0263799Y0075201D01*
X0301000Y0038000D01*
X0297375Y0029957D02*
X0296625Y0029957D01*
X0296625Y0028958D02*
X0297375Y0028958D01*
X0297375Y0027960D02*
X0296625Y0027960D01*
X0296625Y0026961D02*
X0297375Y0026961D01*
X0298485Y0026961D02*
X0303515Y0026961D01*
X0301959Y0027960D02*
X0300041Y0027960D01*
X0300786Y0028958D02*
X0301214Y0028958D01*
X0295515Y0026961D02*
X0290485Y0026961D01*
X0289375Y0026961D02*
X0288625Y0026961D01*
X0288625Y0027960D02*
X0289375Y0027960D01*
X0289375Y0028958D02*
X0288625Y0028958D01*
X0288625Y0029957D02*
X0289375Y0029957D01*
X0292041Y0027960D02*
X0293959Y0027960D01*
X0293214Y0028958D02*
X0292786Y0028958D01*
X0287515Y0026961D02*
X0282485Y0026961D01*
X0281375Y0026961D02*
X0280625Y0026961D01*
X0280625Y0027960D02*
X0281375Y0027960D01*
X0281375Y0028958D02*
X0280625Y0028958D01*
X0280625Y0029957D02*
X0281375Y0029957D01*
X0284041Y0027960D02*
X0285959Y0027960D01*
X0285214Y0028958D02*
X0284786Y0028958D01*
X0279515Y0026961D02*
X0275144Y0026961D01*
X0274455Y0027960D02*
X0277959Y0027960D01*
X0277214Y0028958D02*
X0273457Y0028958D01*
X0272286Y0029957D02*
X0276818Y0029957D01*
X0326222Y0024964D02*
X0350771Y0024964D01*
X0351075Y0023966D02*
X0326490Y0023966D01*
X0326757Y0022967D02*
X0351642Y0022967D01*
X0352524Y0021969D02*
X0326900Y0021969D01*
X0357957Y0020970D02*
X0365201Y0020970D01*
X0365201Y0021969D02*
X0359673Y0021969D01*
X0360555Y0022967D02*
X0365201Y0022967D01*
X0365201Y0023966D02*
X0361122Y0023966D01*
X0361426Y0024964D02*
X0365201Y0024964D01*
X0346000Y0081000D02*
X0291000Y0136000D01*
X0166000Y0136000D01*
X0136000Y0136000D02*
X0126000Y0146000D01*
X0121000Y0146000D01*
X0119000Y0151000D02*
X0114000Y0146000D01*
X0111000Y0146000D01*
X0119000Y0151000D02*
X0150000Y0151000D01*
X0178000Y0179000D01*
X0278000Y0179000D01*
X0286000Y0171000D01*
X0296000Y0171000D02*
X0286000Y0181000D01*
X0177000Y0181000D01*
X0157000Y0161000D01*
X0119000Y0161000D01*
X0114000Y0156000D01*
X0111000Y0156000D01*
X0177201Y0111828D02*
X0177201Y0111000D01*
X0161000Y0111000D02*
X0136000Y0086000D01*
X0172700Y0074302D02*
X0149398Y0046000D01*
X0141000Y0046000D01*
X0141000Y0038000D01*
X0137375Y0030955D02*
X0144625Y0030955D01*
X0145375Y0030955D02*
X0151443Y0030955D01*
X0149714Y0029957D02*
X0149182Y0029957D01*
X0145375Y0029957D02*
X0144625Y0029957D01*
X0144625Y0028958D02*
X0145375Y0028958D01*
X0145375Y0027960D02*
X0144625Y0027960D01*
X0144625Y0026961D02*
X0145375Y0026961D01*
X0146485Y0026961D02*
X0146856Y0026961D01*
X0146279Y0025963D02*
X0115721Y0025963D01*
X0116222Y0024964D02*
X0145778Y0024964D01*
X0145510Y0023966D02*
X0116490Y0023966D01*
X0116757Y0022967D02*
X0145243Y0022967D01*
X0145100Y0021969D02*
X0116900Y0021969D01*
X0116900Y0020970D02*
X0145100Y0020970D01*
X0145100Y0019972D02*
X0116900Y0019972D01*
X0116741Y0018973D02*
X0145259Y0018973D01*
X0145526Y0017975D02*
X0116474Y0017975D01*
X0116206Y0016976D02*
X0145794Y0016976D01*
X0146313Y0015978D02*
X0115687Y0015978D01*
X0115110Y0014979D02*
X0146890Y0014979D01*
X0147604Y0013981D02*
X0114396Y0013981D01*
X0113397Y0012982D02*
X0148603Y0012982D01*
X0149817Y0011984D02*
X0112183Y0011984D01*
X0110454Y0010985D02*
X0151546Y0010985D01*
X0160454Y0010985D02*
X0181546Y0010985D01*
X0179817Y0011984D02*
X0162183Y0011984D01*
X0163397Y0012982D02*
X0178603Y0012982D01*
X0177604Y0013981D02*
X0164396Y0013981D01*
X0165110Y0014979D02*
X0176890Y0014979D01*
X0176313Y0015978D02*
X0165687Y0015978D01*
X0166206Y0016976D02*
X0175794Y0016976D01*
X0175526Y0017975D02*
X0166474Y0017975D01*
X0166741Y0018973D02*
X0175259Y0018973D01*
X0175100Y0019972D02*
X0166900Y0019972D01*
X0166900Y0020970D02*
X0175100Y0020970D01*
X0175100Y0021969D02*
X0166900Y0021969D01*
X0166757Y0022967D02*
X0175243Y0022967D01*
X0175510Y0023966D02*
X0166490Y0023966D01*
X0166222Y0024964D02*
X0175778Y0024964D01*
X0176279Y0025963D02*
X0165721Y0025963D01*
X0165144Y0026961D02*
X0176856Y0026961D01*
X0177251Y0027960D02*
X0164749Y0027960D01*
X0166904Y0028958D02*
X0175096Y0028958D01*
X0174097Y0029957D02*
X0167903Y0029957D01*
X0168738Y0030955D02*
X0173262Y0030955D01*
X0190557Y0030955D02*
X0200625Y0030955D01*
X0201375Y0030955D02*
X0208625Y0030955D01*
X0209375Y0030955D02*
X0216625Y0030955D01*
X0216625Y0029957D02*
X0217375Y0029957D01*
X0217375Y0028958D02*
X0216625Y0028958D01*
X0216625Y0027960D02*
X0217375Y0027960D01*
X0217375Y0026961D02*
X0216625Y0026961D01*
X0215515Y0026961D02*
X0210485Y0026961D01*
X0209375Y0026961D02*
X0208625Y0026961D01*
X0208625Y0027960D02*
X0209375Y0027960D01*
X0209375Y0028958D02*
X0208625Y0028958D01*
X0208625Y0029957D02*
X0209375Y0029957D01*
X0212041Y0027960D02*
X0213959Y0027960D01*
X0213214Y0028958D02*
X0212786Y0028958D01*
X0207515Y0026961D02*
X0202485Y0026961D01*
X0201375Y0026961D02*
X0200625Y0026961D01*
X0200625Y0027960D02*
X0201375Y0027960D01*
X0201375Y0028958D02*
X0200625Y0028958D01*
X0200625Y0029957D02*
X0201375Y0029957D01*
X0204041Y0027960D02*
X0205959Y0027960D01*
X0205214Y0028958D02*
X0204786Y0028958D01*
X0199515Y0026961D02*
X0195144Y0026961D01*
X0194455Y0027960D02*
X0197959Y0027960D01*
X0197214Y0028958D02*
X0193457Y0028958D01*
X0192286Y0029957D02*
X0196818Y0029957D01*
X0218485Y0026961D02*
X0223515Y0026961D01*
X0221959Y0027960D02*
X0220041Y0027960D01*
X0220786Y0028958D02*
X0221214Y0028958D01*
X0143515Y0026961D02*
X0138485Y0026961D01*
X0137375Y0026961D02*
X0136625Y0026961D01*
X0136625Y0027960D02*
X0137375Y0027960D01*
X0137375Y0028958D02*
X0136625Y0028958D01*
X0136625Y0029957D02*
X0137375Y0029957D01*
X0136625Y0030955D02*
X0129375Y0030955D01*
X0128625Y0030955D02*
X0121375Y0030955D01*
X0120625Y0030955D02*
X0110557Y0030955D01*
X0112286Y0029957D02*
X0116818Y0029957D01*
X0117214Y0028958D02*
X0113457Y0028958D01*
X0114455Y0027960D02*
X0117959Y0027960D01*
X0119515Y0026961D02*
X0115144Y0026961D01*
X0120625Y0026961D02*
X0121375Y0026961D01*
X0121375Y0027960D02*
X0120625Y0027960D01*
X0120625Y0028958D02*
X0121375Y0028958D01*
X0121375Y0029957D02*
X0120625Y0029957D01*
X0124041Y0027960D02*
X0125959Y0027960D01*
X0125214Y0028958D02*
X0124786Y0028958D01*
X0122485Y0026961D02*
X0127515Y0026961D01*
X0128625Y0026961D02*
X0129375Y0026961D01*
X0129375Y0027960D02*
X0128625Y0027960D01*
X0128625Y0028958D02*
X0129375Y0028958D01*
X0129375Y0029957D02*
X0128625Y0029957D01*
X0132041Y0027960D02*
X0133959Y0027960D01*
X0133214Y0028958D02*
X0132786Y0028958D01*
X0130485Y0026961D02*
X0135515Y0026961D01*
X0140041Y0027960D02*
X0141959Y0027960D01*
X0141214Y0028958D02*
X0140786Y0028958D01*
X0101546Y0010985D02*
X0080454Y0010985D01*
X0082183Y0011984D02*
X0099817Y0011984D01*
X0098603Y0012982D02*
X0083397Y0012982D01*
X0084396Y0013981D02*
X0097604Y0013981D01*
X0096890Y0014979D02*
X0085110Y0014979D01*
X0085687Y0015978D02*
X0096313Y0015978D01*
X0095794Y0016976D02*
X0086206Y0016976D01*
X0086474Y0017975D02*
X0095526Y0017975D01*
X0095259Y0018973D02*
X0086741Y0018973D01*
X0086900Y0019972D02*
X0095100Y0019972D01*
X0095100Y0020970D02*
X0086900Y0020970D01*
X0086900Y0021969D02*
X0095100Y0021969D01*
X0095243Y0022967D02*
X0086757Y0022967D01*
X0086490Y0023966D02*
X0095510Y0023966D01*
X0095778Y0024964D02*
X0086222Y0024964D01*
X0085721Y0025963D02*
X0096279Y0025963D01*
X0096856Y0026961D02*
X0085144Y0026961D01*
X0084749Y0027960D02*
X0097251Y0027960D01*
X0095096Y0028958D02*
X0086904Y0028958D01*
X0087903Y0029957D02*
X0094097Y0029957D01*
X0093262Y0030955D02*
X0088738Y0030955D01*
M02*
