G75*
%MOIN*%
%OFA0B0*%
%FSLAX25Y25*%
%IPPOS*%
%LPD*%
%AMOC8*
5,1,8,0,0,1.08239X$1,22.5*
%
%ADD10C,0.00000*%
%ADD11C,0.00600*%
%ADD12C,0.00500*%
%ADD13R,0.03400X0.02400*%
%ADD14C,0.00800*%
%ADD15C,0.00400*%
D10*
X0001000Y0001000D02*
X0001000Y0190961D01*
X0369701Y0190961D01*
X0369701Y0001000D01*
X0001000Y0001000D01*
X0019600Y0021000D02*
X0019602Y0021160D01*
X0019608Y0021319D01*
X0019618Y0021478D01*
X0019632Y0021637D01*
X0019650Y0021796D01*
X0019671Y0021954D01*
X0019697Y0022111D01*
X0019727Y0022268D01*
X0019760Y0022424D01*
X0019798Y0022579D01*
X0019839Y0022733D01*
X0019884Y0022886D01*
X0019933Y0023038D01*
X0019986Y0023189D01*
X0020042Y0023338D01*
X0020103Y0023486D01*
X0020166Y0023632D01*
X0020234Y0023777D01*
X0020305Y0023920D01*
X0020379Y0024061D01*
X0020457Y0024200D01*
X0020539Y0024337D01*
X0020624Y0024472D01*
X0020712Y0024605D01*
X0020804Y0024736D01*
X0020898Y0024864D01*
X0020996Y0024990D01*
X0021097Y0025114D01*
X0021201Y0025235D01*
X0021308Y0025353D01*
X0021418Y0025469D01*
X0021531Y0025582D01*
X0021647Y0025692D01*
X0021765Y0025799D01*
X0021886Y0025903D01*
X0022010Y0026004D01*
X0022136Y0026102D01*
X0022264Y0026196D01*
X0022395Y0026288D01*
X0022528Y0026376D01*
X0022663Y0026461D01*
X0022800Y0026543D01*
X0022939Y0026621D01*
X0023080Y0026695D01*
X0023223Y0026766D01*
X0023368Y0026834D01*
X0023514Y0026897D01*
X0023662Y0026958D01*
X0023811Y0027014D01*
X0023962Y0027067D01*
X0024114Y0027116D01*
X0024267Y0027161D01*
X0024421Y0027202D01*
X0024576Y0027240D01*
X0024732Y0027273D01*
X0024889Y0027303D01*
X0025046Y0027329D01*
X0025204Y0027350D01*
X0025363Y0027368D01*
X0025522Y0027382D01*
X0025681Y0027392D01*
X0025840Y0027398D01*
X0026000Y0027400D01*
X0026160Y0027398D01*
X0026319Y0027392D01*
X0026478Y0027382D01*
X0026637Y0027368D01*
X0026796Y0027350D01*
X0026954Y0027329D01*
X0027111Y0027303D01*
X0027268Y0027273D01*
X0027424Y0027240D01*
X0027579Y0027202D01*
X0027733Y0027161D01*
X0027886Y0027116D01*
X0028038Y0027067D01*
X0028189Y0027014D01*
X0028338Y0026958D01*
X0028486Y0026897D01*
X0028632Y0026834D01*
X0028777Y0026766D01*
X0028920Y0026695D01*
X0029061Y0026621D01*
X0029200Y0026543D01*
X0029337Y0026461D01*
X0029472Y0026376D01*
X0029605Y0026288D01*
X0029736Y0026196D01*
X0029864Y0026102D01*
X0029990Y0026004D01*
X0030114Y0025903D01*
X0030235Y0025799D01*
X0030353Y0025692D01*
X0030469Y0025582D01*
X0030582Y0025469D01*
X0030692Y0025353D01*
X0030799Y0025235D01*
X0030903Y0025114D01*
X0031004Y0024990D01*
X0031102Y0024864D01*
X0031196Y0024736D01*
X0031288Y0024605D01*
X0031376Y0024472D01*
X0031461Y0024337D01*
X0031543Y0024200D01*
X0031621Y0024061D01*
X0031695Y0023920D01*
X0031766Y0023777D01*
X0031834Y0023632D01*
X0031897Y0023486D01*
X0031958Y0023338D01*
X0032014Y0023189D01*
X0032067Y0023038D01*
X0032116Y0022886D01*
X0032161Y0022733D01*
X0032202Y0022579D01*
X0032240Y0022424D01*
X0032273Y0022268D01*
X0032303Y0022111D01*
X0032329Y0021954D01*
X0032350Y0021796D01*
X0032368Y0021637D01*
X0032382Y0021478D01*
X0032392Y0021319D01*
X0032398Y0021160D01*
X0032400Y0021000D01*
X0032398Y0020840D01*
X0032392Y0020681D01*
X0032382Y0020522D01*
X0032368Y0020363D01*
X0032350Y0020204D01*
X0032329Y0020046D01*
X0032303Y0019889D01*
X0032273Y0019732D01*
X0032240Y0019576D01*
X0032202Y0019421D01*
X0032161Y0019267D01*
X0032116Y0019114D01*
X0032067Y0018962D01*
X0032014Y0018811D01*
X0031958Y0018662D01*
X0031897Y0018514D01*
X0031834Y0018368D01*
X0031766Y0018223D01*
X0031695Y0018080D01*
X0031621Y0017939D01*
X0031543Y0017800D01*
X0031461Y0017663D01*
X0031376Y0017528D01*
X0031288Y0017395D01*
X0031196Y0017264D01*
X0031102Y0017136D01*
X0031004Y0017010D01*
X0030903Y0016886D01*
X0030799Y0016765D01*
X0030692Y0016647D01*
X0030582Y0016531D01*
X0030469Y0016418D01*
X0030353Y0016308D01*
X0030235Y0016201D01*
X0030114Y0016097D01*
X0029990Y0015996D01*
X0029864Y0015898D01*
X0029736Y0015804D01*
X0029605Y0015712D01*
X0029472Y0015624D01*
X0029337Y0015539D01*
X0029200Y0015457D01*
X0029061Y0015379D01*
X0028920Y0015305D01*
X0028777Y0015234D01*
X0028632Y0015166D01*
X0028486Y0015103D01*
X0028338Y0015042D01*
X0028189Y0014986D01*
X0028038Y0014933D01*
X0027886Y0014884D01*
X0027733Y0014839D01*
X0027579Y0014798D01*
X0027424Y0014760D01*
X0027268Y0014727D01*
X0027111Y0014697D01*
X0026954Y0014671D01*
X0026796Y0014650D01*
X0026637Y0014632D01*
X0026478Y0014618D01*
X0026319Y0014608D01*
X0026160Y0014602D01*
X0026000Y0014600D01*
X0025840Y0014602D01*
X0025681Y0014608D01*
X0025522Y0014618D01*
X0025363Y0014632D01*
X0025204Y0014650D01*
X0025046Y0014671D01*
X0024889Y0014697D01*
X0024732Y0014727D01*
X0024576Y0014760D01*
X0024421Y0014798D01*
X0024267Y0014839D01*
X0024114Y0014884D01*
X0023962Y0014933D01*
X0023811Y0014986D01*
X0023662Y0015042D01*
X0023514Y0015103D01*
X0023368Y0015166D01*
X0023223Y0015234D01*
X0023080Y0015305D01*
X0022939Y0015379D01*
X0022800Y0015457D01*
X0022663Y0015539D01*
X0022528Y0015624D01*
X0022395Y0015712D01*
X0022264Y0015804D01*
X0022136Y0015898D01*
X0022010Y0015996D01*
X0021886Y0016097D01*
X0021765Y0016201D01*
X0021647Y0016308D01*
X0021531Y0016418D01*
X0021418Y0016531D01*
X0021308Y0016647D01*
X0021201Y0016765D01*
X0021097Y0016886D01*
X0020996Y0017010D01*
X0020898Y0017136D01*
X0020804Y0017264D01*
X0020712Y0017395D01*
X0020624Y0017528D01*
X0020539Y0017663D01*
X0020457Y0017800D01*
X0020379Y0017939D01*
X0020305Y0018080D01*
X0020234Y0018223D01*
X0020166Y0018368D01*
X0020103Y0018514D01*
X0020042Y0018662D01*
X0019986Y0018811D01*
X0019933Y0018962D01*
X0019884Y0019114D01*
X0019839Y0019267D01*
X0019798Y0019421D01*
X0019760Y0019576D01*
X0019727Y0019732D01*
X0019697Y0019889D01*
X0019671Y0020046D01*
X0019650Y0020204D01*
X0019632Y0020363D01*
X0019618Y0020522D01*
X0019608Y0020681D01*
X0019602Y0020840D01*
X0019600Y0021000D01*
X0069600Y0021000D02*
X0069602Y0021160D01*
X0069608Y0021319D01*
X0069618Y0021478D01*
X0069632Y0021637D01*
X0069650Y0021796D01*
X0069671Y0021954D01*
X0069697Y0022111D01*
X0069727Y0022268D01*
X0069760Y0022424D01*
X0069798Y0022579D01*
X0069839Y0022733D01*
X0069884Y0022886D01*
X0069933Y0023038D01*
X0069986Y0023189D01*
X0070042Y0023338D01*
X0070103Y0023486D01*
X0070166Y0023632D01*
X0070234Y0023777D01*
X0070305Y0023920D01*
X0070379Y0024061D01*
X0070457Y0024200D01*
X0070539Y0024337D01*
X0070624Y0024472D01*
X0070712Y0024605D01*
X0070804Y0024736D01*
X0070898Y0024864D01*
X0070996Y0024990D01*
X0071097Y0025114D01*
X0071201Y0025235D01*
X0071308Y0025353D01*
X0071418Y0025469D01*
X0071531Y0025582D01*
X0071647Y0025692D01*
X0071765Y0025799D01*
X0071886Y0025903D01*
X0072010Y0026004D01*
X0072136Y0026102D01*
X0072264Y0026196D01*
X0072395Y0026288D01*
X0072528Y0026376D01*
X0072663Y0026461D01*
X0072800Y0026543D01*
X0072939Y0026621D01*
X0073080Y0026695D01*
X0073223Y0026766D01*
X0073368Y0026834D01*
X0073514Y0026897D01*
X0073662Y0026958D01*
X0073811Y0027014D01*
X0073962Y0027067D01*
X0074114Y0027116D01*
X0074267Y0027161D01*
X0074421Y0027202D01*
X0074576Y0027240D01*
X0074732Y0027273D01*
X0074889Y0027303D01*
X0075046Y0027329D01*
X0075204Y0027350D01*
X0075363Y0027368D01*
X0075522Y0027382D01*
X0075681Y0027392D01*
X0075840Y0027398D01*
X0076000Y0027400D01*
X0076160Y0027398D01*
X0076319Y0027392D01*
X0076478Y0027382D01*
X0076637Y0027368D01*
X0076796Y0027350D01*
X0076954Y0027329D01*
X0077111Y0027303D01*
X0077268Y0027273D01*
X0077424Y0027240D01*
X0077579Y0027202D01*
X0077733Y0027161D01*
X0077886Y0027116D01*
X0078038Y0027067D01*
X0078189Y0027014D01*
X0078338Y0026958D01*
X0078486Y0026897D01*
X0078632Y0026834D01*
X0078777Y0026766D01*
X0078920Y0026695D01*
X0079061Y0026621D01*
X0079200Y0026543D01*
X0079337Y0026461D01*
X0079472Y0026376D01*
X0079605Y0026288D01*
X0079736Y0026196D01*
X0079864Y0026102D01*
X0079990Y0026004D01*
X0080114Y0025903D01*
X0080235Y0025799D01*
X0080353Y0025692D01*
X0080469Y0025582D01*
X0080582Y0025469D01*
X0080692Y0025353D01*
X0080799Y0025235D01*
X0080903Y0025114D01*
X0081004Y0024990D01*
X0081102Y0024864D01*
X0081196Y0024736D01*
X0081288Y0024605D01*
X0081376Y0024472D01*
X0081461Y0024337D01*
X0081543Y0024200D01*
X0081621Y0024061D01*
X0081695Y0023920D01*
X0081766Y0023777D01*
X0081834Y0023632D01*
X0081897Y0023486D01*
X0081958Y0023338D01*
X0082014Y0023189D01*
X0082067Y0023038D01*
X0082116Y0022886D01*
X0082161Y0022733D01*
X0082202Y0022579D01*
X0082240Y0022424D01*
X0082273Y0022268D01*
X0082303Y0022111D01*
X0082329Y0021954D01*
X0082350Y0021796D01*
X0082368Y0021637D01*
X0082382Y0021478D01*
X0082392Y0021319D01*
X0082398Y0021160D01*
X0082400Y0021000D01*
X0082398Y0020840D01*
X0082392Y0020681D01*
X0082382Y0020522D01*
X0082368Y0020363D01*
X0082350Y0020204D01*
X0082329Y0020046D01*
X0082303Y0019889D01*
X0082273Y0019732D01*
X0082240Y0019576D01*
X0082202Y0019421D01*
X0082161Y0019267D01*
X0082116Y0019114D01*
X0082067Y0018962D01*
X0082014Y0018811D01*
X0081958Y0018662D01*
X0081897Y0018514D01*
X0081834Y0018368D01*
X0081766Y0018223D01*
X0081695Y0018080D01*
X0081621Y0017939D01*
X0081543Y0017800D01*
X0081461Y0017663D01*
X0081376Y0017528D01*
X0081288Y0017395D01*
X0081196Y0017264D01*
X0081102Y0017136D01*
X0081004Y0017010D01*
X0080903Y0016886D01*
X0080799Y0016765D01*
X0080692Y0016647D01*
X0080582Y0016531D01*
X0080469Y0016418D01*
X0080353Y0016308D01*
X0080235Y0016201D01*
X0080114Y0016097D01*
X0079990Y0015996D01*
X0079864Y0015898D01*
X0079736Y0015804D01*
X0079605Y0015712D01*
X0079472Y0015624D01*
X0079337Y0015539D01*
X0079200Y0015457D01*
X0079061Y0015379D01*
X0078920Y0015305D01*
X0078777Y0015234D01*
X0078632Y0015166D01*
X0078486Y0015103D01*
X0078338Y0015042D01*
X0078189Y0014986D01*
X0078038Y0014933D01*
X0077886Y0014884D01*
X0077733Y0014839D01*
X0077579Y0014798D01*
X0077424Y0014760D01*
X0077268Y0014727D01*
X0077111Y0014697D01*
X0076954Y0014671D01*
X0076796Y0014650D01*
X0076637Y0014632D01*
X0076478Y0014618D01*
X0076319Y0014608D01*
X0076160Y0014602D01*
X0076000Y0014600D01*
X0075840Y0014602D01*
X0075681Y0014608D01*
X0075522Y0014618D01*
X0075363Y0014632D01*
X0075204Y0014650D01*
X0075046Y0014671D01*
X0074889Y0014697D01*
X0074732Y0014727D01*
X0074576Y0014760D01*
X0074421Y0014798D01*
X0074267Y0014839D01*
X0074114Y0014884D01*
X0073962Y0014933D01*
X0073811Y0014986D01*
X0073662Y0015042D01*
X0073514Y0015103D01*
X0073368Y0015166D01*
X0073223Y0015234D01*
X0073080Y0015305D01*
X0072939Y0015379D01*
X0072800Y0015457D01*
X0072663Y0015539D01*
X0072528Y0015624D01*
X0072395Y0015712D01*
X0072264Y0015804D01*
X0072136Y0015898D01*
X0072010Y0015996D01*
X0071886Y0016097D01*
X0071765Y0016201D01*
X0071647Y0016308D01*
X0071531Y0016418D01*
X0071418Y0016531D01*
X0071308Y0016647D01*
X0071201Y0016765D01*
X0071097Y0016886D01*
X0070996Y0017010D01*
X0070898Y0017136D01*
X0070804Y0017264D01*
X0070712Y0017395D01*
X0070624Y0017528D01*
X0070539Y0017663D01*
X0070457Y0017800D01*
X0070379Y0017939D01*
X0070305Y0018080D01*
X0070234Y0018223D01*
X0070166Y0018368D01*
X0070103Y0018514D01*
X0070042Y0018662D01*
X0069986Y0018811D01*
X0069933Y0018962D01*
X0069884Y0019114D01*
X0069839Y0019267D01*
X0069798Y0019421D01*
X0069760Y0019576D01*
X0069727Y0019732D01*
X0069697Y0019889D01*
X0069671Y0020046D01*
X0069650Y0020204D01*
X0069632Y0020363D01*
X0069618Y0020522D01*
X0069608Y0020681D01*
X0069602Y0020840D01*
X0069600Y0021000D01*
X0099600Y0021000D02*
X0099602Y0021160D01*
X0099608Y0021319D01*
X0099618Y0021478D01*
X0099632Y0021637D01*
X0099650Y0021796D01*
X0099671Y0021954D01*
X0099697Y0022111D01*
X0099727Y0022268D01*
X0099760Y0022424D01*
X0099798Y0022579D01*
X0099839Y0022733D01*
X0099884Y0022886D01*
X0099933Y0023038D01*
X0099986Y0023189D01*
X0100042Y0023338D01*
X0100103Y0023486D01*
X0100166Y0023632D01*
X0100234Y0023777D01*
X0100305Y0023920D01*
X0100379Y0024061D01*
X0100457Y0024200D01*
X0100539Y0024337D01*
X0100624Y0024472D01*
X0100712Y0024605D01*
X0100804Y0024736D01*
X0100898Y0024864D01*
X0100996Y0024990D01*
X0101097Y0025114D01*
X0101201Y0025235D01*
X0101308Y0025353D01*
X0101418Y0025469D01*
X0101531Y0025582D01*
X0101647Y0025692D01*
X0101765Y0025799D01*
X0101886Y0025903D01*
X0102010Y0026004D01*
X0102136Y0026102D01*
X0102264Y0026196D01*
X0102395Y0026288D01*
X0102528Y0026376D01*
X0102663Y0026461D01*
X0102800Y0026543D01*
X0102939Y0026621D01*
X0103080Y0026695D01*
X0103223Y0026766D01*
X0103368Y0026834D01*
X0103514Y0026897D01*
X0103662Y0026958D01*
X0103811Y0027014D01*
X0103962Y0027067D01*
X0104114Y0027116D01*
X0104267Y0027161D01*
X0104421Y0027202D01*
X0104576Y0027240D01*
X0104732Y0027273D01*
X0104889Y0027303D01*
X0105046Y0027329D01*
X0105204Y0027350D01*
X0105363Y0027368D01*
X0105522Y0027382D01*
X0105681Y0027392D01*
X0105840Y0027398D01*
X0106000Y0027400D01*
X0106160Y0027398D01*
X0106319Y0027392D01*
X0106478Y0027382D01*
X0106637Y0027368D01*
X0106796Y0027350D01*
X0106954Y0027329D01*
X0107111Y0027303D01*
X0107268Y0027273D01*
X0107424Y0027240D01*
X0107579Y0027202D01*
X0107733Y0027161D01*
X0107886Y0027116D01*
X0108038Y0027067D01*
X0108189Y0027014D01*
X0108338Y0026958D01*
X0108486Y0026897D01*
X0108632Y0026834D01*
X0108777Y0026766D01*
X0108920Y0026695D01*
X0109061Y0026621D01*
X0109200Y0026543D01*
X0109337Y0026461D01*
X0109472Y0026376D01*
X0109605Y0026288D01*
X0109736Y0026196D01*
X0109864Y0026102D01*
X0109990Y0026004D01*
X0110114Y0025903D01*
X0110235Y0025799D01*
X0110353Y0025692D01*
X0110469Y0025582D01*
X0110582Y0025469D01*
X0110692Y0025353D01*
X0110799Y0025235D01*
X0110903Y0025114D01*
X0111004Y0024990D01*
X0111102Y0024864D01*
X0111196Y0024736D01*
X0111288Y0024605D01*
X0111376Y0024472D01*
X0111461Y0024337D01*
X0111543Y0024200D01*
X0111621Y0024061D01*
X0111695Y0023920D01*
X0111766Y0023777D01*
X0111834Y0023632D01*
X0111897Y0023486D01*
X0111958Y0023338D01*
X0112014Y0023189D01*
X0112067Y0023038D01*
X0112116Y0022886D01*
X0112161Y0022733D01*
X0112202Y0022579D01*
X0112240Y0022424D01*
X0112273Y0022268D01*
X0112303Y0022111D01*
X0112329Y0021954D01*
X0112350Y0021796D01*
X0112368Y0021637D01*
X0112382Y0021478D01*
X0112392Y0021319D01*
X0112398Y0021160D01*
X0112400Y0021000D01*
X0112398Y0020840D01*
X0112392Y0020681D01*
X0112382Y0020522D01*
X0112368Y0020363D01*
X0112350Y0020204D01*
X0112329Y0020046D01*
X0112303Y0019889D01*
X0112273Y0019732D01*
X0112240Y0019576D01*
X0112202Y0019421D01*
X0112161Y0019267D01*
X0112116Y0019114D01*
X0112067Y0018962D01*
X0112014Y0018811D01*
X0111958Y0018662D01*
X0111897Y0018514D01*
X0111834Y0018368D01*
X0111766Y0018223D01*
X0111695Y0018080D01*
X0111621Y0017939D01*
X0111543Y0017800D01*
X0111461Y0017663D01*
X0111376Y0017528D01*
X0111288Y0017395D01*
X0111196Y0017264D01*
X0111102Y0017136D01*
X0111004Y0017010D01*
X0110903Y0016886D01*
X0110799Y0016765D01*
X0110692Y0016647D01*
X0110582Y0016531D01*
X0110469Y0016418D01*
X0110353Y0016308D01*
X0110235Y0016201D01*
X0110114Y0016097D01*
X0109990Y0015996D01*
X0109864Y0015898D01*
X0109736Y0015804D01*
X0109605Y0015712D01*
X0109472Y0015624D01*
X0109337Y0015539D01*
X0109200Y0015457D01*
X0109061Y0015379D01*
X0108920Y0015305D01*
X0108777Y0015234D01*
X0108632Y0015166D01*
X0108486Y0015103D01*
X0108338Y0015042D01*
X0108189Y0014986D01*
X0108038Y0014933D01*
X0107886Y0014884D01*
X0107733Y0014839D01*
X0107579Y0014798D01*
X0107424Y0014760D01*
X0107268Y0014727D01*
X0107111Y0014697D01*
X0106954Y0014671D01*
X0106796Y0014650D01*
X0106637Y0014632D01*
X0106478Y0014618D01*
X0106319Y0014608D01*
X0106160Y0014602D01*
X0106000Y0014600D01*
X0105840Y0014602D01*
X0105681Y0014608D01*
X0105522Y0014618D01*
X0105363Y0014632D01*
X0105204Y0014650D01*
X0105046Y0014671D01*
X0104889Y0014697D01*
X0104732Y0014727D01*
X0104576Y0014760D01*
X0104421Y0014798D01*
X0104267Y0014839D01*
X0104114Y0014884D01*
X0103962Y0014933D01*
X0103811Y0014986D01*
X0103662Y0015042D01*
X0103514Y0015103D01*
X0103368Y0015166D01*
X0103223Y0015234D01*
X0103080Y0015305D01*
X0102939Y0015379D01*
X0102800Y0015457D01*
X0102663Y0015539D01*
X0102528Y0015624D01*
X0102395Y0015712D01*
X0102264Y0015804D01*
X0102136Y0015898D01*
X0102010Y0015996D01*
X0101886Y0016097D01*
X0101765Y0016201D01*
X0101647Y0016308D01*
X0101531Y0016418D01*
X0101418Y0016531D01*
X0101308Y0016647D01*
X0101201Y0016765D01*
X0101097Y0016886D01*
X0100996Y0017010D01*
X0100898Y0017136D01*
X0100804Y0017264D01*
X0100712Y0017395D01*
X0100624Y0017528D01*
X0100539Y0017663D01*
X0100457Y0017800D01*
X0100379Y0017939D01*
X0100305Y0018080D01*
X0100234Y0018223D01*
X0100166Y0018368D01*
X0100103Y0018514D01*
X0100042Y0018662D01*
X0099986Y0018811D01*
X0099933Y0018962D01*
X0099884Y0019114D01*
X0099839Y0019267D01*
X0099798Y0019421D01*
X0099760Y0019576D01*
X0099727Y0019732D01*
X0099697Y0019889D01*
X0099671Y0020046D01*
X0099650Y0020204D01*
X0099632Y0020363D01*
X0099618Y0020522D01*
X0099608Y0020681D01*
X0099602Y0020840D01*
X0099600Y0021000D01*
X0149600Y0021000D02*
X0149602Y0021160D01*
X0149608Y0021319D01*
X0149618Y0021478D01*
X0149632Y0021637D01*
X0149650Y0021796D01*
X0149671Y0021954D01*
X0149697Y0022111D01*
X0149727Y0022268D01*
X0149760Y0022424D01*
X0149798Y0022579D01*
X0149839Y0022733D01*
X0149884Y0022886D01*
X0149933Y0023038D01*
X0149986Y0023189D01*
X0150042Y0023338D01*
X0150103Y0023486D01*
X0150166Y0023632D01*
X0150234Y0023777D01*
X0150305Y0023920D01*
X0150379Y0024061D01*
X0150457Y0024200D01*
X0150539Y0024337D01*
X0150624Y0024472D01*
X0150712Y0024605D01*
X0150804Y0024736D01*
X0150898Y0024864D01*
X0150996Y0024990D01*
X0151097Y0025114D01*
X0151201Y0025235D01*
X0151308Y0025353D01*
X0151418Y0025469D01*
X0151531Y0025582D01*
X0151647Y0025692D01*
X0151765Y0025799D01*
X0151886Y0025903D01*
X0152010Y0026004D01*
X0152136Y0026102D01*
X0152264Y0026196D01*
X0152395Y0026288D01*
X0152528Y0026376D01*
X0152663Y0026461D01*
X0152800Y0026543D01*
X0152939Y0026621D01*
X0153080Y0026695D01*
X0153223Y0026766D01*
X0153368Y0026834D01*
X0153514Y0026897D01*
X0153662Y0026958D01*
X0153811Y0027014D01*
X0153962Y0027067D01*
X0154114Y0027116D01*
X0154267Y0027161D01*
X0154421Y0027202D01*
X0154576Y0027240D01*
X0154732Y0027273D01*
X0154889Y0027303D01*
X0155046Y0027329D01*
X0155204Y0027350D01*
X0155363Y0027368D01*
X0155522Y0027382D01*
X0155681Y0027392D01*
X0155840Y0027398D01*
X0156000Y0027400D01*
X0156160Y0027398D01*
X0156319Y0027392D01*
X0156478Y0027382D01*
X0156637Y0027368D01*
X0156796Y0027350D01*
X0156954Y0027329D01*
X0157111Y0027303D01*
X0157268Y0027273D01*
X0157424Y0027240D01*
X0157579Y0027202D01*
X0157733Y0027161D01*
X0157886Y0027116D01*
X0158038Y0027067D01*
X0158189Y0027014D01*
X0158338Y0026958D01*
X0158486Y0026897D01*
X0158632Y0026834D01*
X0158777Y0026766D01*
X0158920Y0026695D01*
X0159061Y0026621D01*
X0159200Y0026543D01*
X0159337Y0026461D01*
X0159472Y0026376D01*
X0159605Y0026288D01*
X0159736Y0026196D01*
X0159864Y0026102D01*
X0159990Y0026004D01*
X0160114Y0025903D01*
X0160235Y0025799D01*
X0160353Y0025692D01*
X0160469Y0025582D01*
X0160582Y0025469D01*
X0160692Y0025353D01*
X0160799Y0025235D01*
X0160903Y0025114D01*
X0161004Y0024990D01*
X0161102Y0024864D01*
X0161196Y0024736D01*
X0161288Y0024605D01*
X0161376Y0024472D01*
X0161461Y0024337D01*
X0161543Y0024200D01*
X0161621Y0024061D01*
X0161695Y0023920D01*
X0161766Y0023777D01*
X0161834Y0023632D01*
X0161897Y0023486D01*
X0161958Y0023338D01*
X0162014Y0023189D01*
X0162067Y0023038D01*
X0162116Y0022886D01*
X0162161Y0022733D01*
X0162202Y0022579D01*
X0162240Y0022424D01*
X0162273Y0022268D01*
X0162303Y0022111D01*
X0162329Y0021954D01*
X0162350Y0021796D01*
X0162368Y0021637D01*
X0162382Y0021478D01*
X0162392Y0021319D01*
X0162398Y0021160D01*
X0162400Y0021000D01*
X0162398Y0020840D01*
X0162392Y0020681D01*
X0162382Y0020522D01*
X0162368Y0020363D01*
X0162350Y0020204D01*
X0162329Y0020046D01*
X0162303Y0019889D01*
X0162273Y0019732D01*
X0162240Y0019576D01*
X0162202Y0019421D01*
X0162161Y0019267D01*
X0162116Y0019114D01*
X0162067Y0018962D01*
X0162014Y0018811D01*
X0161958Y0018662D01*
X0161897Y0018514D01*
X0161834Y0018368D01*
X0161766Y0018223D01*
X0161695Y0018080D01*
X0161621Y0017939D01*
X0161543Y0017800D01*
X0161461Y0017663D01*
X0161376Y0017528D01*
X0161288Y0017395D01*
X0161196Y0017264D01*
X0161102Y0017136D01*
X0161004Y0017010D01*
X0160903Y0016886D01*
X0160799Y0016765D01*
X0160692Y0016647D01*
X0160582Y0016531D01*
X0160469Y0016418D01*
X0160353Y0016308D01*
X0160235Y0016201D01*
X0160114Y0016097D01*
X0159990Y0015996D01*
X0159864Y0015898D01*
X0159736Y0015804D01*
X0159605Y0015712D01*
X0159472Y0015624D01*
X0159337Y0015539D01*
X0159200Y0015457D01*
X0159061Y0015379D01*
X0158920Y0015305D01*
X0158777Y0015234D01*
X0158632Y0015166D01*
X0158486Y0015103D01*
X0158338Y0015042D01*
X0158189Y0014986D01*
X0158038Y0014933D01*
X0157886Y0014884D01*
X0157733Y0014839D01*
X0157579Y0014798D01*
X0157424Y0014760D01*
X0157268Y0014727D01*
X0157111Y0014697D01*
X0156954Y0014671D01*
X0156796Y0014650D01*
X0156637Y0014632D01*
X0156478Y0014618D01*
X0156319Y0014608D01*
X0156160Y0014602D01*
X0156000Y0014600D01*
X0155840Y0014602D01*
X0155681Y0014608D01*
X0155522Y0014618D01*
X0155363Y0014632D01*
X0155204Y0014650D01*
X0155046Y0014671D01*
X0154889Y0014697D01*
X0154732Y0014727D01*
X0154576Y0014760D01*
X0154421Y0014798D01*
X0154267Y0014839D01*
X0154114Y0014884D01*
X0153962Y0014933D01*
X0153811Y0014986D01*
X0153662Y0015042D01*
X0153514Y0015103D01*
X0153368Y0015166D01*
X0153223Y0015234D01*
X0153080Y0015305D01*
X0152939Y0015379D01*
X0152800Y0015457D01*
X0152663Y0015539D01*
X0152528Y0015624D01*
X0152395Y0015712D01*
X0152264Y0015804D01*
X0152136Y0015898D01*
X0152010Y0015996D01*
X0151886Y0016097D01*
X0151765Y0016201D01*
X0151647Y0016308D01*
X0151531Y0016418D01*
X0151418Y0016531D01*
X0151308Y0016647D01*
X0151201Y0016765D01*
X0151097Y0016886D01*
X0150996Y0017010D01*
X0150898Y0017136D01*
X0150804Y0017264D01*
X0150712Y0017395D01*
X0150624Y0017528D01*
X0150539Y0017663D01*
X0150457Y0017800D01*
X0150379Y0017939D01*
X0150305Y0018080D01*
X0150234Y0018223D01*
X0150166Y0018368D01*
X0150103Y0018514D01*
X0150042Y0018662D01*
X0149986Y0018811D01*
X0149933Y0018962D01*
X0149884Y0019114D01*
X0149839Y0019267D01*
X0149798Y0019421D01*
X0149760Y0019576D01*
X0149727Y0019732D01*
X0149697Y0019889D01*
X0149671Y0020046D01*
X0149650Y0020204D01*
X0149632Y0020363D01*
X0149618Y0020522D01*
X0149608Y0020681D01*
X0149602Y0020840D01*
X0149600Y0021000D01*
X0179600Y0021000D02*
X0179602Y0021160D01*
X0179608Y0021319D01*
X0179618Y0021478D01*
X0179632Y0021637D01*
X0179650Y0021796D01*
X0179671Y0021954D01*
X0179697Y0022111D01*
X0179727Y0022268D01*
X0179760Y0022424D01*
X0179798Y0022579D01*
X0179839Y0022733D01*
X0179884Y0022886D01*
X0179933Y0023038D01*
X0179986Y0023189D01*
X0180042Y0023338D01*
X0180103Y0023486D01*
X0180166Y0023632D01*
X0180234Y0023777D01*
X0180305Y0023920D01*
X0180379Y0024061D01*
X0180457Y0024200D01*
X0180539Y0024337D01*
X0180624Y0024472D01*
X0180712Y0024605D01*
X0180804Y0024736D01*
X0180898Y0024864D01*
X0180996Y0024990D01*
X0181097Y0025114D01*
X0181201Y0025235D01*
X0181308Y0025353D01*
X0181418Y0025469D01*
X0181531Y0025582D01*
X0181647Y0025692D01*
X0181765Y0025799D01*
X0181886Y0025903D01*
X0182010Y0026004D01*
X0182136Y0026102D01*
X0182264Y0026196D01*
X0182395Y0026288D01*
X0182528Y0026376D01*
X0182663Y0026461D01*
X0182800Y0026543D01*
X0182939Y0026621D01*
X0183080Y0026695D01*
X0183223Y0026766D01*
X0183368Y0026834D01*
X0183514Y0026897D01*
X0183662Y0026958D01*
X0183811Y0027014D01*
X0183962Y0027067D01*
X0184114Y0027116D01*
X0184267Y0027161D01*
X0184421Y0027202D01*
X0184576Y0027240D01*
X0184732Y0027273D01*
X0184889Y0027303D01*
X0185046Y0027329D01*
X0185204Y0027350D01*
X0185363Y0027368D01*
X0185522Y0027382D01*
X0185681Y0027392D01*
X0185840Y0027398D01*
X0186000Y0027400D01*
X0186160Y0027398D01*
X0186319Y0027392D01*
X0186478Y0027382D01*
X0186637Y0027368D01*
X0186796Y0027350D01*
X0186954Y0027329D01*
X0187111Y0027303D01*
X0187268Y0027273D01*
X0187424Y0027240D01*
X0187579Y0027202D01*
X0187733Y0027161D01*
X0187886Y0027116D01*
X0188038Y0027067D01*
X0188189Y0027014D01*
X0188338Y0026958D01*
X0188486Y0026897D01*
X0188632Y0026834D01*
X0188777Y0026766D01*
X0188920Y0026695D01*
X0189061Y0026621D01*
X0189200Y0026543D01*
X0189337Y0026461D01*
X0189472Y0026376D01*
X0189605Y0026288D01*
X0189736Y0026196D01*
X0189864Y0026102D01*
X0189990Y0026004D01*
X0190114Y0025903D01*
X0190235Y0025799D01*
X0190353Y0025692D01*
X0190469Y0025582D01*
X0190582Y0025469D01*
X0190692Y0025353D01*
X0190799Y0025235D01*
X0190903Y0025114D01*
X0191004Y0024990D01*
X0191102Y0024864D01*
X0191196Y0024736D01*
X0191288Y0024605D01*
X0191376Y0024472D01*
X0191461Y0024337D01*
X0191543Y0024200D01*
X0191621Y0024061D01*
X0191695Y0023920D01*
X0191766Y0023777D01*
X0191834Y0023632D01*
X0191897Y0023486D01*
X0191958Y0023338D01*
X0192014Y0023189D01*
X0192067Y0023038D01*
X0192116Y0022886D01*
X0192161Y0022733D01*
X0192202Y0022579D01*
X0192240Y0022424D01*
X0192273Y0022268D01*
X0192303Y0022111D01*
X0192329Y0021954D01*
X0192350Y0021796D01*
X0192368Y0021637D01*
X0192382Y0021478D01*
X0192392Y0021319D01*
X0192398Y0021160D01*
X0192400Y0021000D01*
X0192398Y0020840D01*
X0192392Y0020681D01*
X0192382Y0020522D01*
X0192368Y0020363D01*
X0192350Y0020204D01*
X0192329Y0020046D01*
X0192303Y0019889D01*
X0192273Y0019732D01*
X0192240Y0019576D01*
X0192202Y0019421D01*
X0192161Y0019267D01*
X0192116Y0019114D01*
X0192067Y0018962D01*
X0192014Y0018811D01*
X0191958Y0018662D01*
X0191897Y0018514D01*
X0191834Y0018368D01*
X0191766Y0018223D01*
X0191695Y0018080D01*
X0191621Y0017939D01*
X0191543Y0017800D01*
X0191461Y0017663D01*
X0191376Y0017528D01*
X0191288Y0017395D01*
X0191196Y0017264D01*
X0191102Y0017136D01*
X0191004Y0017010D01*
X0190903Y0016886D01*
X0190799Y0016765D01*
X0190692Y0016647D01*
X0190582Y0016531D01*
X0190469Y0016418D01*
X0190353Y0016308D01*
X0190235Y0016201D01*
X0190114Y0016097D01*
X0189990Y0015996D01*
X0189864Y0015898D01*
X0189736Y0015804D01*
X0189605Y0015712D01*
X0189472Y0015624D01*
X0189337Y0015539D01*
X0189200Y0015457D01*
X0189061Y0015379D01*
X0188920Y0015305D01*
X0188777Y0015234D01*
X0188632Y0015166D01*
X0188486Y0015103D01*
X0188338Y0015042D01*
X0188189Y0014986D01*
X0188038Y0014933D01*
X0187886Y0014884D01*
X0187733Y0014839D01*
X0187579Y0014798D01*
X0187424Y0014760D01*
X0187268Y0014727D01*
X0187111Y0014697D01*
X0186954Y0014671D01*
X0186796Y0014650D01*
X0186637Y0014632D01*
X0186478Y0014618D01*
X0186319Y0014608D01*
X0186160Y0014602D01*
X0186000Y0014600D01*
X0185840Y0014602D01*
X0185681Y0014608D01*
X0185522Y0014618D01*
X0185363Y0014632D01*
X0185204Y0014650D01*
X0185046Y0014671D01*
X0184889Y0014697D01*
X0184732Y0014727D01*
X0184576Y0014760D01*
X0184421Y0014798D01*
X0184267Y0014839D01*
X0184114Y0014884D01*
X0183962Y0014933D01*
X0183811Y0014986D01*
X0183662Y0015042D01*
X0183514Y0015103D01*
X0183368Y0015166D01*
X0183223Y0015234D01*
X0183080Y0015305D01*
X0182939Y0015379D01*
X0182800Y0015457D01*
X0182663Y0015539D01*
X0182528Y0015624D01*
X0182395Y0015712D01*
X0182264Y0015804D01*
X0182136Y0015898D01*
X0182010Y0015996D01*
X0181886Y0016097D01*
X0181765Y0016201D01*
X0181647Y0016308D01*
X0181531Y0016418D01*
X0181418Y0016531D01*
X0181308Y0016647D01*
X0181201Y0016765D01*
X0181097Y0016886D01*
X0180996Y0017010D01*
X0180898Y0017136D01*
X0180804Y0017264D01*
X0180712Y0017395D01*
X0180624Y0017528D01*
X0180539Y0017663D01*
X0180457Y0017800D01*
X0180379Y0017939D01*
X0180305Y0018080D01*
X0180234Y0018223D01*
X0180166Y0018368D01*
X0180103Y0018514D01*
X0180042Y0018662D01*
X0179986Y0018811D01*
X0179933Y0018962D01*
X0179884Y0019114D01*
X0179839Y0019267D01*
X0179798Y0019421D01*
X0179760Y0019576D01*
X0179727Y0019732D01*
X0179697Y0019889D01*
X0179671Y0020046D01*
X0179650Y0020204D01*
X0179632Y0020363D01*
X0179618Y0020522D01*
X0179608Y0020681D01*
X0179602Y0020840D01*
X0179600Y0021000D01*
X0229600Y0021000D02*
X0229602Y0021160D01*
X0229608Y0021319D01*
X0229618Y0021478D01*
X0229632Y0021637D01*
X0229650Y0021796D01*
X0229671Y0021954D01*
X0229697Y0022111D01*
X0229727Y0022268D01*
X0229760Y0022424D01*
X0229798Y0022579D01*
X0229839Y0022733D01*
X0229884Y0022886D01*
X0229933Y0023038D01*
X0229986Y0023189D01*
X0230042Y0023338D01*
X0230103Y0023486D01*
X0230166Y0023632D01*
X0230234Y0023777D01*
X0230305Y0023920D01*
X0230379Y0024061D01*
X0230457Y0024200D01*
X0230539Y0024337D01*
X0230624Y0024472D01*
X0230712Y0024605D01*
X0230804Y0024736D01*
X0230898Y0024864D01*
X0230996Y0024990D01*
X0231097Y0025114D01*
X0231201Y0025235D01*
X0231308Y0025353D01*
X0231418Y0025469D01*
X0231531Y0025582D01*
X0231647Y0025692D01*
X0231765Y0025799D01*
X0231886Y0025903D01*
X0232010Y0026004D01*
X0232136Y0026102D01*
X0232264Y0026196D01*
X0232395Y0026288D01*
X0232528Y0026376D01*
X0232663Y0026461D01*
X0232800Y0026543D01*
X0232939Y0026621D01*
X0233080Y0026695D01*
X0233223Y0026766D01*
X0233368Y0026834D01*
X0233514Y0026897D01*
X0233662Y0026958D01*
X0233811Y0027014D01*
X0233962Y0027067D01*
X0234114Y0027116D01*
X0234267Y0027161D01*
X0234421Y0027202D01*
X0234576Y0027240D01*
X0234732Y0027273D01*
X0234889Y0027303D01*
X0235046Y0027329D01*
X0235204Y0027350D01*
X0235363Y0027368D01*
X0235522Y0027382D01*
X0235681Y0027392D01*
X0235840Y0027398D01*
X0236000Y0027400D01*
X0236160Y0027398D01*
X0236319Y0027392D01*
X0236478Y0027382D01*
X0236637Y0027368D01*
X0236796Y0027350D01*
X0236954Y0027329D01*
X0237111Y0027303D01*
X0237268Y0027273D01*
X0237424Y0027240D01*
X0237579Y0027202D01*
X0237733Y0027161D01*
X0237886Y0027116D01*
X0238038Y0027067D01*
X0238189Y0027014D01*
X0238338Y0026958D01*
X0238486Y0026897D01*
X0238632Y0026834D01*
X0238777Y0026766D01*
X0238920Y0026695D01*
X0239061Y0026621D01*
X0239200Y0026543D01*
X0239337Y0026461D01*
X0239472Y0026376D01*
X0239605Y0026288D01*
X0239736Y0026196D01*
X0239864Y0026102D01*
X0239990Y0026004D01*
X0240114Y0025903D01*
X0240235Y0025799D01*
X0240353Y0025692D01*
X0240469Y0025582D01*
X0240582Y0025469D01*
X0240692Y0025353D01*
X0240799Y0025235D01*
X0240903Y0025114D01*
X0241004Y0024990D01*
X0241102Y0024864D01*
X0241196Y0024736D01*
X0241288Y0024605D01*
X0241376Y0024472D01*
X0241461Y0024337D01*
X0241543Y0024200D01*
X0241621Y0024061D01*
X0241695Y0023920D01*
X0241766Y0023777D01*
X0241834Y0023632D01*
X0241897Y0023486D01*
X0241958Y0023338D01*
X0242014Y0023189D01*
X0242067Y0023038D01*
X0242116Y0022886D01*
X0242161Y0022733D01*
X0242202Y0022579D01*
X0242240Y0022424D01*
X0242273Y0022268D01*
X0242303Y0022111D01*
X0242329Y0021954D01*
X0242350Y0021796D01*
X0242368Y0021637D01*
X0242382Y0021478D01*
X0242392Y0021319D01*
X0242398Y0021160D01*
X0242400Y0021000D01*
X0242398Y0020840D01*
X0242392Y0020681D01*
X0242382Y0020522D01*
X0242368Y0020363D01*
X0242350Y0020204D01*
X0242329Y0020046D01*
X0242303Y0019889D01*
X0242273Y0019732D01*
X0242240Y0019576D01*
X0242202Y0019421D01*
X0242161Y0019267D01*
X0242116Y0019114D01*
X0242067Y0018962D01*
X0242014Y0018811D01*
X0241958Y0018662D01*
X0241897Y0018514D01*
X0241834Y0018368D01*
X0241766Y0018223D01*
X0241695Y0018080D01*
X0241621Y0017939D01*
X0241543Y0017800D01*
X0241461Y0017663D01*
X0241376Y0017528D01*
X0241288Y0017395D01*
X0241196Y0017264D01*
X0241102Y0017136D01*
X0241004Y0017010D01*
X0240903Y0016886D01*
X0240799Y0016765D01*
X0240692Y0016647D01*
X0240582Y0016531D01*
X0240469Y0016418D01*
X0240353Y0016308D01*
X0240235Y0016201D01*
X0240114Y0016097D01*
X0239990Y0015996D01*
X0239864Y0015898D01*
X0239736Y0015804D01*
X0239605Y0015712D01*
X0239472Y0015624D01*
X0239337Y0015539D01*
X0239200Y0015457D01*
X0239061Y0015379D01*
X0238920Y0015305D01*
X0238777Y0015234D01*
X0238632Y0015166D01*
X0238486Y0015103D01*
X0238338Y0015042D01*
X0238189Y0014986D01*
X0238038Y0014933D01*
X0237886Y0014884D01*
X0237733Y0014839D01*
X0237579Y0014798D01*
X0237424Y0014760D01*
X0237268Y0014727D01*
X0237111Y0014697D01*
X0236954Y0014671D01*
X0236796Y0014650D01*
X0236637Y0014632D01*
X0236478Y0014618D01*
X0236319Y0014608D01*
X0236160Y0014602D01*
X0236000Y0014600D01*
X0235840Y0014602D01*
X0235681Y0014608D01*
X0235522Y0014618D01*
X0235363Y0014632D01*
X0235204Y0014650D01*
X0235046Y0014671D01*
X0234889Y0014697D01*
X0234732Y0014727D01*
X0234576Y0014760D01*
X0234421Y0014798D01*
X0234267Y0014839D01*
X0234114Y0014884D01*
X0233962Y0014933D01*
X0233811Y0014986D01*
X0233662Y0015042D01*
X0233514Y0015103D01*
X0233368Y0015166D01*
X0233223Y0015234D01*
X0233080Y0015305D01*
X0232939Y0015379D01*
X0232800Y0015457D01*
X0232663Y0015539D01*
X0232528Y0015624D01*
X0232395Y0015712D01*
X0232264Y0015804D01*
X0232136Y0015898D01*
X0232010Y0015996D01*
X0231886Y0016097D01*
X0231765Y0016201D01*
X0231647Y0016308D01*
X0231531Y0016418D01*
X0231418Y0016531D01*
X0231308Y0016647D01*
X0231201Y0016765D01*
X0231097Y0016886D01*
X0230996Y0017010D01*
X0230898Y0017136D01*
X0230804Y0017264D01*
X0230712Y0017395D01*
X0230624Y0017528D01*
X0230539Y0017663D01*
X0230457Y0017800D01*
X0230379Y0017939D01*
X0230305Y0018080D01*
X0230234Y0018223D01*
X0230166Y0018368D01*
X0230103Y0018514D01*
X0230042Y0018662D01*
X0229986Y0018811D01*
X0229933Y0018962D01*
X0229884Y0019114D01*
X0229839Y0019267D01*
X0229798Y0019421D01*
X0229760Y0019576D01*
X0229727Y0019732D01*
X0229697Y0019889D01*
X0229671Y0020046D01*
X0229650Y0020204D01*
X0229632Y0020363D01*
X0229618Y0020522D01*
X0229608Y0020681D01*
X0229602Y0020840D01*
X0229600Y0021000D01*
X0259600Y0021000D02*
X0259602Y0021160D01*
X0259608Y0021319D01*
X0259618Y0021478D01*
X0259632Y0021637D01*
X0259650Y0021796D01*
X0259671Y0021954D01*
X0259697Y0022111D01*
X0259727Y0022268D01*
X0259760Y0022424D01*
X0259798Y0022579D01*
X0259839Y0022733D01*
X0259884Y0022886D01*
X0259933Y0023038D01*
X0259986Y0023189D01*
X0260042Y0023338D01*
X0260103Y0023486D01*
X0260166Y0023632D01*
X0260234Y0023777D01*
X0260305Y0023920D01*
X0260379Y0024061D01*
X0260457Y0024200D01*
X0260539Y0024337D01*
X0260624Y0024472D01*
X0260712Y0024605D01*
X0260804Y0024736D01*
X0260898Y0024864D01*
X0260996Y0024990D01*
X0261097Y0025114D01*
X0261201Y0025235D01*
X0261308Y0025353D01*
X0261418Y0025469D01*
X0261531Y0025582D01*
X0261647Y0025692D01*
X0261765Y0025799D01*
X0261886Y0025903D01*
X0262010Y0026004D01*
X0262136Y0026102D01*
X0262264Y0026196D01*
X0262395Y0026288D01*
X0262528Y0026376D01*
X0262663Y0026461D01*
X0262800Y0026543D01*
X0262939Y0026621D01*
X0263080Y0026695D01*
X0263223Y0026766D01*
X0263368Y0026834D01*
X0263514Y0026897D01*
X0263662Y0026958D01*
X0263811Y0027014D01*
X0263962Y0027067D01*
X0264114Y0027116D01*
X0264267Y0027161D01*
X0264421Y0027202D01*
X0264576Y0027240D01*
X0264732Y0027273D01*
X0264889Y0027303D01*
X0265046Y0027329D01*
X0265204Y0027350D01*
X0265363Y0027368D01*
X0265522Y0027382D01*
X0265681Y0027392D01*
X0265840Y0027398D01*
X0266000Y0027400D01*
X0266160Y0027398D01*
X0266319Y0027392D01*
X0266478Y0027382D01*
X0266637Y0027368D01*
X0266796Y0027350D01*
X0266954Y0027329D01*
X0267111Y0027303D01*
X0267268Y0027273D01*
X0267424Y0027240D01*
X0267579Y0027202D01*
X0267733Y0027161D01*
X0267886Y0027116D01*
X0268038Y0027067D01*
X0268189Y0027014D01*
X0268338Y0026958D01*
X0268486Y0026897D01*
X0268632Y0026834D01*
X0268777Y0026766D01*
X0268920Y0026695D01*
X0269061Y0026621D01*
X0269200Y0026543D01*
X0269337Y0026461D01*
X0269472Y0026376D01*
X0269605Y0026288D01*
X0269736Y0026196D01*
X0269864Y0026102D01*
X0269990Y0026004D01*
X0270114Y0025903D01*
X0270235Y0025799D01*
X0270353Y0025692D01*
X0270469Y0025582D01*
X0270582Y0025469D01*
X0270692Y0025353D01*
X0270799Y0025235D01*
X0270903Y0025114D01*
X0271004Y0024990D01*
X0271102Y0024864D01*
X0271196Y0024736D01*
X0271288Y0024605D01*
X0271376Y0024472D01*
X0271461Y0024337D01*
X0271543Y0024200D01*
X0271621Y0024061D01*
X0271695Y0023920D01*
X0271766Y0023777D01*
X0271834Y0023632D01*
X0271897Y0023486D01*
X0271958Y0023338D01*
X0272014Y0023189D01*
X0272067Y0023038D01*
X0272116Y0022886D01*
X0272161Y0022733D01*
X0272202Y0022579D01*
X0272240Y0022424D01*
X0272273Y0022268D01*
X0272303Y0022111D01*
X0272329Y0021954D01*
X0272350Y0021796D01*
X0272368Y0021637D01*
X0272382Y0021478D01*
X0272392Y0021319D01*
X0272398Y0021160D01*
X0272400Y0021000D01*
X0272398Y0020840D01*
X0272392Y0020681D01*
X0272382Y0020522D01*
X0272368Y0020363D01*
X0272350Y0020204D01*
X0272329Y0020046D01*
X0272303Y0019889D01*
X0272273Y0019732D01*
X0272240Y0019576D01*
X0272202Y0019421D01*
X0272161Y0019267D01*
X0272116Y0019114D01*
X0272067Y0018962D01*
X0272014Y0018811D01*
X0271958Y0018662D01*
X0271897Y0018514D01*
X0271834Y0018368D01*
X0271766Y0018223D01*
X0271695Y0018080D01*
X0271621Y0017939D01*
X0271543Y0017800D01*
X0271461Y0017663D01*
X0271376Y0017528D01*
X0271288Y0017395D01*
X0271196Y0017264D01*
X0271102Y0017136D01*
X0271004Y0017010D01*
X0270903Y0016886D01*
X0270799Y0016765D01*
X0270692Y0016647D01*
X0270582Y0016531D01*
X0270469Y0016418D01*
X0270353Y0016308D01*
X0270235Y0016201D01*
X0270114Y0016097D01*
X0269990Y0015996D01*
X0269864Y0015898D01*
X0269736Y0015804D01*
X0269605Y0015712D01*
X0269472Y0015624D01*
X0269337Y0015539D01*
X0269200Y0015457D01*
X0269061Y0015379D01*
X0268920Y0015305D01*
X0268777Y0015234D01*
X0268632Y0015166D01*
X0268486Y0015103D01*
X0268338Y0015042D01*
X0268189Y0014986D01*
X0268038Y0014933D01*
X0267886Y0014884D01*
X0267733Y0014839D01*
X0267579Y0014798D01*
X0267424Y0014760D01*
X0267268Y0014727D01*
X0267111Y0014697D01*
X0266954Y0014671D01*
X0266796Y0014650D01*
X0266637Y0014632D01*
X0266478Y0014618D01*
X0266319Y0014608D01*
X0266160Y0014602D01*
X0266000Y0014600D01*
X0265840Y0014602D01*
X0265681Y0014608D01*
X0265522Y0014618D01*
X0265363Y0014632D01*
X0265204Y0014650D01*
X0265046Y0014671D01*
X0264889Y0014697D01*
X0264732Y0014727D01*
X0264576Y0014760D01*
X0264421Y0014798D01*
X0264267Y0014839D01*
X0264114Y0014884D01*
X0263962Y0014933D01*
X0263811Y0014986D01*
X0263662Y0015042D01*
X0263514Y0015103D01*
X0263368Y0015166D01*
X0263223Y0015234D01*
X0263080Y0015305D01*
X0262939Y0015379D01*
X0262800Y0015457D01*
X0262663Y0015539D01*
X0262528Y0015624D01*
X0262395Y0015712D01*
X0262264Y0015804D01*
X0262136Y0015898D01*
X0262010Y0015996D01*
X0261886Y0016097D01*
X0261765Y0016201D01*
X0261647Y0016308D01*
X0261531Y0016418D01*
X0261418Y0016531D01*
X0261308Y0016647D01*
X0261201Y0016765D01*
X0261097Y0016886D01*
X0260996Y0017010D01*
X0260898Y0017136D01*
X0260804Y0017264D01*
X0260712Y0017395D01*
X0260624Y0017528D01*
X0260539Y0017663D01*
X0260457Y0017800D01*
X0260379Y0017939D01*
X0260305Y0018080D01*
X0260234Y0018223D01*
X0260166Y0018368D01*
X0260103Y0018514D01*
X0260042Y0018662D01*
X0259986Y0018811D01*
X0259933Y0018962D01*
X0259884Y0019114D01*
X0259839Y0019267D01*
X0259798Y0019421D01*
X0259760Y0019576D01*
X0259727Y0019732D01*
X0259697Y0019889D01*
X0259671Y0020046D01*
X0259650Y0020204D01*
X0259632Y0020363D01*
X0259618Y0020522D01*
X0259608Y0020681D01*
X0259602Y0020840D01*
X0259600Y0021000D01*
X0309600Y0021000D02*
X0309602Y0021160D01*
X0309608Y0021319D01*
X0309618Y0021478D01*
X0309632Y0021637D01*
X0309650Y0021796D01*
X0309671Y0021954D01*
X0309697Y0022111D01*
X0309727Y0022268D01*
X0309760Y0022424D01*
X0309798Y0022579D01*
X0309839Y0022733D01*
X0309884Y0022886D01*
X0309933Y0023038D01*
X0309986Y0023189D01*
X0310042Y0023338D01*
X0310103Y0023486D01*
X0310166Y0023632D01*
X0310234Y0023777D01*
X0310305Y0023920D01*
X0310379Y0024061D01*
X0310457Y0024200D01*
X0310539Y0024337D01*
X0310624Y0024472D01*
X0310712Y0024605D01*
X0310804Y0024736D01*
X0310898Y0024864D01*
X0310996Y0024990D01*
X0311097Y0025114D01*
X0311201Y0025235D01*
X0311308Y0025353D01*
X0311418Y0025469D01*
X0311531Y0025582D01*
X0311647Y0025692D01*
X0311765Y0025799D01*
X0311886Y0025903D01*
X0312010Y0026004D01*
X0312136Y0026102D01*
X0312264Y0026196D01*
X0312395Y0026288D01*
X0312528Y0026376D01*
X0312663Y0026461D01*
X0312800Y0026543D01*
X0312939Y0026621D01*
X0313080Y0026695D01*
X0313223Y0026766D01*
X0313368Y0026834D01*
X0313514Y0026897D01*
X0313662Y0026958D01*
X0313811Y0027014D01*
X0313962Y0027067D01*
X0314114Y0027116D01*
X0314267Y0027161D01*
X0314421Y0027202D01*
X0314576Y0027240D01*
X0314732Y0027273D01*
X0314889Y0027303D01*
X0315046Y0027329D01*
X0315204Y0027350D01*
X0315363Y0027368D01*
X0315522Y0027382D01*
X0315681Y0027392D01*
X0315840Y0027398D01*
X0316000Y0027400D01*
X0316160Y0027398D01*
X0316319Y0027392D01*
X0316478Y0027382D01*
X0316637Y0027368D01*
X0316796Y0027350D01*
X0316954Y0027329D01*
X0317111Y0027303D01*
X0317268Y0027273D01*
X0317424Y0027240D01*
X0317579Y0027202D01*
X0317733Y0027161D01*
X0317886Y0027116D01*
X0318038Y0027067D01*
X0318189Y0027014D01*
X0318338Y0026958D01*
X0318486Y0026897D01*
X0318632Y0026834D01*
X0318777Y0026766D01*
X0318920Y0026695D01*
X0319061Y0026621D01*
X0319200Y0026543D01*
X0319337Y0026461D01*
X0319472Y0026376D01*
X0319605Y0026288D01*
X0319736Y0026196D01*
X0319864Y0026102D01*
X0319990Y0026004D01*
X0320114Y0025903D01*
X0320235Y0025799D01*
X0320353Y0025692D01*
X0320469Y0025582D01*
X0320582Y0025469D01*
X0320692Y0025353D01*
X0320799Y0025235D01*
X0320903Y0025114D01*
X0321004Y0024990D01*
X0321102Y0024864D01*
X0321196Y0024736D01*
X0321288Y0024605D01*
X0321376Y0024472D01*
X0321461Y0024337D01*
X0321543Y0024200D01*
X0321621Y0024061D01*
X0321695Y0023920D01*
X0321766Y0023777D01*
X0321834Y0023632D01*
X0321897Y0023486D01*
X0321958Y0023338D01*
X0322014Y0023189D01*
X0322067Y0023038D01*
X0322116Y0022886D01*
X0322161Y0022733D01*
X0322202Y0022579D01*
X0322240Y0022424D01*
X0322273Y0022268D01*
X0322303Y0022111D01*
X0322329Y0021954D01*
X0322350Y0021796D01*
X0322368Y0021637D01*
X0322382Y0021478D01*
X0322392Y0021319D01*
X0322398Y0021160D01*
X0322400Y0021000D01*
X0322398Y0020840D01*
X0322392Y0020681D01*
X0322382Y0020522D01*
X0322368Y0020363D01*
X0322350Y0020204D01*
X0322329Y0020046D01*
X0322303Y0019889D01*
X0322273Y0019732D01*
X0322240Y0019576D01*
X0322202Y0019421D01*
X0322161Y0019267D01*
X0322116Y0019114D01*
X0322067Y0018962D01*
X0322014Y0018811D01*
X0321958Y0018662D01*
X0321897Y0018514D01*
X0321834Y0018368D01*
X0321766Y0018223D01*
X0321695Y0018080D01*
X0321621Y0017939D01*
X0321543Y0017800D01*
X0321461Y0017663D01*
X0321376Y0017528D01*
X0321288Y0017395D01*
X0321196Y0017264D01*
X0321102Y0017136D01*
X0321004Y0017010D01*
X0320903Y0016886D01*
X0320799Y0016765D01*
X0320692Y0016647D01*
X0320582Y0016531D01*
X0320469Y0016418D01*
X0320353Y0016308D01*
X0320235Y0016201D01*
X0320114Y0016097D01*
X0319990Y0015996D01*
X0319864Y0015898D01*
X0319736Y0015804D01*
X0319605Y0015712D01*
X0319472Y0015624D01*
X0319337Y0015539D01*
X0319200Y0015457D01*
X0319061Y0015379D01*
X0318920Y0015305D01*
X0318777Y0015234D01*
X0318632Y0015166D01*
X0318486Y0015103D01*
X0318338Y0015042D01*
X0318189Y0014986D01*
X0318038Y0014933D01*
X0317886Y0014884D01*
X0317733Y0014839D01*
X0317579Y0014798D01*
X0317424Y0014760D01*
X0317268Y0014727D01*
X0317111Y0014697D01*
X0316954Y0014671D01*
X0316796Y0014650D01*
X0316637Y0014632D01*
X0316478Y0014618D01*
X0316319Y0014608D01*
X0316160Y0014602D01*
X0316000Y0014600D01*
X0315840Y0014602D01*
X0315681Y0014608D01*
X0315522Y0014618D01*
X0315363Y0014632D01*
X0315204Y0014650D01*
X0315046Y0014671D01*
X0314889Y0014697D01*
X0314732Y0014727D01*
X0314576Y0014760D01*
X0314421Y0014798D01*
X0314267Y0014839D01*
X0314114Y0014884D01*
X0313962Y0014933D01*
X0313811Y0014986D01*
X0313662Y0015042D01*
X0313514Y0015103D01*
X0313368Y0015166D01*
X0313223Y0015234D01*
X0313080Y0015305D01*
X0312939Y0015379D01*
X0312800Y0015457D01*
X0312663Y0015539D01*
X0312528Y0015624D01*
X0312395Y0015712D01*
X0312264Y0015804D01*
X0312136Y0015898D01*
X0312010Y0015996D01*
X0311886Y0016097D01*
X0311765Y0016201D01*
X0311647Y0016308D01*
X0311531Y0016418D01*
X0311418Y0016531D01*
X0311308Y0016647D01*
X0311201Y0016765D01*
X0311097Y0016886D01*
X0310996Y0017010D01*
X0310898Y0017136D01*
X0310804Y0017264D01*
X0310712Y0017395D01*
X0310624Y0017528D01*
X0310539Y0017663D01*
X0310457Y0017800D01*
X0310379Y0017939D01*
X0310305Y0018080D01*
X0310234Y0018223D01*
X0310166Y0018368D01*
X0310103Y0018514D01*
X0310042Y0018662D01*
X0309986Y0018811D01*
X0309933Y0018962D01*
X0309884Y0019114D01*
X0309839Y0019267D01*
X0309798Y0019421D01*
X0309760Y0019576D01*
X0309727Y0019732D01*
X0309697Y0019889D01*
X0309671Y0020046D01*
X0309650Y0020204D01*
X0309632Y0020363D01*
X0309618Y0020522D01*
X0309608Y0020681D01*
X0309602Y0020840D01*
X0309600Y0021000D01*
X0354701Y0086000D02*
X0354703Y0086158D01*
X0354709Y0086316D01*
X0354719Y0086474D01*
X0354733Y0086632D01*
X0354751Y0086789D01*
X0354772Y0086946D01*
X0354798Y0087102D01*
X0354828Y0087258D01*
X0354861Y0087413D01*
X0354899Y0087566D01*
X0354940Y0087719D01*
X0354985Y0087871D01*
X0355034Y0088022D01*
X0355087Y0088171D01*
X0355143Y0088319D01*
X0355203Y0088465D01*
X0355267Y0088610D01*
X0355335Y0088753D01*
X0355406Y0088895D01*
X0355480Y0089035D01*
X0355558Y0089172D01*
X0355640Y0089308D01*
X0355724Y0089442D01*
X0355813Y0089573D01*
X0355904Y0089702D01*
X0355999Y0089829D01*
X0356096Y0089954D01*
X0356197Y0090076D01*
X0356301Y0090195D01*
X0356408Y0090312D01*
X0356518Y0090426D01*
X0356631Y0090537D01*
X0356746Y0090646D01*
X0356864Y0090751D01*
X0356985Y0090853D01*
X0357108Y0090953D01*
X0357234Y0091049D01*
X0357362Y0091142D01*
X0357492Y0091232D01*
X0357625Y0091318D01*
X0357760Y0091402D01*
X0357896Y0091481D01*
X0358035Y0091558D01*
X0358176Y0091630D01*
X0358318Y0091700D01*
X0358462Y0091765D01*
X0358608Y0091827D01*
X0358755Y0091885D01*
X0358904Y0091940D01*
X0359054Y0091991D01*
X0359205Y0092038D01*
X0359357Y0092081D01*
X0359510Y0092120D01*
X0359665Y0092156D01*
X0359820Y0092187D01*
X0359976Y0092215D01*
X0360132Y0092239D01*
X0360289Y0092259D01*
X0360447Y0092275D01*
X0360604Y0092287D01*
X0360763Y0092295D01*
X0360921Y0092299D01*
X0361079Y0092299D01*
X0361237Y0092295D01*
X0361396Y0092287D01*
X0361553Y0092275D01*
X0361711Y0092259D01*
X0361868Y0092239D01*
X0362024Y0092215D01*
X0362180Y0092187D01*
X0362335Y0092156D01*
X0362490Y0092120D01*
X0362643Y0092081D01*
X0362795Y0092038D01*
X0362946Y0091991D01*
X0363096Y0091940D01*
X0363245Y0091885D01*
X0363392Y0091827D01*
X0363538Y0091765D01*
X0363682Y0091700D01*
X0363824Y0091630D01*
X0363965Y0091558D01*
X0364104Y0091481D01*
X0364240Y0091402D01*
X0364375Y0091318D01*
X0364508Y0091232D01*
X0364638Y0091142D01*
X0364766Y0091049D01*
X0364892Y0090953D01*
X0365015Y0090853D01*
X0365136Y0090751D01*
X0365254Y0090646D01*
X0365369Y0090537D01*
X0365482Y0090426D01*
X0365592Y0090312D01*
X0365699Y0090195D01*
X0365803Y0090076D01*
X0365904Y0089954D01*
X0366001Y0089829D01*
X0366096Y0089702D01*
X0366187Y0089573D01*
X0366276Y0089442D01*
X0366360Y0089308D01*
X0366442Y0089172D01*
X0366520Y0089035D01*
X0366594Y0088895D01*
X0366665Y0088753D01*
X0366733Y0088610D01*
X0366797Y0088465D01*
X0366857Y0088319D01*
X0366913Y0088171D01*
X0366966Y0088022D01*
X0367015Y0087871D01*
X0367060Y0087719D01*
X0367101Y0087566D01*
X0367139Y0087413D01*
X0367172Y0087258D01*
X0367202Y0087102D01*
X0367228Y0086946D01*
X0367249Y0086789D01*
X0367267Y0086632D01*
X0367281Y0086474D01*
X0367291Y0086316D01*
X0367297Y0086158D01*
X0367299Y0086000D01*
X0367297Y0085842D01*
X0367291Y0085684D01*
X0367281Y0085526D01*
X0367267Y0085368D01*
X0367249Y0085211D01*
X0367228Y0085054D01*
X0367202Y0084898D01*
X0367172Y0084742D01*
X0367139Y0084587D01*
X0367101Y0084434D01*
X0367060Y0084281D01*
X0367015Y0084129D01*
X0366966Y0083978D01*
X0366913Y0083829D01*
X0366857Y0083681D01*
X0366797Y0083535D01*
X0366733Y0083390D01*
X0366665Y0083247D01*
X0366594Y0083105D01*
X0366520Y0082965D01*
X0366442Y0082828D01*
X0366360Y0082692D01*
X0366276Y0082558D01*
X0366187Y0082427D01*
X0366096Y0082298D01*
X0366001Y0082171D01*
X0365904Y0082046D01*
X0365803Y0081924D01*
X0365699Y0081805D01*
X0365592Y0081688D01*
X0365482Y0081574D01*
X0365369Y0081463D01*
X0365254Y0081354D01*
X0365136Y0081249D01*
X0365015Y0081147D01*
X0364892Y0081047D01*
X0364766Y0080951D01*
X0364638Y0080858D01*
X0364508Y0080768D01*
X0364375Y0080682D01*
X0364240Y0080598D01*
X0364104Y0080519D01*
X0363965Y0080442D01*
X0363824Y0080370D01*
X0363682Y0080300D01*
X0363538Y0080235D01*
X0363392Y0080173D01*
X0363245Y0080115D01*
X0363096Y0080060D01*
X0362946Y0080009D01*
X0362795Y0079962D01*
X0362643Y0079919D01*
X0362490Y0079880D01*
X0362335Y0079844D01*
X0362180Y0079813D01*
X0362024Y0079785D01*
X0361868Y0079761D01*
X0361711Y0079741D01*
X0361553Y0079725D01*
X0361396Y0079713D01*
X0361237Y0079705D01*
X0361079Y0079701D01*
X0360921Y0079701D01*
X0360763Y0079705D01*
X0360604Y0079713D01*
X0360447Y0079725D01*
X0360289Y0079741D01*
X0360132Y0079761D01*
X0359976Y0079785D01*
X0359820Y0079813D01*
X0359665Y0079844D01*
X0359510Y0079880D01*
X0359357Y0079919D01*
X0359205Y0079962D01*
X0359054Y0080009D01*
X0358904Y0080060D01*
X0358755Y0080115D01*
X0358608Y0080173D01*
X0358462Y0080235D01*
X0358318Y0080300D01*
X0358176Y0080370D01*
X0358035Y0080442D01*
X0357896Y0080519D01*
X0357760Y0080598D01*
X0357625Y0080682D01*
X0357492Y0080768D01*
X0357362Y0080858D01*
X0357234Y0080951D01*
X0357108Y0081047D01*
X0356985Y0081147D01*
X0356864Y0081249D01*
X0356746Y0081354D01*
X0356631Y0081463D01*
X0356518Y0081574D01*
X0356408Y0081688D01*
X0356301Y0081805D01*
X0356197Y0081924D01*
X0356096Y0082046D01*
X0355999Y0082171D01*
X0355904Y0082298D01*
X0355813Y0082427D01*
X0355724Y0082558D01*
X0355640Y0082692D01*
X0355558Y0082828D01*
X0355480Y0082965D01*
X0355406Y0083105D01*
X0355335Y0083247D01*
X0355267Y0083390D01*
X0355203Y0083535D01*
X0355143Y0083681D01*
X0355087Y0083829D01*
X0355034Y0083978D01*
X0354985Y0084129D01*
X0354940Y0084281D01*
X0354899Y0084434D01*
X0354861Y0084587D01*
X0354828Y0084742D01*
X0354798Y0084898D01*
X0354772Y0085054D01*
X0354751Y0085211D01*
X0354733Y0085368D01*
X0354719Y0085526D01*
X0354709Y0085684D01*
X0354703Y0085842D01*
X0354701Y0086000D01*
X0184701Y0086000D02*
X0184703Y0086158D01*
X0184709Y0086316D01*
X0184719Y0086474D01*
X0184733Y0086632D01*
X0184751Y0086789D01*
X0184772Y0086946D01*
X0184798Y0087102D01*
X0184828Y0087258D01*
X0184861Y0087413D01*
X0184899Y0087566D01*
X0184940Y0087719D01*
X0184985Y0087871D01*
X0185034Y0088022D01*
X0185087Y0088171D01*
X0185143Y0088319D01*
X0185203Y0088465D01*
X0185267Y0088610D01*
X0185335Y0088753D01*
X0185406Y0088895D01*
X0185480Y0089035D01*
X0185558Y0089172D01*
X0185640Y0089308D01*
X0185724Y0089442D01*
X0185813Y0089573D01*
X0185904Y0089702D01*
X0185999Y0089829D01*
X0186096Y0089954D01*
X0186197Y0090076D01*
X0186301Y0090195D01*
X0186408Y0090312D01*
X0186518Y0090426D01*
X0186631Y0090537D01*
X0186746Y0090646D01*
X0186864Y0090751D01*
X0186985Y0090853D01*
X0187108Y0090953D01*
X0187234Y0091049D01*
X0187362Y0091142D01*
X0187492Y0091232D01*
X0187625Y0091318D01*
X0187760Y0091402D01*
X0187896Y0091481D01*
X0188035Y0091558D01*
X0188176Y0091630D01*
X0188318Y0091700D01*
X0188462Y0091765D01*
X0188608Y0091827D01*
X0188755Y0091885D01*
X0188904Y0091940D01*
X0189054Y0091991D01*
X0189205Y0092038D01*
X0189357Y0092081D01*
X0189510Y0092120D01*
X0189665Y0092156D01*
X0189820Y0092187D01*
X0189976Y0092215D01*
X0190132Y0092239D01*
X0190289Y0092259D01*
X0190447Y0092275D01*
X0190604Y0092287D01*
X0190763Y0092295D01*
X0190921Y0092299D01*
X0191079Y0092299D01*
X0191237Y0092295D01*
X0191396Y0092287D01*
X0191553Y0092275D01*
X0191711Y0092259D01*
X0191868Y0092239D01*
X0192024Y0092215D01*
X0192180Y0092187D01*
X0192335Y0092156D01*
X0192490Y0092120D01*
X0192643Y0092081D01*
X0192795Y0092038D01*
X0192946Y0091991D01*
X0193096Y0091940D01*
X0193245Y0091885D01*
X0193392Y0091827D01*
X0193538Y0091765D01*
X0193682Y0091700D01*
X0193824Y0091630D01*
X0193965Y0091558D01*
X0194104Y0091481D01*
X0194240Y0091402D01*
X0194375Y0091318D01*
X0194508Y0091232D01*
X0194638Y0091142D01*
X0194766Y0091049D01*
X0194892Y0090953D01*
X0195015Y0090853D01*
X0195136Y0090751D01*
X0195254Y0090646D01*
X0195369Y0090537D01*
X0195482Y0090426D01*
X0195592Y0090312D01*
X0195699Y0090195D01*
X0195803Y0090076D01*
X0195904Y0089954D01*
X0196001Y0089829D01*
X0196096Y0089702D01*
X0196187Y0089573D01*
X0196276Y0089442D01*
X0196360Y0089308D01*
X0196442Y0089172D01*
X0196520Y0089035D01*
X0196594Y0088895D01*
X0196665Y0088753D01*
X0196733Y0088610D01*
X0196797Y0088465D01*
X0196857Y0088319D01*
X0196913Y0088171D01*
X0196966Y0088022D01*
X0197015Y0087871D01*
X0197060Y0087719D01*
X0197101Y0087566D01*
X0197139Y0087413D01*
X0197172Y0087258D01*
X0197202Y0087102D01*
X0197228Y0086946D01*
X0197249Y0086789D01*
X0197267Y0086632D01*
X0197281Y0086474D01*
X0197291Y0086316D01*
X0197297Y0086158D01*
X0197299Y0086000D01*
X0197297Y0085842D01*
X0197291Y0085684D01*
X0197281Y0085526D01*
X0197267Y0085368D01*
X0197249Y0085211D01*
X0197228Y0085054D01*
X0197202Y0084898D01*
X0197172Y0084742D01*
X0197139Y0084587D01*
X0197101Y0084434D01*
X0197060Y0084281D01*
X0197015Y0084129D01*
X0196966Y0083978D01*
X0196913Y0083829D01*
X0196857Y0083681D01*
X0196797Y0083535D01*
X0196733Y0083390D01*
X0196665Y0083247D01*
X0196594Y0083105D01*
X0196520Y0082965D01*
X0196442Y0082828D01*
X0196360Y0082692D01*
X0196276Y0082558D01*
X0196187Y0082427D01*
X0196096Y0082298D01*
X0196001Y0082171D01*
X0195904Y0082046D01*
X0195803Y0081924D01*
X0195699Y0081805D01*
X0195592Y0081688D01*
X0195482Y0081574D01*
X0195369Y0081463D01*
X0195254Y0081354D01*
X0195136Y0081249D01*
X0195015Y0081147D01*
X0194892Y0081047D01*
X0194766Y0080951D01*
X0194638Y0080858D01*
X0194508Y0080768D01*
X0194375Y0080682D01*
X0194240Y0080598D01*
X0194104Y0080519D01*
X0193965Y0080442D01*
X0193824Y0080370D01*
X0193682Y0080300D01*
X0193538Y0080235D01*
X0193392Y0080173D01*
X0193245Y0080115D01*
X0193096Y0080060D01*
X0192946Y0080009D01*
X0192795Y0079962D01*
X0192643Y0079919D01*
X0192490Y0079880D01*
X0192335Y0079844D01*
X0192180Y0079813D01*
X0192024Y0079785D01*
X0191868Y0079761D01*
X0191711Y0079741D01*
X0191553Y0079725D01*
X0191396Y0079713D01*
X0191237Y0079705D01*
X0191079Y0079701D01*
X0190921Y0079701D01*
X0190763Y0079705D01*
X0190604Y0079713D01*
X0190447Y0079725D01*
X0190289Y0079741D01*
X0190132Y0079761D01*
X0189976Y0079785D01*
X0189820Y0079813D01*
X0189665Y0079844D01*
X0189510Y0079880D01*
X0189357Y0079919D01*
X0189205Y0079962D01*
X0189054Y0080009D01*
X0188904Y0080060D01*
X0188755Y0080115D01*
X0188608Y0080173D01*
X0188462Y0080235D01*
X0188318Y0080300D01*
X0188176Y0080370D01*
X0188035Y0080442D01*
X0187896Y0080519D01*
X0187760Y0080598D01*
X0187625Y0080682D01*
X0187492Y0080768D01*
X0187362Y0080858D01*
X0187234Y0080951D01*
X0187108Y0081047D01*
X0186985Y0081147D01*
X0186864Y0081249D01*
X0186746Y0081354D01*
X0186631Y0081463D01*
X0186518Y0081574D01*
X0186408Y0081688D01*
X0186301Y0081805D01*
X0186197Y0081924D01*
X0186096Y0082046D01*
X0185999Y0082171D01*
X0185904Y0082298D01*
X0185813Y0082427D01*
X0185724Y0082558D01*
X0185640Y0082692D01*
X0185558Y0082828D01*
X0185480Y0082965D01*
X0185406Y0083105D01*
X0185335Y0083247D01*
X0185267Y0083390D01*
X0185203Y0083535D01*
X0185143Y0083681D01*
X0185087Y0083829D01*
X0185034Y0083978D01*
X0184985Y0084129D01*
X0184940Y0084281D01*
X0184899Y0084434D01*
X0184861Y0084587D01*
X0184828Y0084742D01*
X0184798Y0084898D01*
X0184772Y0085054D01*
X0184751Y0085211D01*
X0184733Y0085368D01*
X0184719Y0085526D01*
X0184709Y0085684D01*
X0184703Y0085842D01*
X0184701Y0086000D01*
X0184701Y0166000D02*
X0184703Y0166158D01*
X0184709Y0166316D01*
X0184719Y0166474D01*
X0184733Y0166632D01*
X0184751Y0166789D01*
X0184772Y0166946D01*
X0184798Y0167102D01*
X0184828Y0167258D01*
X0184861Y0167413D01*
X0184899Y0167566D01*
X0184940Y0167719D01*
X0184985Y0167871D01*
X0185034Y0168022D01*
X0185087Y0168171D01*
X0185143Y0168319D01*
X0185203Y0168465D01*
X0185267Y0168610D01*
X0185335Y0168753D01*
X0185406Y0168895D01*
X0185480Y0169035D01*
X0185558Y0169172D01*
X0185640Y0169308D01*
X0185724Y0169442D01*
X0185813Y0169573D01*
X0185904Y0169702D01*
X0185999Y0169829D01*
X0186096Y0169954D01*
X0186197Y0170076D01*
X0186301Y0170195D01*
X0186408Y0170312D01*
X0186518Y0170426D01*
X0186631Y0170537D01*
X0186746Y0170646D01*
X0186864Y0170751D01*
X0186985Y0170853D01*
X0187108Y0170953D01*
X0187234Y0171049D01*
X0187362Y0171142D01*
X0187492Y0171232D01*
X0187625Y0171318D01*
X0187760Y0171402D01*
X0187896Y0171481D01*
X0188035Y0171558D01*
X0188176Y0171630D01*
X0188318Y0171700D01*
X0188462Y0171765D01*
X0188608Y0171827D01*
X0188755Y0171885D01*
X0188904Y0171940D01*
X0189054Y0171991D01*
X0189205Y0172038D01*
X0189357Y0172081D01*
X0189510Y0172120D01*
X0189665Y0172156D01*
X0189820Y0172187D01*
X0189976Y0172215D01*
X0190132Y0172239D01*
X0190289Y0172259D01*
X0190447Y0172275D01*
X0190604Y0172287D01*
X0190763Y0172295D01*
X0190921Y0172299D01*
X0191079Y0172299D01*
X0191237Y0172295D01*
X0191396Y0172287D01*
X0191553Y0172275D01*
X0191711Y0172259D01*
X0191868Y0172239D01*
X0192024Y0172215D01*
X0192180Y0172187D01*
X0192335Y0172156D01*
X0192490Y0172120D01*
X0192643Y0172081D01*
X0192795Y0172038D01*
X0192946Y0171991D01*
X0193096Y0171940D01*
X0193245Y0171885D01*
X0193392Y0171827D01*
X0193538Y0171765D01*
X0193682Y0171700D01*
X0193824Y0171630D01*
X0193965Y0171558D01*
X0194104Y0171481D01*
X0194240Y0171402D01*
X0194375Y0171318D01*
X0194508Y0171232D01*
X0194638Y0171142D01*
X0194766Y0171049D01*
X0194892Y0170953D01*
X0195015Y0170853D01*
X0195136Y0170751D01*
X0195254Y0170646D01*
X0195369Y0170537D01*
X0195482Y0170426D01*
X0195592Y0170312D01*
X0195699Y0170195D01*
X0195803Y0170076D01*
X0195904Y0169954D01*
X0196001Y0169829D01*
X0196096Y0169702D01*
X0196187Y0169573D01*
X0196276Y0169442D01*
X0196360Y0169308D01*
X0196442Y0169172D01*
X0196520Y0169035D01*
X0196594Y0168895D01*
X0196665Y0168753D01*
X0196733Y0168610D01*
X0196797Y0168465D01*
X0196857Y0168319D01*
X0196913Y0168171D01*
X0196966Y0168022D01*
X0197015Y0167871D01*
X0197060Y0167719D01*
X0197101Y0167566D01*
X0197139Y0167413D01*
X0197172Y0167258D01*
X0197202Y0167102D01*
X0197228Y0166946D01*
X0197249Y0166789D01*
X0197267Y0166632D01*
X0197281Y0166474D01*
X0197291Y0166316D01*
X0197297Y0166158D01*
X0197299Y0166000D01*
X0197297Y0165842D01*
X0197291Y0165684D01*
X0197281Y0165526D01*
X0197267Y0165368D01*
X0197249Y0165211D01*
X0197228Y0165054D01*
X0197202Y0164898D01*
X0197172Y0164742D01*
X0197139Y0164587D01*
X0197101Y0164434D01*
X0197060Y0164281D01*
X0197015Y0164129D01*
X0196966Y0163978D01*
X0196913Y0163829D01*
X0196857Y0163681D01*
X0196797Y0163535D01*
X0196733Y0163390D01*
X0196665Y0163247D01*
X0196594Y0163105D01*
X0196520Y0162965D01*
X0196442Y0162828D01*
X0196360Y0162692D01*
X0196276Y0162558D01*
X0196187Y0162427D01*
X0196096Y0162298D01*
X0196001Y0162171D01*
X0195904Y0162046D01*
X0195803Y0161924D01*
X0195699Y0161805D01*
X0195592Y0161688D01*
X0195482Y0161574D01*
X0195369Y0161463D01*
X0195254Y0161354D01*
X0195136Y0161249D01*
X0195015Y0161147D01*
X0194892Y0161047D01*
X0194766Y0160951D01*
X0194638Y0160858D01*
X0194508Y0160768D01*
X0194375Y0160682D01*
X0194240Y0160598D01*
X0194104Y0160519D01*
X0193965Y0160442D01*
X0193824Y0160370D01*
X0193682Y0160300D01*
X0193538Y0160235D01*
X0193392Y0160173D01*
X0193245Y0160115D01*
X0193096Y0160060D01*
X0192946Y0160009D01*
X0192795Y0159962D01*
X0192643Y0159919D01*
X0192490Y0159880D01*
X0192335Y0159844D01*
X0192180Y0159813D01*
X0192024Y0159785D01*
X0191868Y0159761D01*
X0191711Y0159741D01*
X0191553Y0159725D01*
X0191396Y0159713D01*
X0191237Y0159705D01*
X0191079Y0159701D01*
X0190921Y0159701D01*
X0190763Y0159705D01*
X0190604Y0159713D01*
X0190447Y0159725D01*
X0190289Y0159741D01*
X0190132Y0159761D01*
X0189976Y0159785D01*
X0189820Y0159813D01*
X0189665Y0159844D01*
X0189510Y0159880D01*
X0189357Y0159919D01*
X0189205Y0159962D01*
X0189054Y0160009D01*
X0188904Y0160060D01*
X0188755Y0160115D01*
X0188608Y0160173D01*
X0188462Y0160235D01*
X0188318Y0160300D01*
X0188176Y0160370D01*
X0188035Y0160442D01*
X0187896Y0160519D01*
X0187760Y0160598D01*
X0187625Y0160682D01*
X0187492Y0160768D01*
X0187362Y0160858D01*
X0187234Y0160951D01*
X0187108Y0161047D01*
X0186985Y0161147D01*
X0186864Y0161249D01*
X0186746Y0161354D01*
X0186631Y0161463D01*
X0186518Y0161574D01*
X0186408Y0161688D01*
X0186301Y0161805D01*
X0186197Y0161924D01*
X0186096Y0162046D01*
X0185999Y0162171D01*
X0185904Y0162298D01*
X0185813Y0162427D01*
X0185724Y0162558D01*
X0185640Y0162692D01*
X0185558Y0162828D01*
X0185480Y0162965D01*
X0185406Y0163105D01*
X0185335Y0163247D01*
X0185267Y0163390D01*
X0185203Y0163535D01*
X0185143Y0163681D01*
X0185087Y0163829D01*
X0185034Y0163978D01*
X0184985Y0164129D01*
X0184940Y0164281D01*
X0184899Y0164434D01*
X0184861Y0164587D01*
X0184828Y0164742D01*
X0184798Y0164898D01*
X0184772Y0165054D01*
X0184751Y0165211D01*
X0184733Y0165368D01*
X0184719Y0165526D01*
X0184709Y0165684D01*
X0184703Y0165842D01*
X0184701Y0166000D01*
X0354701Y0166000D02*
X0354703Y0166158D01*
X0354709Y0166316D01*
X0354719Y0166474D01*
X0354733Y0166632D01*
X0354751Y0166789D01*
X0354772Y0166946D01*
X0354798Y0167102D01*
X0354828Y0167258D01*
X0354861Y0167413D01*
X0354899Y0167566D01*
X0354940Y0167719D01*
X0354985Y0167871D01*
X0355034Y0168022D01*
X0355087Y0168171D01*
X0355143Y0168319D01*
X0355203Y0168465D01*
X0355267Y0168610D01*
X0355335Y0168753D01*
X0355406Y0168895D01*
X0355480Y0169035D01*
X0355558Y0169172D01*
X0355640Y0169308D01*
X0355724Y0169442D01*
X0355813Y0169573D01*
X0355904Y0169702D01*
X0355999Y0169829D01*
X0356096Y0169954D01*
X0356197Y0170076D01*
X0356301Y0170195D01*
X0356408Y0170312D01*
X0356518Y0170426D01*
X0356631Y0170537D01*
X0356746Y0170646D01*
X0356864Y0170751D01*
X0356985Y0170853D01*
X0357108Y0170953D01*
X0357234Y0171049D01*
X0357362Y0171142D01*
X0357492Y0171232D01*
X0357625Y0171318D01*
X0357760Y0171402D01*
X0357896Y0171481D01*
X0358035Y0171558D01*
X0358176Y0171630D01*
X0358318Y0171700D01*
X0358462Y0171765D01*
X0358608Y0171827D01*
X0358755Y0171885D01*
X0358904Y0171940D01*
X0359054Y0171991D01*
X0359205Y0172038D01*
X0359357Y0172081D01*
X0359510Y0172120D01*
X0359665Y0172156D01*
X0359820Y0172187D01*
X0359976Y0172215D01*
X0360132Y0172239D01*
X0360289Y0172259D01*
X0360447Y0172275D01*
X0360604Y0172287D01*
X0360763Y0172295D01*
X0360921Y0172299D01*
X0361079Y0172299D01*
X0361237Y0172295D01*
X0361396Y0172287D01*
X0361553Y0172275D01*
X0361711Y0172259D01*
X0361868Y0172239D01*
X0362024Y0172215D01*
X0362180Y0172187D01*
X0362335Y0172156D01*
X0362490Y0172120D01*
X0362643Y0172081D01*
X0362795Y0172038D01*
X0362946Y0171991D01*
X0363096Y0171940D01*
X0363245Y0171885D01*
X0363392Y0171827D01*
X0363538Y0171765D01*
X0363682Y0171700D01*
X0363824Y0171630D01*
X0363965Y0171558D01*
X0364104Y0171481D01*
X0364240Y0171402D01*
X0364375Y0171318D01*
X0364508Y0171232D01*
X0364638Y0171142D01*
X0364766Y0171049D01*
X0364892Y0170953D01*
X0365015Y0170853D01*
X0365136Y0170751D01*
X0365254Y0170646D01*
X0365369Y0170537D01*
X0365482Y0170426D01*
X0365592Y0170312D01*
X0365699Y0170195D01*
X0365803Y0170076D01*
X0365904Y0169954D01*
X0366001Y0169829D01*
X0366096Y0169702D01*
X0366187Y0169573D01*
X0366276Y0169442D01*
X0366360Y0169308D01*
X0366442Y0169172D01*
X0366520Y0169035D01*
X0366594Y0168895D01*
X0366665Y0168753D01*
X0366733Y0168610D01*
X0366797Y0168465D01*
X0366857Y0168319D01*
X0366913Y0168171D01*
X0366966Y0168022D01*
X0367015Y0167871D01*
X0367060Y0167719D01*
X0367101Y0167566D01*
X0367139Y0167413D01*
X0367172Y0167258D01*
X0367202Y0167102D01*
X0367228Y0166946D01*
X0367249Y0166789D01*
X0367267Y0166632D01*
X0367281Y0166474D01*
X0367291Y0166316D01*
X0367297Y0166158D01*
X0367299Y0166000D01*
X0367297Y0165842D01*
X0367291Y0165684D01*
X0367281Y0165526D01*
X0367267Y0165368D01*
X0367249Y0165211D01*
X0367228Y0165054D01*
X0367202Y0164898D01*
X0367172Y0164742D01*
X0367139Y0164587D01*
X0367101Y0164434D01*
X0367060Y0164281D01*
X0367015Y0164129D01*
X0366966Y0163978D01*
X0366913Y0163829D01*
X0366857Y0163681D01*
X0366797Y0163535D01*
X0366733Y0163390D01*
X0366665Y0163247D01*
X0366594Y0163105D01*
X0366520Y0162965D01*
X0366442Y0162828D01*
X0366360Y0162692D01*
X0366276Y0162558D01*
X0366187Y0162427D01*
X0366096Y0162298D01*
X0366001Y0162171D01*
X0365904Y0162046D01*
X0365803Y0161924D01*
X0365699Y0161805D01*
X0365592Y0161688D01*
X0365482Y0161574D01*
X0365369Y0161463D01*
X0365254Y0161354D01*
X0365136Y0161249D01*
X0365015Y0161147D01*
X0364892Y0161047D01*
X0364766Y0160951D01*
X0364638Y0160858D01*
X0364508Y0160768D01*
X0364375Y0160682D01*
X0364240Y0160598D01*
X0364104Y0160519D01*
X0363965Y0160442D01*
X0363824Y0160370D01*
X0363682Y0160300D01*
X0363538Y0160235D01*
X0363392Y0160173D01*
X0363245Y0160115D01*
X0363096Y0160060D01*
X0362946Y0160009D01*
X0362795Y0159962D01*
X0362643Y0159919D01*
X0362490Y0159880D01*
X0362335Y0159844D01*
X0362180Y0159813D01*
X0362024Y0159785D01*
X0361868Y0159761D01*
X0361711Y0159741D01*
X0361553Y0159725D01*
X0361396Y0159713D01*
X0361237Y0159705D01*
X0361079Y0159701D01*
X0360921Y0159701D01*
X0360763Y0159705D01*
X0360604Y0159713D01*
X0360447Y0159725D01*
X0360289Y0159741D01*
X0360132Y0159761D01*
X0359976Y0159785D01*
X0359820Y0159813D01*
X0359665Y0159844D01*
X0359510Y0159880D01*
X0359357Y0159919D01*
X0359205Y0159962D01*
X0359054Y0160009D01*
X0358904Y0160060D01*
X0358755Y0160115D01*
X0358608Y0160173D01*
X0358462Y0160235D01*
X0358318Y0160300D01*
X0358176Y0160370D01*
X0358035Y0160442D01*
X0357896Y0160519D01*
X0357760Y0160598D01*
X0357625Y0160682D01*
X0357492Y0160768D01*
X0357362Y0160858D01*
X0357234Y0160951D01*
X0357108Y0161047D01*
X0356985Y0161147D01*
X0356864Y0161249D01*
X0356746Y0161354D01*
X0356631Y0161463D01*
X0356518Y0161574D01*
X0356408Y0161688D01*
X0356301Y0161805D01*
X0356197Y0161924D01*
X0356096Y0162046D01*
X0355999Y0162171D01*
X0355904Y0162298D01*
X0355813Y0162427D01*
X0355724Y0162558D01*
X0355640Y0162692D01*
X0355558Y0162828D01*
X0355480Y0162965D01*
X0355406Y0163105D01*
X0355335Y0163247D01*
X0355267Y0163390D01*
X0355203Y0163535D01*
X0355143Y0163681D01*
X0355087Y0163829D01*
X0355034Y0163978D01*
X0354985Y0164129D01*
X0354940Y0164281D01*
X0354899Y0164434D01*
X0354861Y0164587D01*
X0354828Y0164742D01*
X0354798Y0164898D01*
X0354772Y0165054D01*
X0354751Y0165211D01*
X0354733Y0165368D01*
X0354719Y0165526D01*
X0354709Y0165684D01*
X0354703Y0165842D01*
X0354701Y0166000D01*
D11*
X0328500Y0177500D02*
X0328500Y0184500D01*
X0328498Y0184560D01*
X0328493Y0184621D01*
X0328484Y0184680D01*
X0328471Y0184739D01*
X0328455Y0184798D01*
X0328435Y0184855D01*
X0328412Y0184910D01*
X0328385Y0184965D01*
X0328356Y0185017D01*
X0328323Y0185068D01*
X0328287Y0185117D01*
X0328249Y0185163D01*
X0328207Y0185207D01*
X0328163Y0185249D01*
X0328117Y0185287D01*
X0328068Y0185323D01*
X0328017Y0185356D01*
X0327965Y0185385D01*
X0327910Y0185412D01*
X0327855Y0185435D01*
X0327798Y0185455D01*
X0327739Y0185471D01*
X0327680Y0185484D01*
X0327621Y0185493D01*
X0327560Y0185498D01*
X0327500Y0185500D01*
X0326000Y0185500D01*
X0325500Y0185000D01*
X0306500Y0185000D01*
X0306000Y0185500D01*
X0304500Y0185500D01*
X0304440Y0185498D01*
X0304379Y0185493D01*
X0304320Y0185484D01*
X0304261Y0185471D01*
X0304202Y0185455D01*
X0304145Y0185435D01*
X0304090Y0185412D01*
X0304035Y0185385D01*
X0303983Y0185356D01*
X0303932Y0185323D01*
X0303883Y0185287D01*
X0303837Y0185249D01*
X0303793Y0185207D01*
X0303751Y0185163D01*
X0303713Y0185117D01*
X0303677Y0185068D01*
X0303644Y0185017D01*
X0303615Y0184965D01*
X0303588Y0184910D01*
X0303565Y0184855D01*
X0303545Y0184798D01*
X0303529Y0184739D01*
X0303516Y0184680D01*
X0303507Y0184621D01*
X0303502Y0184560D01*
X0303500Y0184500D01*
X0303500Y0177500D01*
X0303502Y0177440D01*
X0303507Y0177379D01*
X0303516Y0177320D01*
X0303529Y0177261D01*
X0303545Y0177202D01*
X0303565Y0177145D01*
X0303588Y0177090D01*
X0303615Y0177035D01*
X0303644Y0176983D01*
X0303677Y0176932D01*
X0303713Y0176883D01*
X0303751Y0176837D01*
X0303793Y0176793D01*
X0303837Y0176751D01*
X0303883Y0176713D01*
X0303932Y0176677D01*
X0303983Y0176644D01*
X0304035Y0176615D01*
X0304090Y0176588D01*
X0304145Y0176565D01*
X0304202Y0176545D01*
X0304261Y0176529D01*
X0304320Y0176516D01*
X0304379Y0176507D01*
X0304440Y0176502D01*
X0304500Y0176500D01*
X0306000Y0176500D01*
X0306500Y0177000D01*
X0325500Y0177000D01*
X0326000Y0176500D01*
X0327500Y0176500D01*
X0327560Y0176502D01*
X0327621Y0176507D01*
X0327680Y0176516D01*
X0327739Y0176529D01*
X0327798Y0176545D01*
X0327855Y0176565D01*
X0327910Y0176588D01*
X0327965Y0176615D01*
X0328017Y0176644D01*
X0328068Y0176677D01*
X0328117Y0176713D01*
X0328163Y0176751D01*
X0328207Y0176793D01*
X0328249Y0176837D01*
X0328287Y0176883D01*
X0328323Y0176932D01*
X0328356Y0176983D01*
X0328385Y0177035D01*
X0328412Y0177090D01*
X0328435Y0177145D01*
X0328455Y0177202D01*
X0328471Y0177261D01*
X0328484Y0177320D01*
X0328493Y0177379D01*
X0328498Y0177440D01*
X0328500Y0177500D01*
X0335452Y0115700D02*
X0335452Y0111078D01*
X0335454Y0110995D01*
X0335460Y0110912D01*
X0335470Y0110829D01*
X0335483Y0110746D01*
X0335501Y0110665D01*
X0335522Y0110584D01*
X0335547Y0110505D01*
X0335576Y0110427D01*
X0335608Y0110350D01*
X0335644Y0110275D01*
X0335683Y0110201D01*
X0335726Y0110130D01*
X0335772Y0110060D01*
X0335822Y0109993D01*
X0335874Y0109928D01*
X0335929Y0109866D01*
X0335988Y0109806D01*
X0336049Y0109749D01*
X0336112Y0109695D01*
X0336178Y0109644D01*
X0336247Y0109597D01*
X0336317Y0109552D01*
X0336390Y0109511D01*
X0336464Y0109474D01*
X0336540Y0109439D01*
X0336618Y0109409D01*
X0336696Y0109382D01*
X0336777Y0109359D01*
X0336858Y0109339D01*
X0336940Y0109324D01*
X0337022Y0109312D01*
X0337105Y0109304D01*
X0337188Y0109300D01*
X0337272Y0109300D01*
X0337355Y0109304D01*
X0337438Y0109312D01*
X0337520Y0109324D01*
X0337602Y0109339D01*
X0337683Y0109359D01*
X0337764Y0109382D01*
X0337842Y0109409D01*
X0337920Y0109439D01*
X0337996Y0109474D01*
X0338070Y0109511D01*
X0338143Y0109552D01*
X0338213Y0109597D01*
X0338282Y0109644D01*
X0338348Y0109695D01*
X0338411Y0109749D01*
X0338472Y0109806D01*
X0338531Y0109866D01*
X0338586Y0109928D01*
X0338638Y0109993D01*
X0338688Y0110060D01*
X0338734Y0110130D01*
X0338777Y0110201D01*
X0338816Y0110275D01*
X0338852Y0110350D01*
X0338884Y0110427D01*
X0338913Y0110505D01*
X0338938Y0110584D01*
X0338959Y0110665D01*
X0338977Y0110746D01*
X0338990Y0110829D01*
X0339000Y0110912D01*
X0339006Y0110995D01*
X0339008Y0111078D01*
X0339007Y0111078D02*
X0339007Y0115700D01*
X0343178Y0115700D02*
X0343178Y0109300D01*
X0343712Y0110011D02*
X0343775Y0110025D01*
X0343837Y0110042D01*
X0343897Y0110063D01*
X0343957Y0110087D01*
X0344014Y0110116D01*
X0344070Y0110147D01*
X0344124Y0110182D01*
X0344176Y0110220D01*
X0344226Y0110261D01*
X0344272Y0110305D01*
X0344316Y0110352D01*
X0344357Y0110402D01*
X0344395Y0110453D01*
X0344430Y0110507D01*
X0344462Y0110563D01*
X0344490Y0110621D01*
X0344514Y0110681D01*
X0344535Y0110741D01*
X0344552Y0110803D01*
X0344566Y0110866D01*
X0344575Y0110930D01*
X0344581Y0110994D01*
X0344583Y0111058D01*
X0344581Y0111122D01*
X0344575Y0111186D01*
X0344565Y0111249D01*
X0344552Y0111312D01*
X0344534Y0111374D01*
X0344513Y0111435D01*
X0344488Y0111494D01*
X0344460Y0111552D01*
X0344428Y0111608D01*
X0344393Y0111662D01*
X0344355Y0111713D01*
X0344314Y0111762D01*
X0344270Y0111809D01*
X0344223Y0111853D01*
X0344173Y0111894D01*
X0344121Y0111932D01*
X0344067Y0111967D01*
X0343178Y0112500D01*
X0342290Y0113033D01*
X0341757Y0110366D02*
X0341845Y0110316D01*
X0341934Y0110268D01*
X0342026Y0110224D01*
X0342119Y0110183D01*
X0342213Y0110146D01*
X0342309Y0110112D01*
X0342406Y0110081D01*
X0342504Y0110054D01*
X0342603Y0110030D01*
X0342702Y0110010D01*
X0342802Y0109994D01*
X0342903Y0109981D01*
X0343004Y0109972D01*
X0343106Y0109967D01*
X0343207Y0109965D01*
X0343309Y0109967D01*
X0343410Y0109972D01*
X0343511Y0109982D01*
X0343612Y0109994D01*
X0343712Y0110011D01*
X0344600Y0114634D02*
X0344512Y0114684D01*
X0344422Y0114732D01*
X0344331Y0114776D01*
X0344238Y0114817D01*
X0344144Y0114854D01*
X0344048Y0114888D01*
X0343951Y0114919D01*
X0343853Y0114946D01*
X0343754Y0114970D01*
X0343655Y0114990D01*
X0343555Y0115006D01*
X0343454Y0115019D01*
X0343353Y0115028D01*
X0343251Y0115033D01*
X0343150Y0115035D01*
X0343048Y0115033D01*
X0342947Y0115028D01*
X0342846Y0115018D01*
X0342745Y0115006D01*
X0342645Y0114989D01*
X0342582Y0114975D01*
X0342520Y0114958D01*
X0342460Y0114937D01*
X0342400Y0114913D01*
X0342343Y0114884D01*
X0342287Y0114853D01*
X0342233Y0114818D01*
X0342181Y0114780D01*
X0342132Y0114739D01*
X0342085Y0114695D01*
X0342041Y0114648D01*
X0342000Y0114598D01*
X0341962Y0114547D01*
X0341927Y0114493D01*
X0341895Y0114437D01*
X0341867Y0114379D01*
X0341843Y0114319D01*
X0341822Y0114259D01*
X0341805Y0114197D01*
X0341791Y0114134D01*
X0341782Y0114070D01*
X0341776Y0114006D01*
X0341774Y0113942D01*
X0341776Y0113878D01*
X0341782Y0113814D01*
X0341792Y0113751D01*
X0341805Y0113688D01*
X0341823Y0113626D01*
X0341844Y0113565D01*
X0341869Y0113506D01*
X0341897Y0113448D01*
X0341929Y0113392D01*
X0341964Y0113338D01*
X0342002Y0113287D01*
X0342043Y0113238D01*
X0342087Y0113191D01*
X0342134Y0113147D01*
X0342184Y0113106D01*
X0342236Y0113068D01*
X0342290Y0113033D01*
X0347144Y0114278D02*
X0348922Y0115700D01*
X0348922Y0109300D01*
X0347144Y0109300D02*
X0350700Y0109300D01*
X0162500Y0141000D02*
X0162500Y0071000D01*
X0139500Y0071000D01*
X0139500Y0141000D01*
X0147000Y0141000D01*
X0147002Y0140874D01*
X0147008Y0140749D01*
X0147018Y0140624D01*
X0147032Y0140499D01*
X0147049Y0140374D01*
X0147071Y0140250D01*
X0147096Y0140127D01*
X0147126Y0140005D01*
X0147159Y0139884D01*
X0147196Y0139764D01*
X0147236Y0139645D01*
X0147281Y0139528D01*
X0147329Y0139411D01*
X0147381Y0139297D01*
X0147436Y0139184D01*
X0147495Y0139073D01*
X0147557Y0138964D01*
X0147623Y0138857D01*
X0147692Y0138752D01*
X0147764Y0138649D01*
X0147839Y0138548D01*
X0147918Y0138450D01*
X0148000Y0138355D01*
X0148084Y0138262D01*
X0148172Y0138172D01*
X0148262Y0138084D01*
X0148355Y0138000D01*
X0148450Y0137918D01*
X0148548Y0137839D01*
X0148649Y0137764D01*
X0148752Y0137692D01*
X0148857Y0137623D01*
X0148964Y0137557D01*
X0149073Y0137495D01*
X0149184Y0137436D01*
X0149297Y0137381D01*
X0149411Y0137329D01*
X0149528Y0137281D01*
X0149645Y0137236D01*
X0149764Y0137196D01*
X0149884Y0137159D01*
X0150005Y0137126D01*
X0150127Y0137096D01*
X0150250Y0137071D01*
X0150374Y0137049D01*
X0150499Y0137032D01*
X0150624Y0137018D01*
X0150749Y0137008D01*
X0150874Y0137002D01*
X0151000Y0137000D01*
X0151126Y0137002D01*
X0151251Y0137008D01*
X0151376Y0137018D01*
X0151501Y0137032D01*
X0151626Y0137049D01*
X0151750Y0137071D01*
X0151873Y0137096D01*
X0151995Y0137126D01*
X0152116Y0137159D01*
X0152236Y0137196D01*
X0152355Y0137236D01*
X0152472Y0137281D01*
X0152589Y0137329D01*
X0152703Y0137381D01*
X0152816Y0137436D01*
X0152927Y0137495D01*
X0153036Y0137557D01*
X0153143Y0137623D01*
X0153248Y0137692D01*
X0153351Y0137764D01*
X0153452Y0137839D01*
X0153550Y0137918D01*
X0153645Y0138000D01*
X0153738Y0138084D01*
X0153828Y0138172D01*
X0153916Y0138262D01*
X0154000Y0138355D01*
X0154082Y0138450D01*
X0154161Y0138548D01*
X0154236Y0138649D01*
X0154308Y0138752D01*
X0154377Y0138857D01*
X0154443Y0138964D01*
X0154505Y0139073D01*
X0154564Y0139184D01*
X0154619Y0139297D01*
X0154671Y0139411D01*
X0154719Y0139528D01*
X0154764Y0139645D01*
X0154804Y0139764D01*
X0154841Y0139884D01*
X0154874Y0140005D01*
X0154904Y0140127D01*
X0154929Y0140250D01*
X0154951Y0140374D01*
X0154968Y0140499D01*
X0154982Y0140624D01*
X0154992Y0140749D01*
X0154998Y0140874D01*
X0155000Y0141000D01*
X0162500Y0141000D01*
X0126000Y0138500D02*
X0126000Y0133500D01*
X0123500Y0131000D01*
X0108500Y0131000D01*
X0106000Y0133500D01*
X0106000Y0138500D01*
X0108500Y0141000D01*
X0123500Y0141000D01*
X0126000Y0143500D01*
X0126000Y0148500D01*
X0123500Y0151000D01*
X0108500Y0151000D01*
X0106000Y0153500D01*
X0106000Y0158500D01*
X0108500Y0161000D01*
X0123500Y0161000D01*
X0126000Y0163500D01*
X0126000Y0168500D01*
X0123500Y0171000D01*
X0126000Y0173500D01*
X0126000Y0178500D01*
X0123500Y0181000D01*
X0108500Y0181000D01*
X0106000Y0178500D01*
X0106000Y0173500D01*
X0108500Y0171000D01*
X0123500Y0171000D01*
X0108500Y0171000D02*
X0106000Y0168500D01*
X0106000Y0163500D01*
X0108500Y0161000D01*
X0123500Y0161000D02*
X0126000Y0158500D01*
X0126000Y0153500D01*
X0123500Y0151000D01*
X0108500Y0151000D02*
X0106000Y0148500D01*
X0106000Y0143500D01*
X0108500Y0141000D01*
X0123500Y0141000D02*
X0126000Y0138500D01*
D12*
X0139250Y0142750D02*
X0140250Y0142750D01*
X0139750Y0142750D02*
X0139750Y0147250D01*
X0139250Y0147250D02*
X0140250Y0147250D01*
X0142085Y0146250D02*
X0142085Y0143750D01*
X0142087Y0143690D01*
X0142092Y0143629D01*
X0142101Y0143570D01*
X0142114Y0143511D01*
X0142130Y0143452D01*
X0142150Y0143395D01*
X0142173Y0143340D01*
X0142200Y0143285D01*
X0142229Y0143233D01*
X0142262Y0143182D01*
X0142298Y0143133D01*
X0142336Y0143087D01*
X0142378Y0143043D01*
X0142422Y0143001D01*
X0142468Y0142963D01*
X0142517Y0142927D01*
X0142568Y0142894D01*
X0142620Y0142865D01*
X0142675Y0142838D01*
X0142730Y0142815D01*
X0142787Y0142795D01*
X0142846Y0142779D01*
X0142905Y0142766D01*
X0142964Y0142757D01*
X0143025Y0142752D01*
X0143085Y0142750D01*
X0144085Y0142750D01*
X0145850Y0142750D02*
X0148350Y0142750D01*
X0147100Y0142750D02*
X0147100Y0147250D01*
X0145850Y0146250D01*
X0144085Y0147250D02*
X0143085Y0147250D01*
X0143025Y0147248D01*
X0142964Y0147243D01*
X0142905Y0147234D01*
X0142846Y0147221D01*
X0142787Y0147205D01*
X0142730Y0147185D01*
X0142675Y0147162D01*
X0142620Y0147135D01*
X0142568Y0147106D01*
X0142517Y0147073D01*
X0142468Y0147037D01*
X0142422Y0146999D01*
X0142378Y0146957D01*
X0142336Y0146913D01*
X0142298Y0146867D01*
X0142262Y0146818D01*
X0142229Y0146767D01*
X0142200Y0146715D01*
X0142173Y0146660D01*
X0142150Y0146605D01*
X0142130Y0146548D01*
X0142114Y0146489D01*
X0142101Y0146430D01*
X0142092Y0146371D01*
X0142087Y0146310D01*
X0142085Y0146250D01*
X0103250Y0141879D02*
X0103250Y0139379D01*
X0103250Y0140629D02*
X0098750Y0140629D01*
X0099750Y0139379D01*
X0098750Y0136354D02*
X0098752Y0136423D01*
X0098758Y0136492D01*
X0098767Y0136560D01*
X0098780Y0136627D01*
X0098797Y0136694D01*
X0098818Y0136760D01*
X0098842Y0136824D01*
X0098870Y0136887D01*
X0098901Y0136949D01*
X0098935Y0137009D01*
X0098973Y0137066D01*
X0099014Y0137122D01*
X0099057Y0137175D01*
X0099104Y0137226D01*
X0099153Y0137274D01*
X0099205Y0137319D01*
X0099260Y0137361D01*
X0099316Y0137400D01*
X0099375Y0137437D01*
X0099436Y0137469D01*
X0099498Y0137499D01*
X0099562Y0137525D01*
X0099627Y0137547D01*
X0099693Y0137566D01*
X0099760Y0137581D01*
X0099828Y0137592D01*
X0099897Y0137600D01*
X0099966Y0137604D01*
X0100034Y0137604D01*
X0100103Y0137600D01*
X0100172Y0137592D01*
X0100240Y0137581D01*
X0100307Y0137566D01*
X0100373Y0137547D01*
X0100438Y0137525D01*
X0100502Y0137499D01*
X0100564Y0137469D01*
X0100625Y0137437D01*
X0100684Y0137400D01*
X0100740Y0137361D01*
X0100795Y0137319D01*
X0100847Y0137274D01*
X0100896Y0137226D01*
X0100943Y0137175D01*
X0100986Y0137122D01*
X0101027Y0137066D01*
X0101065Y0137009D01*
X0101099Y0136949D01*
X0101130Y0136887D01*
X0101158Y0136824D01*
X0101182Y0136760D01*
X0101203Y0136694D01*
X0101220Y0136627D01*
X0101233Y0136560D01*
X0101242Y0136492D01*
X0101248Y0136423D01*
X0101250Y0136354D01*
X0101250Y0135104D01*
X0103250Y0135104D02*
X0098750Y0135104D01*
X0098750Y0136354D01*
X0098750Y0132750D02*
X0102250Y0132750D01*
X0102310Y0132748D01*
X0102371Y0132743D01*
X0102430Y0132734D01*
X0102489Y0132721D01*
X0102548Y0132705D01*
X0102605Y0132685D01*
X0102660Y0132662D01*
X0102715Y0132635D01*
X0102767Y0132606D01*
X0102818Y0132573D01*
X0102867Y0132537D01*
X0102913Y0132499D01*
X0102957Y0132457D01*
X0102999Y0132413D01*
X0103037Y0132367D01*
X0103073Y0132318D01*
X0103106Y0132267D01*
X0103135Y0132215D01*
X0103162Y0132160D01*
X0103185Y0132105D01*
X0103205Y0132048D01*
X0103221Y0131989D01*
X0103234Y0131930D01*
X0103243Y0131871D01*
X0103248Y0131810D01*
X0103250Y0131750D01*
X0103250Y0131250D01*
X0304250Y0187250D02*
X0304250Y0191750D01*
X0305500Y0191750D01*
X0305569Y0191748D01*
X0305638Y0191742D01*
X0305706Y0191733D01*
X0305773Y0191720D01*
X0305840Y0191703D01*
X0305906Y0191682D01*
X0305970Y0191658D01*
X0306033Y0191630D01*
X0306095Y0191599D01*
X0306155Y0191565D01*
X0306212Y0191527D01*
X0306268Y0191486D01*
X0306321Y0191443D01*
X0306372Y0191396D01*
X0306420Y0191347D01*
X0306465Y0191295D01*
X0306507Y0191240D01*
X0306546Y0191184D01*
X0306583Y0191125D01*
X0306615Y0191064D01*
X0306645Y0191002D01*
X0306671Y0190938D01*
X0306693Y0190873D01*
X0306712Y0190807D01*
X0306727Y0190740D01*
X0306738Y0190672D01*
X0306746Y0190603D01*
X0306750Y0190534D01*
X0306750Y0190466D01*
X0306746Y0190397D01*
X0306738Y0190328D01*
X0306727Y0190260D01*
X0306712Y0190193D01*
X0306693Y0190127D01*
X0306671Y0190062D01*
X0306645Y0189998D01*
X0306615Y0189936D01*
X0306583Y0189875D01*
X0306546Y0189816D01*
X0306507Y0189760D01*
X0306465Y0189705D01*
X0306420Y0189653D01*
X0306372Y0189604D01*
X0306321Y0189557D01*
X0306268Y0189514D01*
X0306212Y0189473D01*
X0306155Y0189435D01*
X0306095Y0189401D01*
X0306033Y0189370D01*
X0305970Y0189342D01*
X0305906Y0189318D01*
X0305840Y0189297D01*
X0305773Y0189280D01*
X0305706Y0189267D01*
X0305638Y0189258D01*
X0305569Y0189252D01*
X0305500Y0189250D01*
X0304250Y0189250D01*
X0305750Y0189250D02*
X0306750Y0187250D01*
X0308717Y0187250D02*
X0311217Y0187250D01*
X0309967Y0187250D02*
X0309967Y0191750D01*
X0308717Y0190750D01*
D13*
X0301800Y0181000D03*
X0330200Y0181000D03*
D14*
X0321610Y0060413D02*
X0260390Y0060413D01*
X0260390Y0001413D01*
X0321610Y0001413D01*
X0321610Y0060413D01*
X0340055Y0056083D02*
X0341236Y0056083D01*
X0341236Y0016083D01*
X0340055Y0016083D01*
X0340055Y0056083D01*
X0341236Y0056083D02*
X0342902Y0056083D01*
X0343685Y0056083D01*
X0343685Y0016083D01*
X0341236Y0016083D01*
X0343685Y0016083D02*
X0346363Y0016083D01*
X0348301Y0016083D01*
X0364037Y0016083D01*
X0365938Y0016083D01*
X0371945Y0016083D01*
X0371945Y0056083D01*
X0365938Y0056083D01*
X0364037Y0056083D01*
X0348301Y0056083D01*
X0346363Y0056083D01*
X0346363Y0016083D01*
X0348559Y0026083D02*
X0348561Y0026268D01*
X0348568Y0026453D01*
X0348579Y0026638D01*
X0348595Y0026822D01*
X0348616Y0027006D01*
X0348641Y0027189D01*
X0348670Y0027372D01*
X0348704Y0027554D01*
X0348742Y0027735D01*
X0348785Y0027915D01*
X0348832Y0028094D01*
X0348884Y0028271D01*
X0348940Y0028448D01*
X0349000Y0028623D01*
X0349064Y0028796D01*
X0349133Y0028968D01*
X0349206Y0029138D01*
X0349283Y0029306D01*
X0349364Y0029473D01*
X0349449Y0029637D01*
X0349538Y0029799D01*
X0349632Y0029959D01*
X0349729Y0030116D01*
X0349830Y0030271D01*
X0349934Y0030424D01*
X0350043Y0030574D01*
X0350155Y0030721D01*
X0350270Y0030866D01*
X0350389Y0031007D01*
X0350512Y0031146D01*
X0350638Y0031281D01*
X0350767Y0031414D01*
X0350900Y0031543D01*
X0351035Y0031669D01*
X0351174Y0031792D01*
X0351315Y0031911D01*
X0351460Y0032026D01*
X0351607Y0032138D01*
X0351757Y0032247D01*
X0351910Y0032351D01*
X0352065Y0032452D01*
X0352222Y0032549D01*
X0352382Y0032643D01*
X0352544Y0032732D01*
X0352708Y0032817D01*
X0352875Y0032898D01*
X0353043Y0032975D01*
X0353213Y0033048D01*
X0353385Y0033117D01*
X0353558Y0033181D01*
X0353733Y0033241D01*
X0353910Y0033297D01*
X0354087Y0033349D01*
X0354266Y0033396D01*
X0354446Y0033439D01*
X0354627Y0033477D01*
X0354809Y0033511D01*
X0354992Y0033540D01*
X0355175Y0033565D01*
X0355359Y0033586D01*
X0355543Y0033602D01*
X0355728Y0033613D01*
X0355913Y0033620D01*
X0356098Y0033622D01*
X0356283Y0033620D01*
X0356468Y0033613D01*
X0356653Y0033602D01*
X0356837Y0033586D01*
X0357021Y0033565D01*
X0357204Y0033540D01*
X0357387Y0033511D01*
X0357569Y0033477D01*
X0357750Y0033439D01*
X0357930Y0033396D01*
X0358109Y0033349D01*
X0358286Y0033297D01*
X0358463Y0033241D01*
X0358638Y0033181D01*
X0358811Y0033117D01*
X0358983Y0033048D01*
X0359153Y0032975D01*
X0359321Y0032898D01*
X0359488Y0032817D01*
X0359652Y0032732D01*
X0359814Y0032643D01*
X0359974Y0032549D01*
X0360131Y0032452D01*
X0360286Y0032351D01*
X0360439Y0032247D01*
X0360589Y0032138D01*
X0360736Y0032026D01*
X0360881Y0031911D01*
X0361022Y0031792D01*
X0361161Y0031669D01*
X0361296Y0031543D01*
X0361429Y0031414D01*
X0361558Y0031281D01*
X0361684Y0031146D01*
X0361807Y0031007D01*
X0361926Y0030866D01*
X0362041Y0030721D01*
X0362153Y0030574D01*
X0362262Y0030424D01*
X0362366Y0030271D01*
X0362467Y0030116D01*
X0362564Y0029959D01*
X0362658Y0029799D01*
X0362747Y0029637D01*
X0362832Y0029473D01*
X0362913Y0029306D01*
X0362990Y0029138D01*
X0363063Y0028968D01*
X0363132Y0028796D01*
X0363196Y0028623D01*
X0363256Y0028448D01*
X0363312Y0028271D01*
X0363364Y0028094D01*
X0363411Y0027915D01*
X0363454Y0027735D01*
X0363492Y0027554D01*
X0363526Y0027372D01*
X0363555Y0027189D01*
X0363580Y0027006D01*
X0363601Y0026822D01*
X0363617Y0026638D01*
X0363628Y0026453D01*
X0363635Y0026268D01*
X0363637Y0026083D01*
X0363635Y0025898D01*
X0363628Y0025713D01*
X0363617Y0025528D01*
X0363601Y0025344D01*
X0363580Y0025160D01*
X0363555Y0024977D01*
X0363526Y0024794D01*
X0363492Y0024612D01*
X0363454Y0024431D01*
X0363411Y0024251D01*
X0363364Y0024072D01*
X0363312Y0023895D01*
X0363256Y0023718D01*
X0363196Y0023543D01*
X0363132Y0023370D01*
X0363063Y0023198D01*
X0362990Y0023028D01*
X0362913Y0022860D01*
X0362832Y0022693D01*
X0362747Y0022529D01*
X0362658Y0022367D01*
X0362564Y0022207D01*
X0362467Y0022050D01*
X0362366Y0021895D01*
X0362262Y0021742D01*
X0362153Y0021592D01*
X0362041Y0021445D01*
X0361926Y0021300D01*
X0361807Y0021159D01*
X0361684Y0021020D01*
X0361558Y0020885D01*
X0361429Y0020752D01*
X0361296Y0020623D01*
X0361161Y0020497D01*
X0361022Y0020374D01*
X0360881Y0020255D01*
X0360736Y0020140D01*
X0360589Y0020028D01*
X0360439Y0019919D01*
X0360286Y0019815D01*
X0360131Y0019714D01*
X0359974Y0019617D01*
X0359814Y0019523D01*
X0359652Y0019434D01*
X0359488Y0019349D01*
X0359321Y0019268D01*
X0359153Y0019191D01*
X0358983Y0019118D01*
X0358811Y0019049D01*
X0358638Y0018985D01*
X0358463Y0018925D01*
X0358286Y0018869D01*
X0358109Y0018817D01*
X0357930Y0018770D01*
X0357750Y0018727D01*
X0357569Y0018689D01*
X0357387Y0018655D01*
X0357204Y0018626D01*
X0357021Y0018601D01*
X0356837Y0018580D01*
X0356653Y0018564D01*
X0356468Y0018553D01*
X0356283Y0018546D01*
X0356098Y0018544D01*
X0355913Y0018546D01*
X0355728Y0018553D01*
X0355543Y0018564D01*
X0355359Y0018580D01*
X0355175Y0018601D01*
X0354992Y0018626D01*
X0354809Y0018655D01*
X0354627Y0018689D01*
X0354446Y0018727D01*
X0354266Y0018770D01*
X0354087Y0018817D01*
X0353910Y0018869D01*
X0353733Y0018925D01*
X0353558Y0018985D01*
X0353385Y0019049D01*
X0353213Y0019118D01*
X0353043Y0019191D01*
X0352875Y0019268D01*
X0352708Y0019349D01*
X0352544Y0019434D01*
X0352382Y0019523D01*
X0352222Y0019617D01*
X0352065Y0019714D01*
X0351910Y0019815D01*
X0351757Y0019919D01*
X0351607Y0020028D01*
X0351460Y0020140D01*
X0351315Y0020255D01*
X0351174Y0020374D01*
X0351035Y0020497D01*
X0350900Y0020623D01*
X0350767Y0020752D01*
X0350638Y0020885D01*
X0350512Y0021020D01*
X0350389Y0021159D01*
X0350270Y0021300D01*
X0350155Y0021445D01*
X0350043Y0021592D01*
X0349934Y0021742D01*
X0349830Y0021895D01*
X0349729Y0022050D01*
X0349632Y0022207D01*
X0349538Y0022367D01*
X0349449Y0022529D01*
X0349364Y0022693D01*
X0349283Y0022860D01*
X0349206Y0023028D01*
X0349133Y0023198D01*
X0349064Y0023370D01*
X0349000Y0023543D01*
X0348940Y0023718D01*
X0348884Y0023895D01*
X0348832Y0024072D01*
X0348785Y0024251D01*
X0348742Y0024431D01*
X0348704Y0024612D01*
X0348670Y0024794D01*
X0348641Y0024977D01*
X0348616Y0025160D01*
X0348595Y0025344D01*
X0348579Y0025528D01*
X0348568Y0025713D01*
X0348561Y0025898D01*
X0348559Y0026083D01*
X0365938Y0016083D02*
X0365938Y0056083D01*
X0348559Y0046083D02*
X0348561Y0046268D01*
X0348568Y0046453D01*
X0348579Y0046638D01*
X0348595Y0046822D01*
X0348616Y0047006D01*
X0348641Y0047189D01*
X0348670Y0047372D01*
X0348704Y0047554D01*
X0348742Y0047735D01*
X0348785Y0047915D01*
X0348832Y0048094D01*
X0348884Y0048271D01*
X0348940Y0048448D01*
X0349000Y0048623D01*
X0349064Y0048796D01*
X0349133Y0048968D01*
X0349206Y0049138D01*
X0349283Y0049306D01*
X0349364Y0049473D01*
X0349449Y0049637D01*
X0349538Y0049799D01*
X0349632Y0049959D01*
X0349729Y0050116D01*
X0349830Y0050271D01*
X0349934Y0050424D01*
X0350043Y0050574D01*
X0350155Y0050721D01*
X0350270Y0050866D01*
X0350389Y0051007D01*
X0350512Y0051146D01*
X0350638Y0051281D01*
X0350767Y0051414D01*
X0350900Y0051543D01*
X0351035Y0051669D01*
X0351174Y0051792D01*
X0351315Y0051911D01*
X0351460Y0052026D01*
X0351607Y0052138D01*
X0351757Y0052247D01*
X0351910Y0052351D01*
X0352065Y0052452D01*
X0352222Y0052549D01*
X0352382Y0052643D01*
X0352544Y0052732D01*
X0352708Y0052817D01*
X0352875Y0052898D01*
X0353043Y0052975D01*
X0353213Y0053048D01*
X0353385Y0053117D01*
X0353558Y0053181D01*
X0353733Y0053241D01*
X0353910Y0053297D01*
X0354087Y0053349D01*
X0354266Y0053396D01*
X0354446Y0053439D01*
X0354627Y0053477D01*
X0354809Y0053511D01*
X0354992Y0053540D01*
X0355175Y0053565D01*
X0355359Y0053586D01*
X0355543Y0053602D01*
X0355728Y0053613D01*
X0355913Y0053620D01*
X0356098Y0053622D01*
X0356283Y0053620D01*
X0356468Y0053613D01*
X0356653Y0053602D01*
X0356837Y0053586D01*
X0357021Y0053565D01*
X0357204Y0053540D01*
X0357387Y0053511D01*
X0357569Y0053477D01*
X0357750Y0053439D01*
X0357930Y0053396D01*
X0358109Y0053349D01*
X0358286Y0053297D01*
X0358463Y0053241D01*
X0358638Y0053181D01*
X0358811Y0053117D01*
X0358983Y0053048D01*
X0359153Y0052975D01*
X0359321Y0052898D01*
X0359488Y0052817D01*
X0359652Y0052732D01*
X0359814Y0052643D01*
X0359974Y0052549D01*
X0360131Y0052452D01*
X0360286Y0052351D01*
X0360439Y0052247D01*
X0360589Y0052138D01*
X0360736Y0052026D01*
X0360881Y0051911D01*
X0361022Y0051792D01*
X0361161Y0051669D01*
X0361296Y0051543D01*
X0361429Y0051414D01*
X0361558Y0051281D01*
X0361684Y0051146D01*
X0361807Y0051007D01*
X0361926Y0050866D01*
X0362041Y0050721D01*
X0362153Y0050574D01*
X0362262Y0050424D01*
X0362366Y0050271D01*
X0362467Y0050116D01*
X0362564Y0049959D01*
X0362658Y0049799D01*
X0362747Y0049637D01*
X0362832Y0049473D01*
X0362913Y0049306D01*
X0362990Y0049138D01*
X0363063Y0048968D01*
X0363132Y0048796D01*
X0363196Y0048623D01*
X0363256Y0048448D01*
X0363312Y0048271D01*
X0363364Y0048094D01*
X0363411Y0047915D01*
X0363454Y0047735D01*
X0363492Y0047554D01*
X0363526Y0047372D01*
X0363555Y0047189D01*
X0363580Y0047006D01*
X0363601Y0046822D01*
X0363617Y0046638D01*
X0363628Y0046453D01*
X0363635Y0046268D01*
X0363637Y0046083D01*
X0363635Y0045898D01*
X0363628Y0045713D01*
X0363617Y0045528D01*
X0363601Y0045344D01*
X0363580Y0045160D01*
X0363555Y0044977D01*
X0363526Y0044794D01*
X0363492Y0044612D01*
X0363454Y0044431D01*
X0363411Y0044251D01*
X0363364Y0044072D01*
X0363312Y0043895D01*
X0363256Y0043718D01*
X0363196Y0043543D01*
X0363132Y0043370D01*
X0363063Y0043198D01*
X0362990Y0043028D01*
X0362913Y0042860D01*
X0362832Y0042693D01*
X0362747Y0042529D01*
X0362658Y0042367D01*
X0362564Y0042207D01*
X0362467Y0042050D01*
X0362366Y0041895D01*
X0362262Y0041742D01*
X0362153Y0041592D01*
X0362041Y0041445D01*
X0361926Y0041300D01*
X0361807Y0041159D01*
X0361684Y0041020D01*
X0361558Y0040885D01*
X0361429Y0040752D01*
X0361296Y0040623D01*
X0361161Y0040497D01*
X0361022Y0040374D01*
X0360881Y0040255D01*
X0360736Y0040140D01*
X0360589Y0040028D01*
X0360439Y0039919D01*
X0360286Y0039815D01*
X0360131Y0039714D01*
X0359974Y0039617D01*
X0359814Y0039523D01*
X0359652Y0039434D01*
X0359488Y0039349D01*
X0359321Y0039268D01*
X0359153Y0039191D01*
X0358983Y0039118D01*
X0358811Y0039049D01*
X0358638Y0038985D01*
X0358463Y0038925D01*
X0358286Y0038869D01*
X0358109Y0038817D01*
X0357930Y0038770D01*
X0357750Y0038727D01*
X0357569Y0038689D01*
X0357387Y0038655D01*
X0357204Y0038626D01*
X0357021Y0038601D01*
X0356837Y0038580D01*
X0356653Y0038564D01*
X0356468Y0038553D01*
X0356283Y0038546D01*
X0356098Y0038544D01*
X0355913Y0038546D01*
X0355728Y0038553D01*
X0355543Y0038564D01*
X0355359Y0038580D01*
X0355175Y0038601D01*
X0354992Y0038626D01*
X0354809Y0038655D01*
X0354627Y0038689D01*
X0354446Y0038727D01*
X0354266Y0038770D01*
X0354087Y0038817D01*
X0353910Y0038869D01*
X0353733Y0038925D01*
X0353558Y0038985D01*
X0353385Y0039049D01*
X0353213Y0039118D01*
X0353043Y0039191D01*
X0352875Y0039268D01*
X0352708Y0039349D01*
X0352544Y0039434D01*
X0352382Y0039523D01*
X0352222Y0039617D01*
X0352065Y0039714D01*
X0351910Y0039815D01*
X0351757Y0039919D01*
X0351607Y0040028D01*
X0351460Y0040140D01*
X0351315Y0040255D01*
X0351174Y0040374D01*
X0351035Y0040497D01*
X0350900Y0040623D01*
X0350767Y0040752D01*
X0350638Y0040885D01*
X0350512Y0041020D01*
X0350389Y0041159D01*
X0350270Y0041300D01*
X0350155Y0041445D01*
X0350043Y0041592D01*
X0349934Y0041742D01*
X0349830Y0041895D01*
X0349729Y0042050D01*
X0349632Y0042207D01*
X0349538Y0042367D01*
X0349449Y0042529D01*
X0349364Y0042693D01*
X0349283Y0042860D01*
X0349206Y0043028D01*
X0349133Y0043198D01*
X0349064Y0043370D01*
X0349000Y0043543D01*
X0348940Y0043718D01*
X0348884Y0043895D01*
X0348832Y0044072D01*
X0348785Y0044251D01*
X0348742Y0044431D01*
X0348704Y0044612D01*
X0348670Y0044794D01*
X0348641Y0044977D01*
X0348616Y0045160D01*
X0348595Y0045344D01*
X0348579Y0045528D01*
X0348568Y0045713D01*
X0348561Y0045898D01*
X0348559Y0046083D01*
X0346363Y0056083D02*
X0344531Y0056083D01*
X0343685Y0056083D01*
X0342902Y0056083D02*
X0342902Y0056590D01*
X0342311Y0057292D01*
X0342311Y0058327D01*
X0345122Y0058327D01*
X0345122Y0057292D01*
X0344531Y0056590D01*
X0344531Y0056083D01*
X0326000Y0028000D02*
X0325927Y0027985D01*
X0325856Y0027966D01*
X0325785Y0027944D01*
X0325716Y0027917D01*
X0325648Y0027887D01*
X0325582Y0027853D01*
X0325518Y0027816D01*
X0325456Y0027776D01*
X0325396Y0027732D01*
X0325339Y0027685D01*
X0325284Y0027636D01*
X0325232Y0027583D01*
X0325183Y0027528D01*
X0325136Y0027470D01*
X0325093Y0027410D01*
X0325053Y0027348D01*
X0325017Y0027283D01*
X0324983Y0027217D01*
X0324954Y0027149D01*
X0324928Y0027080D01*
X0324906Y0027009D01*
X0324887Y0026937D01*
X0324873Y0026865D01*
X0324862Y0026791D01*
X0324855Y0026718D01*
X0324852Y0026644D01*
X0324853Y0026569D01*
X0324858Y0026496D01*
X0324867Y0026422D01*
X0324880Y0026349D01*
X0324896Y0026277D01*
X0324916Y0026206D01*
X0324940Y0026136D01*
X0324968Y0026067D01*
X0325000Y0026000D01*
X0325177Y0025510D01*
X0325342Y0025015D01*
X0325495Y0024517D01*
X0325636Y0024015D01*
X0325764Y0023510D01*
X0325880Y0023002D01*
X0325984Y0022491D01*
X0326075Y0021978D01*
X0326154Y0021463D01*
X0326220Y0020946D01*
X0326273Y0020427D01*
X0326314Y0019907D01*
X0326342Y0019387D01*
X0326357Y0018866D01*
X0326359Y0018345D01*
X0326349Y0017824D01*
X0326326Y0017303D01*
X0326291Y0016783D01*
X0326243Y0016264D01*
X0326182Y0015746D01*
X0326108Y0015230D01*
X0326022Y0014716D01*
X0325924Y0014204D01*
X0325813Y0013695D01*
X0325689Y0013189D01*
X0325553Y0012685D01*
X0325405Y0012186D01*
X0325245Y0011690D01*
X0325073Y0011198D01*
X0324889Y0010710D01*
X0324693Y0010227D01*
X0324485Y0009749D01*
X0324266Y0009276D01*
X0324035Y0008809D01*
X0323793Y0008347D01*
X0323540Y0007892D01*
X0323275Y0007443D01*
X0323000Y0007000D01*
X0322000Y0005000D01*
X0259000Y0007000D02*
X0258725Y0007443D01*
X0258460Y0007892D01*
X0258207Y0008347D01*
X0257965Y0008809D01*
X0257734Y0009276D01*
X0257515Y0009749D01*
X0257307Y0010227D01*
X0257111Y0010710D01*
X0256927Y0011198D01*
X0256755Y0011690D01*
X0256595Y0012186D01*
X0256447Y0012685D01*
X0256311Y0013189D01*
X0256187Y0013695D01*
X0256076Y0014204D01*
X0255978Y0014716D01*
X0255892Y0015230D01*
X0255818Y0015746D01*
X0255757Y0016264D01*
X0255709Y0016783D01*
X0255674Y0017303D01*
X0255651Y0017824D01*
X0255641Y0018345D01*
X0255643Y0018866D01*
X0255658Y0019387D01*
X0255686Y0019907D01*
X0255727Y0020427D01*
X0255780Y0020946D01*
X0255846Y0021463D01*
X0255925Y0021978D01*
X0256016Y0022491D01*
X0256120Y0023002D01*
X0256236Y0023510D01*
X0256364Y0024015D01*
X0256505Y0024517D01*
X0256658Y0025015D01*
X0256823Y0025510D01*
X0257000Y0026000D01*
X0257032Y0026067D01*
X0257060Y0026136D01*
X0257084Y0026206D01*
X0257104Y0026277D01*
X0257120Y0026349D01*
X0257133Y0026422D01*
X0257142Y0026496D01*
X0257147Y0026569D01*
X0257148Y0026644D01*
X0257145Y0026718D01*
X0257138Y0026791D01*
X0257127Y0026865D01*
X0257113Y0026937D01*
X0257094Y0027009D01*
X0257072Y0027080D01*
X0257046Y0027149D01*
X0257017Y0027217D01*
X0256983Y0027283D01*
X0256947Y0027348D01*
X0256907Y0027410D01*
X0256864Y0027470D01*
X0256817Y0027528D01*
X0256768Y0027583D01*
X0256716Y0027636D01*
X0256661Y0027685D01*
X0256604Y0027732D01*
X0256544Y0027776D01*
X0256482Y0027816D01*
X0256418Y0027853D01*
X0256352Y0027887D01*
X0256284Y0027917D01*
X0256215Y0027944D01*
X0256144Y0027966D01*
X0256073Y0027985D01*
X0256000Y0028000D01*
X0246000Y0028000D02*
X0245927Y0027985D01*
X0245856Y0027966D01*
X0245785Y0027944D01*
X0245716Y0027917D01*
X0245648Y0027887D01*
X0245582Y0027853D01*
X0245518Y0027816D01*
X0245456Y0027776D01*
X0245396Y0027732D01*
X0245339Y0027685D01*
X0245284Y0027636D01*
X0245232Y0027583D01*
X0245183Y0027528D01*
X0245136Y0027470D01*
X0245093Y0027410D01*
X0245053Y0027348D01*
X0245017Y0027283D01*
X0244983Y0027217D01*
X0244954Y0027149D01*
X0244928Y0027080D01*
X0244906Y0027009D01*
X0244887Y0026937D01*
X0244873Y0026865D01*
X0244862Y0026791D01*
X0244855Y0026718D01*
X0244852Y0026644D01*
X0244853Y0026569D01*
X0244858Y0026496D01*
X0244867Y0026422D01*
X0244880Y0026349D01*
X0244896Y0026277D01*
X0244916Y0026206D01*
X0244940Y0026136D01*
X0244968Y0026067D01*
X0245000Y0026000D01*
X0245177Y0025510D01*
X0245342Y0025015D01*
X0245495Y0024517D01*
X0245636Y0024015D01*
X0245764Y0023510D01*
X0245880Y0023002D01*
X0245984Y0022491D01*
X0246075Y0021978D01*
X0246154Y0021463D01*
X0246220Y0020946D01*
X0246273Y0020427D01*
X0246314Y0019907D01*
X0246342Y0019387D01*
X0246357Y0018866D01*
X0246359Y0018345D01*
X0246349Y0017824D01*
X0246326Y0017303D01*
X0246291Y0016783D01*
X0246243Y0016264D01*
X0246182Y0015746D01*
X0246108Y0015230D01*
X0246022Y0014716D01*
X0245924Y0014204D01*
X0245813Y0013695D01*
X0245689Y0013189D01*
X0245553Y0012685D01*
X0245405Y0012186D01*
X0245245Y0011690D01*
X0245073Y0011198D01*
X0244889Y0010710D01*
X0244693Y0010227D01*
X0244485Y0009749D01*
X0244266Y0009276D01*
X0244035Y0008809D01*
X0243793Y0008347D01*
X0243540Y0007892D01*
X0243275Y0007443D01*
X0243000Y0007000D01*
X0242000Y0005000D01*
X0241610Y0001413D02*
X0241610Y0060413D01*
X0180390Y0060413D01*
X0180390Y0001413D01*
X0241610Y0001413D01*
X0259000Y0007000D02*
X0260000Y0005000D01*
X0179000Y0007000D02*
X0178725Y0007443D01*
X0178460Y0007892D01*
X0178207Y0008347D01*
X0177965Y0008809D01*
X0177734Y0009276D01*
X0177515Y0009749D01*
X0177307Y0010227D01*
X0177111Y0010710D01*
X0176927Y0011198D01*
X0176755Y0011690D01*
X0176595Y0012186D01*
X0176447Y0012685D01*
X0176311Y0013189D01*
X0176187Y0013695D01*
X0176076Y0014204D01*
X0175978Y0014716D01*
X0175892Y0015230D01*
X0175818Y0015746D01*
X0175757Y0016264D01*
X0175709Y0016783D01*
X0175674Y0017303D01*
X0175651Y0017824D01*
X0175641Y0018345D01*
X0175643Y0018866D01*
X0175658Y0019387D01*
X0175686Y0019907D01*
X0175727Y0020427D01*
X0175780Y0020946D01*
X0175846Y0021463D01*
X0175925Y0021978D01*
X0176016Y0022491D01*
X0176120Y0023002D01*
X0176236Y0023510D01*
X0176364Y0024015D01*
X0176505Y0024517D01*
X0176658Y0025015D01*
X0176823Y0025510D01*
X0177000Y0026000D01*
X0177032Y0026067D01*
X0177060Y0026136D01*
X0177084Y0026206D01*
X0177104Y0026277D01*
X0177120Y0026349D01*
X0177133Y0026422D01*
X0177142Y0026496D01*
X0177147Y0026569D01*
X0177148Y0026644D01*
X0177145Y0026718D01*
X0177138Y0026791D01*
X0177127Y0026865D01*
X0177113Y0026937D01*
X0177094Y0027009D01*
X0177072Y0027080D01*
X0177046Y0027149D01*
X0177017Y0027217D01*
X0176983Y0027283D01*
X0176947Y0027348D01*
X0176907Y0027410D01*
X0176864Y0027470D01*
X0176817Y0027528D01*
X0176768Y0027583D01*
X0176716Y0027636D01*
X0176661Y0027685D01*
X0176604Y0027732D01*
X0176544Y0027776D01*
X0176482Y0027816D01*
X0176418Y0027853D01*
X0176352Y0027887D01*
X0176284Y0027917D01*
X0176215Y0027944D01*
X0176144Y0027966D01*
X0176073Y0027985D01*
X0176000Y0028000D01*
X0166000Y0028000D02*
X0165927Y0027985D01*
X0165856Y0027966D01*
X0165785Y0027944D01*
X0165716Y0027917D01*
X0165648Y0027887D01*
X0165582Y0027853D01*
X0165518Y0027816D01*
X0165456Y0027776D01*
X0165396Y0027732D01*
X0165339Y0027685D01*
X0165284Y0027636D01*
X0165232Y0027583D01*
X0165183Y0027528D01*
X0165136Y0027470D01*
X0165093Y0027410D01*
X0165053Y0027348D01*
X0165017Y0027283D01*
X0164983Y0027217D01*
X0164954Y0027149D01*
X0164928Y0027080D01*
X0164906Y0027009D01*
X0164887Y0026937D01*
X0164873Y0026865D01*
X0164862Y0026791D01*
X0164855Y0026718D01*
X0164852Y0026644D01*
X0164853Y0026569D01*
X0164858Y0026496D01*
X0164867Y0026422D01*
X0164880Y0026349D01*
X0164896Y0026277D01*
X0164916Y0026206D01*
X0164940Y0026136D01*
X0164968Y0026067D01*
X0165000Y0026000D01*
X0165177Y0025510D01*
X0165342Y0025015D01*
X0165495Y0024517D01*
X0165636Y0024015D01*
X0165764Y0023510D01*
X0165880Y0023002D01*
X0165984Y0022491D01*
X0166075Y0021978D01*
X0166154Y0021463D01*
X0166220Y0020946D01*
X0166273Y0020427D01*
X0166314Y0019907D01*
X0166342Y0019387D01*
X0166357Y0018866D01*
X0166359Y0018345D01*
X0166349Y0017824D01*
X0166326Y0017303D01*
X0166291Y0016783D01*
X0166243Y0016264D01*
X0166182Y0015746D01*
X0166108Y0015230D01*
X0166022Y0014716D01*
X0165924Y0014204D01*
X0165813Y0013695D01*
X0165689Y0013189D01*
X0165553Y0012685D01*
X0165405Y0012186D01*
X0165245Y0011690D01*
X0165073Y0011198D01*
X0164889Y0010710D01*
X0164693Y0010227D01*
X0164485Y0009749D01*
X0164266Y0009276D01*
X0164035Y0008809D01*
X0163793Y0008347D01*
X0163540Y0007892D01*
X0163275Y0007443D01*
X0163000Y0007000D01*
X0162000Y0005000D01*
X0161610Y0001413D02*
X0161610Y0060413D01*
X0100390Y0060413D01*
X0100390Y0001413D01*
X0161610Y0001413D01*
X0179000Y0007000D02*
X0180000Y0005000D01*
X0099000Y0007000D02*
X0098725Y0007443D01*
X0098460Y0007892D01*
X0098207Y0008347D01*
X0097965Y0008809D01*
X0097734Y0009276D01*
X0097515Y0009749D01*
X0097307Y0010227D01*
X0097111Y0010710D01*
X0096927Y0011198D01*
X0096755Y0011690D01*
X0096595Y0012186D01*
X0096447Y0012685D01*
X0096311Y0013189D01*
X0096187Y0013695D01*
X0096076Y0014204D01*
X0095978Y0014716D01*
X0095892Y0015230D01*
X0095818Y0015746D01*
X0095757Y0016264D01*
X0095709Y0016783D01*
X0095674Y0017303D01*
X0095651Y0017824D01*
X0095641Y0018345D01*
X0095643Y0018866D01*
X0095658Y0019387D01*
X0095686Y0019907D01*
X0095727Y0020427D01*
X0095780Y0020946D01*
X0095846Y0021463D01*
X0095925Y0021978D01*
X0096016Y0022491D01*
X0096120Y0023002D01*
X0096236Y0023510D01*
X0096364Y0024015D01*
X0096505Y0024517D01*
X0096658Y0025015D01*
X0096823Y0025510D01*
X0097000Y0026000D01*
X0097032Y0026067D01*
X0097060Y0026136D01*
X0097084Y0026206D01*
X0097104Y0026277D01*
X0097120Y0026349D01*
X0097133Y0026422D01*
X0097142Y0026496D01*
X0097147Y0026569D01*
X0097148Y0026644D01*
X0097145Y0026718D01*
X0097138Y0026791D01*
X0097127Y0026865D01*
X0097113Y0026937D01*
X0097094Y0027009D01*
X0097072Y0027080D01*
X0097046Y0027149D01*
X0097017Y0027217D01*
X0096983Y0027283D01*
X0096947Y0027348D01*
X0096907Y0027410D01*
X0096864Y0027470D01*
X0096817Y0027528D01*
X0096768Y0027583D01*
X0096716Y0027636D01*
X0096661Y0027685D01*
X0096604Y0027732D01*
X0096544Y0027776D01*
X0096482Y0027816D01*
X0096418Y0027853D01*
X0096352Y0027887D01*
X0096284Y0027917D01*
X0096215Y0027944D01*
X0096144Y0027966D01*
X0096073Y0027985D01*
X0096000Y0028000D01*
X0086000Y0028000D02*
X0085927Y0027985D01*
X0085856Y0027966D01*
X0085785Y0027944D01*
X0085716Y0027917D01*
X0085648Y0027887D01*
X0085582Y0027853D01*
X0085518Y0027816D01*
X0085456Y0027776D01*
X0085396Y0027732D01*
X0085339Y0027685D01*
X0085284Y0027636D01*
X0085232Y0027583D01*
X0085183Y0027528D01*
X0085136Y0027470D01*
X0085093Y0027410D01*
X0085053Y0027348D01*
X0085017Y0027283D01*
X0084983Y0027217D01*
X0084954Y0027149D01*
X0084928Y0027080D01*
X0084906Y0027009D01*
X0084887Y0026937D01*
X0084873Y0026865D01*
X0084862Y0026791D01*
X0084855Y0026718D01*
X0084852Y0026644D01*
X0084853Y0026569D01*
X0084858Y0026496D01*
X0084867Y0026422D01*
X0084880Y0026349D01*
X0084896Y0026277D01*
X0084916Y0026206D01*
X0084940Y0026136D01*
X0084968Y0026067D01*
X0085000Y0026000D01*
X0085177Y0025510D01*
X0085342Y0025015D01*
X0085495Y0024517D01*
X0085636Y0024015D01*
X0085764Y0023510D01*
X0085880Y0023002D01*
X0085984Y0022491D01*
X0086075Y0021978D01*
X0086154Y0021463D01*
X0086220Y0020946D01*
X0086273Y0020427D01*
X0086314Y0019907D01*
X0086342Y0019387D01*
X0086357Y0018866D01*
X0086359Y0018345D01*
X0086349Y0017824D01*
X0086326Y0017303D01*
X0086291Y0016783D01*
X0086243Y0016264D01*
X0086182Y0015746D01*
X0086108Y0015230D01*
X0086022Y0014716D01*
X0085924Y0014204D01*
X0085813Y0013695D01*
X0085689Y0013189D01*
X0085553Y0012685D01*
X0085405Y0012186D01*
X0085245Y0011690D01*
X0085073Y0011198D01*
X0084889Y0010710D01*
X0084693Y0010227D01*
X0084485Y0009749D01*
X0084266Y0009276D01*
X0084035Y0008809D01*
X0083793Y0008347D01*
X0083540Y0007892D01*
X0083275Y0007443D01*
X0083000Y0007000D01*
X0082000Y0005000D01*
X0081610Y0001413D02*
X0081610Y0060413D01*
X0020390Y0060413D01*
X0020390Y0001413D01*
X0081610Y0001413D01*
X0099000Y0007000D02*
X0100000Y0005000D01*
X0019000Y0007000D02*
X0018725Y0007443D01*
X0018460Y0007892D01*
X0018207Y0008347D01*
X0017965Y0008809D01*
X0017734Y0009276D01*
X0017515Y0009749D01*
X0017307Y0010227D01*
X0017111Y0010710D01*
X0016927Y0011198D01*
X0016755Y0011690D01*
X0016595Y0012186D01*
X0016447Y0012685D01*
X0016311Y0013189D01*
X0016187Y0013695D01*
X0016076Y0014204D01*
X0015978Y0014716D01*
X0015892Y0015230D01*
X0015818Y0015746D01*
X0015757Y0016264D01*
X0015709Y0016783D01*
X0015674Y0017303D01*
X0015651Y0017824D01*
X0015641Y0018345D01*
X0015643Y0018866D01*
X0015658Y0019387D01*
X0015686Y0019907D01*
X0015727Y0020427D01*
X0015780Y0020946D01*
X0015846Y0021463D01*
X0015925Y0021978D01*
X0016016Y0022491D01*
X0016120Y0023002D01*
X0016236Y0023510D01*
X0016364Y0024015D01*
X0016505Y0024517D01*
X0016658Y0025015D01*
X0016823Y0025510D01*
X0017000Y0026000D01*
X0017032Y0026067D01*
X0017060Y0026136D01*
X0017084Y0026206D01*
X0017104Y0026277D01*
X0017120Y0026349D01*
X0017133Y0026422D01*
X0017142Y0026496D01*
X0017147Y0026569D01*
X0017148Y0026644D01*
X0017145Y0026718D01*
X0017138Y0026791D01*
X0017127Y0026865D01*
X0017113Y0026937D01*
X0017094Y0027009D01*
X0017072Y0027080D01*
X0017046Y0027149D01*
X0017017Y0027217D01*
X0016983Y0027283D01*
X0016947Y0027348D01*
X0016907Y0027410D01*
X0016864Y0027470D01*
X0016817Y0027528D01*
X0016768Y0027583D01*
X0016716Y0027636D01*
X0016661Y0027685D01*
X0016604Y0027732D01*
X0016544Y0027776D01*
X0016482Y0027816D01*
X0016418Y0027853D01*
X0016352Y0027887D01*
X0016284Y0027917D01*
X0016215Y0027944D01*
X0016144Y0027966D01*
X0016073Y0027985D01*
X0016000Y0028000D01*
X0019000Y0007000D02*
X0020000Y0005000D01*
D15*
X0021200Y0063700D02*
X0024267Y0068300D01*
X0025956Y0068300D02*
X0025956Y0066256D01*
X0027489Y0066256D01*
X0027489Y0066255D02*
X0027551Y0066253D01*
X0027612Y0066248D01*
X0027673Y0066238D01*
X0027734Y0066225D01*
X0027793Y0066209D01*
X0027851Y0066189D01*
X0027908Y0066165D01*
X0027964Y0066138D01*
X0028018Y0066108D01*
X0028070Y0066074D01*
X0028119Y0066038D01*
X0028167Y0065998D01*
X0028212Y0065956D01*
X0028254Y0065911D01*
X0028294Y0065863D01*
X0028330Y0065814D01*
X0028364Y0065762D01*
X0028394Y0065708D01*
X0028421Y0065652D01*
X0028445Y0065595D01*
X0028465Y0065537D01*
X0028481Y0065478D01*
X0028494Y0065417D01*
X0028504Y0065356D01*
X0028509Y0065295D01*
X0028511Y0065233D01*
X0028511Y0064722D01*
X0028509Y0064660D01*
X0028504Y0064599D01*
X0028494Y0064538D01*
X0028481Y0064477D01*
X0028465Y0064418D01*
X0028445Y0064360D01*
X0028421Y0064303D01*
X0028394Y0064247D01*
X0028364Y0064193D01*
X0028330Y0064141D01*
X0028294Y0064092D01*
X0028254Y0064044D01*
X0028212Y0063999D01*
X0028167Y0063957D01*
X0028119Y0063917D01*
X0028070Y0063881D01*
X0028018Y0063847D01*
X0027964Y0063817D01*
X0027908Y0063790D01*
X0027851Y0063766D01*
X0027793Y0063746D01*
X0027734Y0063730D01*
X0027673Y0063717D01*
X0027612Y0063707D01*
X0027551Y0063702D01*
X0027489Y0063700D01*
X0025956Y0063700D01*
X0024267Y0063700D02*
X0021200Y0068300D01*
X0025956Y0068300D02*
X0028511Y0068300D01*
X0101200Y0068300D02*
X0104267Y0063700D01*
X0105956Y0064722D02*
X0108511Y0064722D01*
X0107744Y0065744D02*
X0107744Y0063700D01*
X0105956Y0064722D02*
X0106978Y0068300D01*
X0104267Y0068300D02*
X0101200Y0063700D01*
X0181200Y0063700D02*
X0184267Y0068300D01*
X0185956Y0068300D02*
X0187489Y0068300D01*
X0187552Y0068298D01*
X0187615Y0068292D01*
X0187677Y0068283D01*
X0187738Y0068269D01*
X0187799Y0068252D01*
X0187858Y0068231D01*
X0187916Y0068206D01*
X0187973Y0068178D01*
X0188027Y0068147D01*
X0188079Y0068112D01*
X0188130Y0068074D01*
X0188178Y0068033D01*
X0188223Y0067989D01*
X0188265Y0067943D01*
X0188305Y0067894D01*
X0188341Y0067843D01*
X0188374Y0067789D01*
X0188404Y0067734D01*
X0188430Y0067676D01*
X0188453Y0067618D01*
X0188472Y0067558D01*
X0188487Y0067497D01*
X0188499Y0067435D01*
X0188507Y0067372D01*
X0188511Y0067309D01*
X0188511Y0067247D01*
X0188507Y0067184D01*
X0188499Y0067121D01*
X0188487Y0067059D01*
X0188472Y0066998D01*
X0188453Y0066938D01*
X0188430Y0066880D01*
X0188404Y0066822D01*
X0188374Y0066767D01*
X0188341Y0066713D01*
X0188305Y0066662D01*
X0188265Y0066613D01*
X0188223Y0066567D01*
X0188178Y0066523D01*
X0188130Y0066482D01*
X0188079Y0066444D01*
X0188027Y0066409D01*
X0187973Y0066378D01*
X0187916Y0066350D01*
X0187858Y0066325D01*
X0187799Y0066304D01*
X0187738Y0066287D01*
X0187677Y0066273D01*
X0187615Y0066264D01*
X0187552Y0066258D01*
X0187489Y0066256D01*
X0186467Y0066256D01*
X0187233Y0066256D02*
X0187303Y0066254D01*
X0187374Y0066248D01*
X0187443Y0066239D01*
X0187512Y0066225D01*
X0187581Y0066208D01*
X0187648Y0066187D01*
X0187714Y0066162D01*
X0187778Y0066134D01*
X0187841Y0066102D01*
X0187902Y0066067D01*
X0187961Y0066028D01*
X0188018Y0065987D01*
X0188072Y0065942D01*
X0188124Y0065894D01*
X0188173Y0065844D01*
X0188220Y0065790D01*
X0188263Y0065735D01*
X0188303Y0065677D01*
X0188340Y0065617D01*
X0188373Y0065555D01*
X0188403Y0065491D01*
X0188430Y0065426D01*
X0188453Y0065360D01*
X0188472Y0065292D01*
X0188487Y0065223D01*
X0188499Y0065154D01*
X0188507Y0065084D01*
X0188511Y0065013D01*
X0188511Y0064943D01*
X0188507Y0064872D01*
X0188499Y0064802D01*
X0188487Y0064733D01*
X0188472Y0064664D01*
X0188453Y0064596D01*
X0188430Y0064530D01*
X0188403Y0064465D01*
X0188373Y0064401D01*
X0188340Y0064339D01*
X0188303Y0064279D01*
X0188263Y0064221D01*
X0188220Y0064166D01*
X0188173Y0064112D01*
X0188124Y0064062D01*
X0188072Y0064014D01*
X0188018Y0063969D01*
X0187961Y0063928D01*
X0187902Y0063889D01*
X0187841Y0063854D01*
X0187778Y0063822D01*
X0187714Y0063794D01*
X0187648Y0063769D01*
X0187581Y0063748D01*
X0187512Y0063731D01*
X0187443Y0063717D01*
X0187374Y0063708D01*
X0187303Y0063702D01*
X0187233Y0063700D01*
X0185956Y0063700D01*
X0184267Y0063700D02*
X0181200Y0068300D01*
X0261200Y0068300D02*
X0264267Y0063700D01*
X0265956Y0063700D02*
X0268511Y0063700D01*
X0265956Y0063700D02*
X0268128Y0066256D01*
X0267361Y0068300D02*
X0267287Y0068298D01*
X0267213Y0068293D01*
X0267139Y0068283D01*
X0267066Y0068270D01*
X0266993Y0068254D01*
X0266922Y0068233D01*
X0266852Y0068209D01*
X0266783Y0068182D01*
X0266715Y0068151D01*
X0266649Y0068117D01*
X0266585Y0068080D01*
X0266523Y0068039D01*
X0266463Y0067995D01*
X0266405Y0067949D01*
X0266349Y0067899D01*
X0266296Y0067847D01*
X0266246Y0067792D01*
X0266199Y0067735D01*
X0266155Y0067675D01*
X0266113Y0067613D01*
X0266075Y0067550D01*
X0266040Y0067484D01*
X0266009Y0067417D01*
X0265981Y0067348D01*
X0265956Y0067278D01*
X0268128Y0066256D02*
X0268175Y0066303D01*
X0268219Y0066353D01*
X0268261Y0066405D01*
X0268300Y0066459D01*
X0268335Y0066515D01*
X0268368Y0066573D01*
X0268398Y0066633D01*
X0268424Y0066694D01*
X0268447Y0066757D01*
X0268466Y0066821D01*
X0268482Y0066885D01*
X0268495Y0066951D01*
X0268504Y0067017D01*
X0268509Y0067083D01*
X0268511Y0067150D01*
X0268509Y0067217D01*
X0268503Y0067284D01*
X0268494Y0067350D01*
X0268480Y0067415D01*
X0268463Y0067480D01*
X0268442Y0067543D01*
X0268417Y0067605D01*
X0268389Y0067666D01*
X0268357Y0067725D01*
X0268322Y0067782D01*
X0268283Y0067837D01*
X0268242Y0067889D01*
X0268197Y0067939D01*
X0268150Y0067986D01*
X0268100Y0068031D01*
X0268048Y0068072D01*
X0267993Y0068111D01*
X0267936Y0068146D01*
X0267877Y0068178D01*
X0267816Y0068206D01*
X0267754Y0068231D01*
X0267691Y0068252D01*
X0267626Y0068269D01*
X0267561Y0068283D01*
X0267495Y0068292D01*
X0267428Y0068298D01*
X0267361Y0068300D01*
X0264267Y0068300D02*
X0261200Y0063700D01*
X0373700Y0053227D02*
X0374722Y0051950D01*
X0373700Y0053227D02*
X0378300Y0053227D01*
X0378300Y0051950D02*
X0378300Y0054505D01*
X0378300Y0050261D02*
X0373700Y0047194D01*
X0373700Y0050261D02*
X0378300Y0047194D01*
M02*
